<?xml version="1.0" standalone="no"?>
<!DOCTYPE svg PUBLIC "-//W3C//DTD SVG 1.1//EN" "http://www.w3.org/Graphics/SVG/1.1/DTD/svg11.dtd" >
<svg xmlns="http://www.w3.org/2000/svg">
<metadata></metadata>
<defs>
<font id="century751_no2_btroman" horiz-adv-x="1024" >
<font-face units-per-em="2048" ascent="1556" descent="-492" />
<missing-glyph horiz-adv-x="569" />
<glyph horiz-adv-x="0" />
<glyph unicode="&#xd;" horiz-adv-x="569" />
<glyph unicode=" "  horiz-adv-x="569" />
<glyph unicode="&#x09;" horiz-adv-x="569" />
<glyph unicode="&#xa0;" horiz-adv-x="569" />
<glyph unicode="!" horiz-adv-x="729" d="M258 88q0 41 33 73t76 32q42 0 73 -31.5t31 -73.5q0 -47 -29.5 -76.5t-74.5 -29.5t-77 31t-32 75zM258 1276q0 85 26 137t81 76q52 -24 79 -75.5t27 -127.5q0 -40 -35.5 -362t-42.5 -610l-57 -1q-8 297 -43 615.5t-35 347.5z" />
<glyph unicode="&#x22;" horiz-adv-x="678" d="M90 1362q0 48 22 74t62 26q41 0 63.5 -26t22.5 -74q0 -9 -3 -34q-1 -5 -1 -7l-66 -457h-32l-64 457q-2 17 -3 26t-1 15zM418 1360q0 49 22.5 75.5t63.5 26.5q40 0 62 -26t22 -74q0 -14 -0.5 -23t-1.5 -18l-68 -457h-31l-65 457q0 2 -1 6q-3 22 -3 33z" />
<glyph unicode="#" horiz-adv-x="1575" d="M104 467l43 115h322l100 286h-348l43 117h348l166 471h133l-168 -471h287l168 471h131l-166 -471h307l-40 -117h-310l-100 -286h332l-43 -115h-330l-166 -469h-133l166 469h-287l-166 -469h-131l166 469h-324zM600 582h289l102 286h-291z" />
<glyph unicode="$" horiz-adv-x="1139" d="M88 336q0 57 21 90t57 33q34 0 53 -27.5t19 -77.5q0 -34 -9.5 -62t-29.5 -56q31 -84 115.5 -135t201.5 -56v625q-198 53 -292.5 151.5t-94.5 251.5q0 166 111 266.5t303 108.5v145h65v-147q158 -10 259.5 -85t101.5 -177q0 -49 -20 -78t-52 -29q-34 0 -54 29.5t-20 79.5 q0 30 5.5 56.5t16.5 52.5q-43 41 -104.5 64.5t-132.5 24.5v-581q218 -72 312 -170.5t94 -251.5q0 -168 -113.5 -273t-318.5 -126v-187h-66v188q-182 8 -305 112.5t-123 240.5zM285 1108q0 -112 59.5 -177.5t198.5 -105.5v561q-124 -16 -191 -88.5t-67 -189.5zM582 47 q126 14 199 91t73 198q0 126 -61.5 196t-210.5 113v-598z" />
<glyph unicode="%" horiz-adv-x="1597" d="M90 991q0 214 84 336.5t229 122.5q147 0 227.5 -115t80.5 -325q0 -199 -86.5 -320t-227.5 -121t-224 113.5t-83 308.5zM221 979q0 -169 45 -262.5t125 -93.5q89 0 139 110t50 307q0 173 -45 265t-129 92q-85 0 -135 -112.5t-50 -305.5zM291 -18l926 1468h88l-924 -1468 h-90zM885 406q0 210 84.5 333t228.5 123q141 0 225 -114t84 -308q0 -213 -84.5 -335.5t-230.5 -122.5q-142 0 -224.5 113t-82.5 311zM1016 391q0 -171 45.5 -263.5t130.5 -92.5q84 0 134 112t50 306q0 169 -45.5 262.5t-128.5 93.5q-85 0 -135.5 -112t-50.5 -306z" />
<glyph unicode="&#x26;" horiz-adv-x="1470" d="M94 375q0 142 80 254.5t229 179.5q-101 64 -150.5 146.5t-49.5 185.5q0 150 105.5 250t266.5 100q136 0 220 -79.5t84 -207.5q0 -118 -66.5 -204t-198.5 -140q104 -47 184.5 -142.5t184.5 -307.5q50 86 78.5 168t28.5 137t-35.5 77.5t-132.5 24.5v62q59 -5 113.5 -7 t105.5 -2t107.5 2t119.5 7v-62q-91 0 -135 -19.5t-57 -63.5q-3 -10 -9 -36q-41 -191 -145 -360q52 -108 116.5 -166.5t129.5 -58.5q59 0 103.5 40.5t72.5 120.5l47 -16q-44 -140 -119 -208t-186 -68q-86 0 -157.5 50.5t-121.5 145.5q-89 -100 -191 -148t-224 -48 q-179 0 -288.5 108t-109.5 285zM264 428q0 -158 85.5 -251t232.5 -93q87 0 160 40.5t139 125.5l-15 30q-202 421 -405 496q-97 -55 -147 -143.5t-50 -204.5zM346 1206q0 -108 54.5 -189.5t156.5 -125.5q101 53 143.5 114.5t42.5 155.5q0 123 -54.5 194.5t-145.5 71.5 q-87 0 -142 -61t-55 -160z" />
<glyph unicode="'" horiz-adv-x="348" d="M90 1360q0 50 21.5 76t62.5 26t63.5 -26t22.5 -74q0 -9 -3 -34q-1 -5 -1 -7l-66 -457h-32l-66 457q-1 8 -1.5 16t-0.5 23z" />
<glyph unicode="(" horiz-adv-x="825" d="M197 569q0 299 154.5 543t447.5 406l18 -33q-246 -172 -366.5 -392.5t-120.5 -496.5q0 -288 119.5 -537.5t363.5 -468.5l-25 -32q-302 231 -446.5 478.5t-144.5 532.5z" />
<glyph unicode=")" horiz-adv-x="825" d="M6 -410q246 173 367 393t121 498q0 287 -120 536t-364 468l25 33q304 -233 448 -479t144 -533q0 -299 -155 -542t-447 -406z" />
<glyph unicode="*" horiz-adv-x="985" d="M193 982.5v12.5q0 48 175 114q37 14 58 21l20 -36q-21 -17 -58 -47q-117 -95 -146 -95q-14 0 -25.5 5t-21.5 15q-2 6 -2 10.5zM193 1294v4q0 4 0.5 7.5t3.5 11.5q10 10 21 15t24 5q34 0 202 -139l2 -2l-20 -37q-20 8 -55 21q-178 68 -178 114zM442 874q0 31 20 151 q6 34 9 52h43q4 -22 10 -60q19 -115 19 -143q0 -32 -11.5 -49t-38.5 -24q-27 8 -39 25t-12 48zM442 1415q0 32 12 49t40 25q25 -7 37 -24t12 -50q0 -28 -20 -151q-6 -35 -9 -53l-42 -1q-4 19 -10 54q-20 123 -20 151zM539 1094l22 34q23 -8 64 -24q168 -62 168 -109 q0 -7 -0.5 -11.5t-2.5 -11.5q-10 -9 -21.5 -14.5t-25.5 -5.5q-31 0 -173 116zM541 1196q12 10 34 28q136 113 168 113q14 0 25.5 -5t22.5 -16q1 -6 1.5 -11t0.5 -11q0 -49 -169 -111q-40 -15 -63 -24z" />
<glyph unicode="+" horiz-adv-x="1706" d="M254 553v117h541v551h118v-551h539v-117h-539v-553h-118v553h-541z" />
<glyph unicode="," horiz-adv-x="569" d="M150 104q0 48 30 79.5t76 31.5q61 0 99 -50.5t38 -133.5q0 -93 -52.5 -187t-150.5 -174l-36 41q74 64 110.5 128t36.5 132q0 15 -0.5 22t-1.5 13q-13 -3 -25 -4.5t-22 -1.5q-46 0 -74 28.5t-28 75.5z" />
<glyph unicode="-" horiz-adv-x="707" d="M94 438v123h498v-123h-498z" />
<glyph unicode="." horiz-adv-x="569" d="M190 102q0 51 26 82t69 31q42 0 68 -31t26 -82t-26 -81.5t-68 -30.5q-43 0 -69 30.5t-26 81.5z" />
<glyph unicode="/" horiz-adv-x="606" d="M-80 -190l610 1679h103l-610 -1679h-103z" />
<glyph unicode="0" horiz-adv-x="1139" d="M90 688q0 353 130.5 557.5t352.5 204.5q220 0 348 -189.5t128 -517.5q0 -352 -131.5 -556.5t-354.5 -204.5q-219 0 -346 188.5t-127 517.5zM268 662q0 -296 75.5 -456.5t213.5 -160.5q145 0 228 192t83 531q0 299 -74.5 460t-213.5 161q-143 0 -227.5 -196t-84.5 -531z " />
<glyph unicode="1" horiz-adv-x="1139" d="M244 0v61h57q135 0 167 25t32 139v1080q-68 -15 -132 -31.5t-124 -36.5v72q52 17 154 44q193 53 274 97v-1227q0 -113 30 -137.5t148 -24.5h27v-61q-137 6 -201 8t-103 2q-45 0 -116 -2t-213 -8z" />
<glyph unicode="2" horiz-adv-x="1139" d="M61 1063q0 171 120 279t315 108q203 0 331.5 -118.5t128.5 -303.5q0 -155 -91.5 -302t-280.5 -296q-35 -28 -106 -80q-189 -139 -257 -233q70 18 144 26.5t186 8.5q61 0 155 -6.5t128 -6.5q115 0 149 227l2 15h59q-7 -98 -21 -196t-34 -193q-23 -1 -45.5 -1.5t-48.5 -0.5 q-136 0 -318 5t-229 5h-55q-77 0 -123 -2.5t-88 -7.5l-10 14q35 84 102 164.5t191 183.5q262 220 338.5 357t76.5 311q0 162 -88 257t-237 95q-142 0 -233 -85.5t-91 -219.5v-20q70 -17 112 -55t42 -85q0 -30 -17 -45.5t-51 -15.5q-67 0 -111.5 60.5t-44.5 156.5z" />
<glyph unicode="3" horiz-adv-x="1139" d="M84 289q0 43 22 70.5t54 27.5q40 0 60 -32t20 -95q0 -18 -5.5 -44t-5.5 -32q0 -51 85.5 -94t203.5 -43q148 0 234 90t86 246q0 158 -88 233.5t-271 75.5q-25 0 -75 -3l-7 -1l1 74q183 3 282.5 91.5t99.5 248.5q0 131 -73.5 209t-198.5 78q-73 0 -134 -25t-101 -71 q4 -33 6 -49t2 -27q0 -63 -23.5 -99.5t-62.5 -36.5q-31 0 -46.5 21.5t-15.5 62.5q0 113 116.5 199t280.5 86q183 0 297.5 -99t114.5 -257q0 -143 -95 -232.5t-278 -118.5v-2q225 -12 337 -102t112 -258q0 -178 -137.5 -288.5t-364.5 -110.5q-182 0 -307 90.5t-125 216.5z " />
<glyph unicode="4" horiz-adv-x="1139" d="M70 432v66q0 12 10 33t31 51l563 821q43 8 87.5 19t86.5 23v-921h174v-92h-174v-252q0 -88 19.5 -105.5t105.5 -17.5l-1 -57q-78 3 -134.5 4.5t-89.5 1.5q-40 0 -103.5 -1.5t-152.5 -4.5v57q124 0 153 23t29 106v246h-604zM139 512h547v799z" />
<glyph unicode="5" horiz-adv-x="1139" d="M100 299q0 64 26.5 104.5t66.5 40.5q32 0 52.5 -25.5t20.5 -68.5q0 -35 -12.5 -70.5t-36.5 -68.5q29 -74 104 -116t177 -42q159 0 257.5 115.5t98.5 302.5q0 173 -91 273t-247 100q-89 0 -168.5 -36t-169.5 -118l-41 39q16 138 32.5 318t35.5 401q287 -29 407 -39 t170 -10q59 0 101.5 13.5t89.5 45.5l31 -31q-88 -102 -155 -138t-157 -36q-32 0 -181 16t-253 25q-18 -115 -30.5 -241.5t-20.5 -268.5q71 70 159 104t199 34q210 0 334.5 -121.5t124.5 -327.5q0 -224 -140 -357.5t-374 -133.5q-177 0 -293.5 92t-116.5 225z" />
<glyph unicode="6" horiz-adv-x="1139" d="M94 635q0 374 152.5 595.5t402.5 221.5q145 0 252 -86.5t107 -191.5q0 -43 -17 -67t-47 -24q-36 0 -56 30t-20 83q0 19 3.5 43t9.5 51q-32 46 -89.5 71t-129.5 25q-190 0 -284 -165.5t-102 -513.5q87 88 173 127.5t188 39.5q185 0 298.5 -117t113.5 -311 q0 -204 -131.5 -334t-335.5 -130q-232 0 -360 171t-128 482zM270 532q0 -244 79.5 -364.5t240.5 -120.5q142 0 221.5 102.5t79.5 286.5q0 177 -75.5 275t-211.5 98q-92 0 -175 -46.5t-156 -139.5q-2 -17 -2.5 -35.5t-0.5 -55.5z" />
<glyph unicode="7" horiz-adv-x="1139" d="M131 1441q94 -7 201 -10.5t254 -3.5h135q137 0 202.5 3.5t118.5 11.5l25 -33l-229 -444q-163 -312 -208.5 -455.5t-45.5 -278.5q0 -44 2 -94t2 -57q0 -49 -53 -90t-89 -41q-21 0 -28.5 23.5t-7.5 111.5q0 128 36.5 255.5t114.5 270.5l375 684q-120 -5 -184 -6.5 t-119 -1.5q-65 0 -155 2t-113 2q-106 0 -136 -36t-30 -148v-29l-62 1q-1 105 -2.5 196t-3.5 167z" />
<glyph unicode="8" horiz-adv-x="1139" d="M96 360q0 129 74.5 217t232.5 146q-130 51 -188.5 131t-58.5 207q0 174 113.5 281.5t299.5 107.5q175 0 287.5 -99.5t112.5 -252.5q0 -114 -64.5 -202.5t-191.5 -147.5q165 -50 245 -138t80 -219q0 -186 -131 -297.5t-350 -111.5q-207 0 -334 105t-127 273zM238 352 q0 -138 87.5 -223.5t229.5 -85.5q137 0 223 83.5t86 215.5q0 126 -76.5 198.5t-322.5 151.5q-110 -47 -168.5 -135t-58.5 -205zM307 1110q0 -118 75 -192.5t269 -143.5q92 47 138.5 126.5t46.5 189.5q0 134 -70.5 216.5t-183.5 82.5q-122 0 -198.5 -78t-76.5 -201z" />
<glyph unicode="9" horiz-adv-x="1139" d="M94 958q0 218 126.5 355t324.5 137q232 0 358.5 -188.5t126.5 -534.5q0 -344 -153.5 -545.5t-409.5 -201.5q-155 0 -261 89t-106 214q0 41 18 65.5t48 24.5q35 0 55.5 -30.5t20.5 -84.5q0 -18 -3 -41t-10 -51q30 -57 92 -89t144 -32q185 0 279 148t96 441 q-88 -68 -171.5 -100t-172.5 -32q-185 0 -293.5 123t-108.5 333zM258 985q0 -192 77 -298.5t214 -106.5q71 0 143.5 31t146.5 93q3 56 4 83t1 49q0 284 -70.5 416t-222.5 132q-139 0 -216 -104.5t-77 -294.5z" />
<glyph unicode=":" horiz-adv-x="627" d="M197 764q0 40 33 72t75 32q43 0 74 -31t31 -73q0 -47 -29.5 -77t-75.5 -30q-45 0 -76.5 31.5t-31.5 75.5zM207 98q0 41 32 73t74 32q43 0 75 -31.5t32 -73.5q0 -46 -30.5 -77t-76.5 -31q-44 0 -75 31.5t-31 76.5z" />
<glyph unicode=";" horiz-adv-x="627" d="M174 104q0 49 29.5 80t75.5 31q61 0 99 -50.5t38 -133.5q0 -93 -53 -187t-150 -174l-35 41q74 63 110 127t36 131q0 15 -0.5 22.5t-2.5 14.5q-12 -3 -24 -4.5t-23 -1.5q-45 0 -72.5 28.5t-27.5 75.5zM184 764q0 40 33 72t76 32q42 0 73 -31t31 -73q0 -47 -29.5 -77 t-74.5 -30t-77 31.5t-32 75.5z" />
<glyph unicode="&#x3c;" horiz-adv-x="1706" d="M264 559v103l1178 483v-127l-1000 -408l1000 -405v-129z" />
<glyph unicode="=" horiz-adv-x="1706" d="M254 360v117h1198v-117h-1198zM254 743v117h1198v-117h-1198z" />
<glyph unicode="&#x3e;" horiz-adv-x="1706" d="M264 76v129l1000 405l-1000 408v127l1178 -483v-103z" />
<glyph unicode="?" horiz-adv-x="1028" d="M178 1200q0 123 92 206t234 83q156 0 256 -100.5t100 -255.5q0 -99 -30.5 -174t-100.5 -146q-30 -31 -105.5 -90.5t-109.5 -99.5q-39 -47 -56.5 -105t-17.5 -153v-25h-59q-1 12 -1.5 27.5t-0.5 44.5q0 112 28.5 184t98.5 139q7 7 21 20q171 167 171 361q0 154 -63.5 236 t-181.5 82q-69 0 -123.5 -41.5t-65.5 -102.5q28 -24 40.5 -55.5t12.5 -73.5q0 -32 -16.5 -51.5t-42.5 -19.5q-32 0 -56 32t-24 78zM305 98q0 41 32.5 73t74.5 32t73 -31.5t31 -73.5q0 -47 -29.5 -77.5t-74.5 -30.5t-76 31.5t-31 76.5z" />
<glyph unicode="@" horiz-adv-x="2019" d="M145 537q0 204 86 381t250 313q131 110 291 165.5t344 55.5q347 0 553.5 -187t206.5 -499q0 -157 -58 -297t-163 -236q-57 -52 -123.5 -80t-134.5 -28q-97 0 -149 52.5t-58 158.5q-62 -106 -139 -158.5t-170 -52.5q-125 0 -201 92t-76 244q0 108 49 216t138 193 q65 64 144 100t155 36q87 0 143 -49.5t78 -145.5l53 180h143l-170 -610q0 -2 -1 -5q-17 -59 -17 -104q0 -47 25.5 -74.5t68.5 -27.5q34 0 79 17.5t85 48.5q122 90 187 231t65 315q0 140 -50 252t-153 203q-90 79 -216 122.5t-267 43.5q-187 0 -341.5 -58.5t-275.5 -175.5 q-130 -126 -197 -293.5t-67 -369.5q0 -175 57 -304.5t181 -234.5q114 -97 261 -146.5t320 -49.5q163 0 317.5 52t295.5 154l30 -36q-148 -110 -313 -166t-342 -56q-187 0 -342 46.5t-274 138.5q-151 113 -229.5 274.5t-78.5 358.5zM750 375q0 -93 40.5 -147t108.5 -54 q66 0 126 44.5t116 133.5q57 94 91 202.5t34 197.5q0 93 -47.5 153t-120.5 60q-54 0 -99 -31t-92 -100q-72 -108 -114.5 -234t-42.5 -225z" />
<glyph unicode="A" horiz-adv-x="1280" d="M-27 0v66h11q60 0 88.5 21t54.5 91l483 1311h43l473 -1311q26 -68 55.5 -90t90.5 -22h8v-66q-75 4 -136 6t-102 2q-60 0 -128.5 -2t-141.5 -6v66h10q67 0 98 20.5t31 65.5q0 16 -1.5 29.5t-4.5 23.5l-114 340h-447l-80 -223q-26 -73 -34.5 -107t-8.5 -59q0 -49 24.5 -68 t90.5 -23v-65q-51 4 -99 6t-90 2q-33 0 -78 -2t-96 -6zM362 612h404l-195 578z" />
<glyph unicode="B" horiz-adv-x="1360" d="M119 0v66q108 0 137 27.5t29 139.5v1004q0 113 -28 138.5t-138 27.5v67q5 0 14 -1t14 -1h18q87 -4 173 -4q81 0 189 3t135 3q257 0 380 -89.5t123 -276.5q0 -143 -83.5 -231.5t-247.5 -120.5q201 -41 296 -129t95 -234q0 -106 -40 -185.5t-118 -129.5q-62 -40 -153.5 -57 t-286.5 -17q-44 0 -134 2t-137 2q-88 0 -138.5 -1t-98.5 -3zM473 66h148q226 0 313.5 74t87.5 253q0 176 -95.5 251t-320.5 75h-133v-653zM473 784h182q171 0 249.5 74t78.5 234q0 170 -74.5 240.5t-279.5 70.5h-156v-619z" />
<glyph unicode="C" horiz-adv-x="1450" d="M94 727q0 338 192 550t498 212q141 0 259 -51t206 -150l23 103h49v-7q-8 -174 -8 -256q0 -23 2 -107q1 -54 2 -87h-51q-20 229 -147 359t-328 130q-231 0 -354.5 -173t-123.5 -496q0 -328 137.5 -509.5t383.5 -181.5q166 0 281.5 86.5t164.5 247.5h57 q-47 -201 -189.5 -308t-363.5 -107q-310 0 -500 205t-190 540z" />
<glyph unicode="D" horiz-adv-x="1569" d="M119 0v66q108 0 137 27.5t29 139.5v1004q0 113 -28 138.5t-138 27.5v67q6 0 17 -1t16 -1h24q83 -4 156 -4q65 0 171.5 3t147.5 3q395 0 609.5 -192.5t214.5 -546.5q0 -356 -202.5 -543.5t-586.5 -187.5q-54 0 -176.5 2t-192.5 2q-89 0 -128.5 -1t-69.5 -3zM473 66h164 q142 0 220 15t140 50q129 71 194.5 224.5t65.5 381.5q0 202 -52 343t-156 220q-72 56 -168 79.5t-273 23.5h-135v-1337z" />
<glyph unicode="E" horiz-adv-x="1407" d="M119 0v66q108 0 137 27.5t29 139.5v1004q0 113 -28 138.5t-138 27.5v67q334 0 605 2t476 4q4 -96 9 -191t12 -193h-52q-20 186 -92 248.5t-286 62.5h-318v-594h160q145 0 182.5 43t44.5 188h49q-3 -101 -4.5 -171.5t-1.5 -108.5q0 -51 1.5 -123.5t4.5 -169.5h-48 q-8 177 -46 226.5t-182 49.5h-160v-677h406q213 0 289 72t94 280h51q-14 -131 -21.5 -231t-11.5 -187h-1161z" />
<glyph unicode="F" horiz-adv-x="1264" d="M119 0v66q108 0 137 27.5t29 139.5v1004q0 113 -28 138.5t-138 27.5v67h1089q1 -55 5.5 -134t15.5 -244h-51q-27 187 -101 249t-286 62h-318v-612h160q145 0 182.5 43t45.5 188h48q-3 -101 -4.5 -171.5t-1.5 -109.5q0 -51 1.5 -125t4.5 -169h-49q-7 176 -45 226t-182 50 h-160v-490q0 -114 29.5 -140.5t140.5 -26.5h25v-66h-549z" />
<glyph unicode="G" horiz-adv-x="1485" d="M94 711q0 351 190 564.5t500 213.5q115 0 221 -32.5t207 -98.5l23 102h51l-3 -72q-7 -127 -7 -188q0 -24 2 -110q1 -54 2 -86h-51q-17 199 -127 309t-293 110q-245 0 -370.5 -173.5t-125.5 -514.5q0 -334 129 -509t375 -175q106 0 187.5 33t107.5 84q5 9 6.5 21.5 t1.5 46.5v157q0 105 -202 112q-51 2 -80 3v65q80 -4 154 -6t141 -2q64 0 137 2t153 6v-65q-68 -6 -92 -26t-24 -70v-328h-13l-67 47q-89 -74 -201.5 -111.5t-241.5 -37.5q-326 0 -508 192.5t-182 536.5z" />
<glyph unicode="H" horiz-adv-x="1673" d="M119 0v66q108 0 137 27.5t29 139.5v1004q0 113 -28 138.5t-138 27.5v67q106 -5 160 -7.5t90 -2.5q44 0 107.5 2.5t162.5 7.5v-67q-109 0 -137.5 -28t-28.5 -138v-422h727v422q0 110 -27.5 137t-137.5 29l-1 67q106 -5 160 -7.5t88 -2.5q47 0 111 2.5t161 7.5v-67 q-111 -2 -138 -28t-27 -138v-1004q0 -115 28.5 -140.5t136.5 -27.5v-65q-109 6 -163.5 8t-85.5 2q-37 0 -96.5 -2t-174.5 -8v66q108 0 137 28.5t29 138.5v515h-727v-515q0 -109 26 -137t140 -31v-65q-123 6 -172 8t-76 2q-38 0 -99 -2t-173 -8z" />
<glyph unicode="I" horiz-adv-x="758" d="M109 0v66q116 0 146 27t30 140v1004q0 115 -29 140.5t-147 25.5v67q108 -5 165.5 -7.5t94.5 -2.5q46 0 112 2.5t168 7.5v-67q-118 0 -147 -27t-29 -139v-1004q0 -116 29.5 -141.5t146.5 -25.5v-66q-135 7 -182.5 8.5t-75.5 1.5q-40 0 -104 -2t-178 -8z" />
<glyph unicode="J" horiz-adv-x="840" d="M-72 -20q0 51 25.5 82.5t66.5 31.5q43 0 73 -34.5t30 -84.5q0 -34 -14 -60.5t-46 -49.5q20 -29 51 -42t79 -13q102 0 149 68.5t47 219.5q0 37 -2 111t-2 113v915q0 115 -29 139t-184 27v67q97 -5 168 -7.5t129 -2.5q36 0 92.5 2.5l169.5 7.5v-67q-102 -2 -129 -29 t-27 -137v-995q0 -144 -14.5 -211.5t-48.5 -120.5q-49 -78 -130 -122t-175 -44q-119 0 -199 67.5t-80 168.5z" />
<glyph unicode="K" horiz-adv-x="1360" d="M119 0v66q108 0 137 27.5t29 139.5v1004q0 113 -28 138.5t-138 27.5v67q106 -5 160 -7.5t90 -2.5q44 0 107.5 2.5t162.5 7.5v-67q-109 0 -137.5 -28t-28.5 -138v-528l492 555l2 2q57 64 57 94q0 29 -28.5 41t-104.5 12v57q86 -5 133 -7.5t76 -2.5q37 0 90.5 2.5 t132.5 7.5v-56q-128 -5 -215 -103q-11 -13 -16 -18l-406 -453l481 -650q48 -65 99 -94.5t114 -29.5h6v-66q-109 6 -163.5 8t-85.5 2q-32 0 -84.5 -2t-161.5 -8v66q45 0 65.5 11t20.5 36q0 21 -25 56q-5 7 -8 11l-377 529l-94 -99v-377q0 -109 26 -137t140 -31v-65 q-123 6 -172 8t-76 2q-38 0 -99 -2t-173 -8z" />
<glyph unicode="L" horiz-adv-x="1270" d="M119 0v66q108 0 137 27.5t29 139.5v1004q0 113 -28 138.5t-138 27.5v67q104 -5 162 -7.5t94 -2.5q58 0 130.5 3t168.5 7v-67h-29q-114 0 -143 -25.5t-29 -140.5v-1171h346q210 0 285.5 76.5t95.5 318.5h64q0 -71 -29 -340q-8 -78 -12 -121q-134 1 -327 2.5t-237 1.5 q-164 0 -516 -4h-24z" />
<glyph unicode="M" horiz-adv-x="1858" d="M78 0v66q184 2 186 217v8l10 991v12q0 66 -28.5 86t-136.5 23v67q77 -5 119.5 -7.5t66.5 -2.5q39 0 91 2t126 8l414 -1163l415 1163q73 -5 115 -7.5t68 -2.5q41 0 93 2t122 8l-1 -67q-105 -2 -135 -25.5t-30 -130.5v-1014q0 -115 28.5 -140.5t137.5 -27.5v-65 q-110 6 -164.5 8t-85.5 2q-38 0 -99 -2t-173 -8v66q107 0 136 28.5t29 138.5v1145h-8l-485 -1360l-45 11l-479 1349h-17l-8 -1085v-29q0 -128 31.5 -163t134.5 -35v-66q-88 6 -135.5 8t-77.5 2q-29 0 -76.5 -2t-138.5 -8z" />
<glyph unicode="N" horiz-adv-x="1612" d="M68 1403v67q70 -5 123 -7.5t94 -2.5q23 0 60 2t122 8l829 -1114v820q0 156 -35.5 191.5t-154.5 35.5h-12v67q80 -5 140.5 -7.5t108.5 -2.5q31 0 75.5 3t125.5 7v-67q-107 -3 -139.5 -33.5t-32.5 -179.5v-12v-1188l-49 10l-983 1323v-1030q0 -166 35 -196.5t166 -30.5 l-1 -66q-93 6 -149.5 8t-97.5 2q-28 0 -74 -2t-141 -8v65q119 2 152.5 34t33.5 192v946q0 113 -30 139.5t-144 26.5h-22z" />
<glyph unicode="O" horiz-adv-x="1579" d="M94 717q0 342 197 557t506 215q314 0 501 -204.5t187 -549.5q0 -330 -200.5 -541.5t-510.5 -211.5q-304 0 -492 202.5t-188 532.5zM307 735q0 -320 129.5 -504t351.5 -184q223 0 353.5 185t130.5 503q0 322 -131 504t-361 182q-214 0 -343.5 -186t-129.5 -500z" />
<glyph unicode="P" horiz-adv-x="1247" d="M119 0v66q108 0 137 27.5t29 139.5v1004q0 112 -28.5 139t-137.5 31v63q53 -3 98.5 -4.5t79.5 -1.5q80 0 179.5 3t119.5 3q311 0 448.5 -94t137.5 -303q0 -215 -130 -318.5t-401 -103.5q-36 0 -81.5 2t-96.5 6v-426q0 -113 30 -140t146 -27h27v-66q-122 6 -184 8t-101 2 q-38 0 -97.5 -2t-174.5 -8zM473 1403l1 -676q38 -1 78 -3.5t42 -2.5q209 0 300 82t91 266q0 180 -90 259t-299 79q-28 0 -59 -1t-64 -3z" />
<glyph unicode="Q" horiz-adv-x="1579" d="M94 719q0 342 197 556t506 214q312 0 500 -205t188 -549q0 -235 -103 -411t-297 -275q11 -118 54 -174.5t121 -56.5q66 0 109.5 41t68.5 127l45 -17q-25 -127 -97 -189.5t-194 -62.5q-128 0 -195.5 70t-77.5 211q-38 -9 -73.5 -13.5t-69.5 -4.5q-302 0 -492 204.5 t-190 534.5zM307 735q0 -181 37.5 -310t116.5 -222q60 83 136.5 123.5t174.5 40.5q108 0 178.5 -52t116.5 -165q97 86 151 239.5t54 345.5q0 316 -130 502t-347 186q-223 0 -355.5 -186t-132.5 -502zM494 162q63 -60 132.5 -88.5t153.5 -28.5q33 0 64.5 6t66.5 19 q-17 114 -65 167.5t-133 53.5q-68 0 -124 -33t-95 -96z" />
<glyph unicode="R" horiz-adv-x="1407" d="M119 0v66q108 0 137 27.5t29 139.5v1004q0 113 -28 138.5t-138 27.5v67q45 -3 91 -4.5t93 -1.5h66q18 0 97.5 3t139.5 3q303 0 439.5 -87.5t136.5 -280.5q0 -169 -112 -259.5t-335 -103.5q200 -22 291 -98.5t113 -241.5q5 -43 9 -124q10 -193 99 -193q43 0 69.5 28 t41.5 89l43 -11q-17 -103 -73 -154.5t-150 -51.5q-113 0 -166.5 60t-53.5 187q0 34 1.5 82t1.5 64q0 193 -77.5 259t-285.5 66h-125v-467q0 -109 26 -137t140 -31v-65q-123 6 -172 8t-76 2q-38 0 -99 -2t-173 -8zM473 774q13 0 38 -1q81 -3 107 -3q191 0 279 78.5t88 247.5 q0 162 -87.5 237.5t-274.5 75.5q-21 0 -71 -2.5t-79 -3.5v-629z" />
<glyph unicode="S" horiz-adv-x="1251" d="M166 39q0 72 2 151t2 86q0 8 -2 83.5t-2 144.5h57q10 -217 115.5 -337t286.5 -120q138 0 221.5 79t83.5 210q0 99 -63 164t-231 129q-18 7 -55 20q-192 70 -268 125q-77 57 -112 127t-35 170q0 189 121.5 303.5t322.5 114.5q112 0 205 -30t178 -93l17 76h44 q-2 -62 -3.5 -109.5t-1.5 -79.5q0 -47 1.5 -101t3.5 -116h-48q-17 188 -113 286.5t-262 98.5q-130 0 -212.5 -78t-82.5 -200q0 -106 62 -171.5t241 -131.5q300 -113 386.5 -205.5t86.5 -239.5q0 -181 -136.5 -297t-352.5 -116q-109 0 -205.5 37t-184.5 112l-22 -92h-45z" />
<glyph unicode="T" horiz-adv-x="1366" d="M31 1096l43 374h1218l43 -374h-51q-24 176 -94.5 241.5t-237.5 65.5h-174v-1170q0 -114 29.5 -140.5t140.5 -26.5h25v-66q-121 6 -182 8t-97 2q-42 0 -110.5 -2t-189.5 -8l-1 66h25q111 0 140.5 27.5t29.5 139.5v1170h-174q-168 0 -238.5 -66t-93.5 -241h-51z" />
<glyph unicode="U" horiz-adv-x="1630" d="M106 1470q104 -5 160 -7.5t92 -2.5q45 0 108.5 2.5t162.5 7.5v-67q-110 0 -138 -28t-28 -138v-662q0 -291 92 -395t322 -104q228 0 318.5 111.5t90.5 414.5v569q0 163 -31 197.5t-135 34.5v67q78 -5 129.5 -7.5t87.5 -2.5q27 0 68.5 2t128.5 8v-67q-104 0 -135 -34.5 t-31 -197.5v-505q0 -197 -9 -276.5t-30 -135.5q-51 -139 -175 -205.5t-333 -66.5q-173 0 -293 43.5t-180 128.5q-41 59 -58.5 135t-17.5 233v45v670q0 113 -27.5 138.5t-137.5 27.5z" />
<glyph unicode="V" horiz-adv-x="1294" d="M0 1403v67q100 -5 151.5 -7.5t84.5 -2.5q52 0 117 2.5t153 7.5l-1 -67q-77 -2 -107.5 -16t-30.5 -46q0 -18 6.5 -46t19.5 -66l330 -940l311 940q8 24 12.5 50t4.5 46q0 41 -30 59.5t-97 18.5h-13v67q69 -5 115 -7.5t78 -2.5q31 0 74.5 2.5t111.5 7.5v-67 q-74 -8 -100 -25.5t-41 -58.5l-344 -981q-34 -96 -77 -215.5t-50 -140.5l-35 8l-475 1276q-2 5 -5 13q-44 124 -163 124z" />
<glyph unicode="W" horiz-adv-x="2028" d="M12 1403v67q100 -5 151.5 -7.5t84.5 -2.5q52 0 115.5 2.5t152.5 7.5v-67q-77 -2 -107 -16t-30 -46q0 -26 21 -93q3 -12 6 -20l286 -929l293 872l-33 95q-30 91 -63 114t-105 23v67q100 -5 151.5 -7.5t84.5 -2.5q52 0 115.5 2.5t152.5 7.5v-67q-77 -2 -107 -16t-30 -46 q0 -26 21 -93q4 -13 6 -20l288 -929l310 930q7 25 11.5 50t4.5 46q0 41 -29.5 59.5t-97.5 18.5h-12v67q69 -5 114 -7.5t76 -2.5t74.5 2.5t111.5 7.5l1 -67q-75 -8 -101 -25.5t-41 -58.5l-334 -954q-8 -27 -94 -262l-45 -121l-29 8l-362 1067l-246 -703q-24 -70 -55 -154.5 t-80 -217.5l-31 8l-432 1276q-30 91 -63 114t-105 23z" />
<glyph unicode="X" horiz-adv-x="1309" d="M-6 0v68h8q79 0 129 30t100 109l334 524l-332 510q-4 7 -13 20q-93 142 -173 142h-8v67q46 -1 127.5 -5.5t116.5 -4.5q39 0 125.5 4.5t132.5 5.5l-1 -67q-67 -2 -94.5 -18t-27.5 -52q0 -15 6 -31.5t25 -48.5l247 -389l254 418q15 25 21 40t6 30q0 24 -27.5 37.5 t-79.5 13.5h-20v67q73 -5 127 -7.5t96 -2.5q25 0 65.5 2t127.5 8v-67h-9q-77 0 -127 -30.5t-102 -110.5l-289 -453l381 -580q8 -11 22 -32q84 -131 163 -131h8l-1 -66q-75 1 -155.5 4.5t-87.5 3.5q-25 0 -117.5 -3.5t-160.5 -4.5v66q82 0 113.5 15.5t31.5 53.5q0 15 -6 31.5 t-27 50.5l-297 461l-297 -490l-1 -1q-25 -44 -25 -68t28.5 -37.5t79.5 -13.5h19v-68q-62 4 -119 6t-105 2q-30 0 -80 -2t-112 -6z" />
<glyph unicode="Y" horiz-adv-x="1210" d="M-16 1403v67q99 -5 150.5 -7.5t84.5 -2.5q52 0 115.5 2.5t152.5 7.5v-67q-68 0 -95 -14t-27 -48q0 -10 2 -18t6 -15l305 -542l252 469q18 32 26.5 56.5t8.5 43.5q0 38 -27.5 53t-103.5 15v67q69 -5 114 -7.5t76 -2.5t74.5 2.5t111.5 7.5v-67q-65 -6 -92.5 -21t-52.5 -61 l-352 -631v-457q0 -114 29 -140.5t141 -26.5h24v-66q-123 6 -182 8t-94 2q-43 0 -111 -2t-190 -8v66h24q112 0 141 27.5t29 139.5v437l-352 600q-76 133 -182 133h-6z" />
<glyph unicode="Z" horiz-adv-x="1327" d="M80 0v4l866 1399h-442q-223 0 -284 -62t-75 -254h-55l21 388q55 -1 134 -3t95 -2h879v-6l-865 -1398h494q217 0 279.5 69.5t76.5 298.5h56l-19 -434h-1161z" />
<glyph unicode="[" horiz-adv-x="635" d="M224 -364q4 117 6.5 236t2.5 241v917q0 122 -2.5 240.5t-6.5 236.5q31 -14 67 -21t82 -7q50 0 86 6.5t67 21.5l19 -57q-40 -13 -84 -20t-92 -7h-21v-1704h25q47 0 84 -5.5t69 -16.5l19 -62q-39 15 -82 22t-92 7q-45 0 -80 -7t-67 -21z" />
<glyph unicode="\" horiz-adv-x="606" d="M-80 1489h103l610 -1679h-103z" />
<glyph unicode="]" horiz-adv-x="635" d="M92 -365l17 62q30 11 69 16.5t86 5.5h25v1704h-21q-45 0 -89.5 7t-86.5 20l17 57q31 -15 67 -21.5t86 -6.5q46 0 81.5 7t67.5 21q-5 -96 -7.5 -208.5t-2.5 -268.5v-917q0 -156 2.5 -269.5t7.5 -207.5q-32 14 -67 21t-80 7q-48 0 -90 -7t-82 -22z" />
<glyph unicode="^" horiz-adv-x="2048" d="M412 897l522 565h178l520 -565h-92l-518 436l-520 -436h-90z" />
<glyph unicode="_" d="M0 -365h1024v-118h-1024v118z" />
<glyph unicode="`" d="M229 1389q0 32 22.5 55.5t53.5 23.5q25 0 52.5 -15.5t54.5 -45.5l276 -301h-74l-301 184q-50 31 -67 51.5t-17 47.5z" />
<glyph unicode="a" d="M68 203q0 118 79.5 182.5t352.5 124.5q34 8 77 15q52 10 52 22l2 94v35q0 146 -39.5 203t-132.5 57q-59 0 -107 -16.5t-90 -51.5l3 -21q5 -50 5 -67q0 -55 -25.5 -89t-66.5 -34q-27 0 -43 20.5t-16 55.5q0 98 107.5 180t248.5 82q166 0 242 -78t76 -255v-25l-9 -326 q0 -18 -1 -56.5t-1 -57.5q0 -56 21 -82.5t65 -26.5q32 0 55 14.5t40 44.5l34 -20q-35 -73 -87.5 -109t-125.5 -36q-74 0 -116.5 40.5t-47.5 114.5q-66 -80 -144 -117.5t-179 -37.5q-104 0 -166.5 60t-62.5 161zM223 240q0 -76 43.5 -123t112.5 -47t128.5 38.5t113.5 118.5 l6 256q-256 -51 -330 -100.5t-74 -142.5z" />
<glyph unicode="b" horiz-adv-x="1067" d="M-18 1450v57q75 4 182.5 9t124.5 5v-700q58 87 136 130.5t175 43.5q172 0 278.5 -133t106.5 -350q0 -245 -120.5 -387.5t-325.5 -142.5q-123 0 -236 73q-31 21 -41 21q-20 0 -43 -23.5t-51 -70.5h-41v1376q-1 90 -129 92h-16zM289 223q0 -65 74 -120.5t167 -55.5 q139 0 208 107t69 323q0 215 -64.5 331t-183.5 116q-42 0 -85.5 -18.5t-82.5 -53.5q-39 -34 -70.5 -79.5t-31.5 -55.5v-494z" />
<glyph unicode="c" horiz-adv-x="1010" d="M80 459q0 238 136.5 387t352.5 149q143 0 241.5 -79.5t98.5 -188.5q0 -40 -20 -64t-53 -24q-35 0 -59.5 28t-24.5 70q0 26 11 58t11 36q0 42 -58 73.5t-143 31.5q-142 0 -227.5 -124.5t-85.5 -336.5q0 -190 83 -290.5t241 -100.5q111 0 191 54t118 155l43 -17 q-45 -144 -148.5 -219t-257.5 -75q-207 0 -328.5 128.5t-121.5 348.5z" />
<glyph unicode="d" horiz-adv-x="1133" d="M80 463q0 249 117 390.5t323 141.5q74 0 137 -26.5t121 -81.5v440q0 82 -25.5 101.5t-143.5 21.5l-1 57h43q63 0 131.5 3.5t155.5 10.5v-1341q0 -79 22 -98t107 -23v-55q-60 -6 -195 -16q-58 -4 -90 -6v131q-59 -67 -131 -99t-164 -32q-185 0 -296 130.5t-111 350.5z M260 487q0 -209 70 -320.5t200 -111.5q79 0 139.5 32t108.5 99v619q-47 64 -104.5 95.5t-126.5 31.5q-135 0 -211 -117t-76 -328z" />
<glyph unicode="e" horiz-adv-x="1034" d="M80 481q0 228 130 371t335 143q184 0 290.5 -108t106.5 -297q0 -9 -1 -24.5t-1 -22.5l-678 -17v-14q0 -211 82.5 -319.5t243.5 -108.5q111 0 191 54t118 155l45 -17q-43 -140 -150.5 -217t-261.5 -77q-212 0 -331 131.5t-119 367.5zM264 588l522 14v27q0 149 -61 230 t-174 81q-122 0 -198.5 -93.5t-88.5 -258.5z" />
<glyph unicode="f" horiz-adv-x="653" d="M18 0v57q141 8 166 27.5t25 110.5v688h-191v55h37h66q55 0 69 10t19 58q1 21 2 62q6 211 61 302q45 74 118 113t167 39q108 0 177 -55.5t69 -137.5q0 -46 -22 -71t-62 -25q-37 0 -59.5 23t-22.5 61q0 30 17.5 56.5t17.5 33.5q0 21 -32 40t-75 19q-104 0 -149 -74 t-45 -249v-205h284v-55h-284v-688q0 -133 220 -138h1l-1 -57q-116 6 -188 8t-124 2q-27 0 -79 -2t-182 -8z" />
<glyph unicode="g" horiz-adv-x="977" d="M59 -211q0 71 40 123t120 86q-49 23 -74.5 61.5t-25.5 90.5q0 70 41.5 123.5t122.5 86.5q-94 33 -145.5 108.5t-51.5 180.5q0 152 100 248t256 96q91 0 160.5 -24.5t114.5 -71.5q47 62 92.5 89.5t99.5 27.5q19 0 36.5 -4.5t34.5 -13.5q8 -13 10.5 -21.5t2.5 -20.5 q0 -29 -18.5 -45t-52.5 -16q-24 0 -57.5 16.5t-43.5 16.5q-14 0 -32.5 -16t-40.5 -48q29 -34 44 -84.5t15 -115.5q0 -153 -82.5 -239.5t-238.5 -98.5q-25 -2 -73 -4q-184 -6 -184 -99q0 -97 321 -107q33 -1 50 -1q212 -7 293.5 -61t81.5 -177q0 -145 -146.5 -238.5 t-379.5 -93.5q-179 0 -284.5 67.5t-105.5 178.5zM152 -199q0 -96 84 -149t235 -53q167 0 272 62t105 155q0 117 -290 132q-172 10 -279 23q-61 -22 -94 -67t-33 -103zM240 659q0 -138 52 -208t157 -70q102 0 155 71t53 207q0 137 -53.5 208t-154.5 71q-104 0 -156.5 -70.5 t-52.5 -208.5z" />
<glyph unicode="h" horiz-adv-x="1223" d="M31 0v57q121 11 142.5 30t21.5 108v1132q0 80 -21.5 99.5t-125.5 23.5l-1 57q82 2 158.5 5.5t150.5 8.5v-753q66 112 158.5 169.5t206.5 57.5q165 0 236 -82t71 -284v-434q0 -93 20.5 -111t102.5 -27v-57q-109 7 -149 8.5t-64 1.5q-33 0 -86 -2t-150 -8l1 57 q123 12 144 31t21 107v458q0 147 -42.5 208t-141.5 61q-126 0 -227 -105t-101 -229v-404q0 -83 20.5 -100.5t100.5 -26.5v-57q-109 7 -149 8.5t-64 1.5q-32 0 -83 -2t-150 -8z" />
<glyph unicode="i" horiz-adv-x="555" d="M4 0v57h2q193 11 193 138v585q0 85 -27.5 105t-167.5 20v57q91 4 180.5 12t175.5 21v-800q0 -98 27.5 -116.5t142.5 -21.5v-57q-106 6 -165 8t-97 2q-37 0 -95.5 -2t-168.5 -8zM168 1255q0 39 37 75t78 36q43 0 66.5 -22.5t23.5 -63.5q0 -40 -38 -76.5t-83 -36.5 q-39 0 -61.5 23.5t-22.5 64.5z" />
<glyph unicode="j" horiz-adv-x="516" d="M-195 -264q0 47 23 75.5t59 28.5q34 0 55 -25t21 -65q0 -30 -17.5 -61t-17.5 -35q0 -25 31.5 -41t81.5 -16q82 0 118 59t36 201v923q0 85 -29 105t-176 20v57q99 4 190 12t176 21v-1030q0 -220 -75.5 -320t-239.5 -100q-103 0 -169.5 54.5t-66.5 136.5zM117 1298 q0 40 29.5 70.5t68.5 30.5q42 0 71 -29.5t29 -71.5q0 -39 -30 -68.5t-70 -29.5q-38 0 -68 30t-30 68z" />
<glyph unicode="k" horiz-adv-x="1053" d="M31 0v57q121 11 142.5 30t21.5 108v1112q0 79 -25.5 101t-122.5 24l1 57q86 7 161.5 15t146.5 18v-1057l330 330q19 18 32 42t13 37q0 21 -19 33.5t-50 12.5h-13v57q74 -6 110.5 -8t59.5 -2q31 0 73.5 2t110.5 8l1 -57h-21q-44 0 -77 -13t-64 -43l-307 -297l350 -389 q62 -69 105.5 -95t92.5 -26h7l-1 -57q-83 6 -129.5 8t-76.5 2t-77 -2t-138 -8v57q36 2 50.5 10.5t14.5 26.5q0 9 -4.5 18.5t-14.5 21.5l-286 329l-72 -70v-209q0 -83 20.5 -100.5t100.5 -26.5v-57q-109 7 -149 8.5t-64 1.5q-32 0 -83 -2t-150 -8z" />
<glyph unicode="l" horiz-adv-x="551" d="M18 1432l1 57q89 5 173 13t164 20v-1327q0 -97 26 -115t138 -23v-57q-108 6 -164.5 8t-91.5 2q-25 0 -68 -1.5t-165 -8.5v57q121 11 142.5 30t21.5 108v1112q0 81 -28.5 103t-148.5 22z" />
<glyph unicode="m" horiz-adv-x="1806" d="M29 905v57q83 5 165 13.5t162 19.5v-233q65 118 149 175.5t193 57.5q124 0 197.5 -60.5t85.5 -172.5q64 117 149.5 175t194.5 58q154 0 220.5 -82.5t66.5 -283.5v-445q0 -84 21.5 -102t101.5 -25v-57q-103 6 -145 8t-64 2q-41 0 -97 -2.5t-140 -7.5l-1 57q115 9 138.5 28 t23.5 110v458q0 143 -39 207t-125 64q-103 0 -189.5 -88.5t-111.5 -223.5v-417q0 -94 22 -112.5t103 -25.5v-57q-103 6 -144.5 8t-64.5 2q-41 0 -98.5 -2.5t-140.5 -7.5v57q117 10 140 29t23 109v458q0 142 -39.5 206.5t-126.5 64.5q-103 0 -188.5 -88t-110.5 -224v-417 q0 -93 20.5 -111t102.5 -27v-57q-103 6 -147 8t-68 2q-32 0 -83 -2t-150 -8v57q121 11 142.5 30t21.5 108v585q0 84 -26.5 103.5t-143.5 21.5z" />
<glyph unicode="n" horiz-adv-x="1229" d="M31 0v57q125 12 146.5 30.5t21.5 107.5v585q0 84 -26 103.5t-142 21.5v57q104 7 179.5 15t145.5 18v-233q71 120 162.5 176.5t212.5 56.5q161 0 232 -84.5t71 -281.5v-445q0 -83 20.5 -100.5t100.5 -26.5v-57q-109 7 -149 8.5t-64 1.5q-32 0 -83 -2t-150 -8v57 q121 11 142 30t21 108v458q0 143 -44 207t-142 64q-122 0 -224 -107t-102 -229v-393q0 -93 20.5 -111t102.5 -27v-57q-103 6 -147 8t-68 2q-30 0 -80 -2t-157 -8z" />
<glyph unicode="o" horiz-adv-x="1042" d="M80 471q0 238 126 381t333 143q192 0 308 -133t116 -358q0 -238 -126.5 -380t-334.5 -142q-193 0 -307.5 132t-114.5 357zM260 487q0 -211 69 -330.5t189 -119.5q123 0 193.5 120t70.5 330q0 214 -67.5 333.5t-188.5 119.5q-122 0 -194 -121t-72 -332z" />
<glyph unicode="p" horiz-adv-x="1130" d="M29 -379q112 7 139 27.5t27 109.5v1022q0 79 -27 102t-139 23v57q85 6 164.5 14t154.5 19v-180q62 91 140.5 135.5t177.5 44.5q172 0 278.5 -133t106.5 -350q0 -224 -107.5 -360t-284.5 -136q-94 0 -169.5 38t-133.5 114v-418q0 -89 24 -106t150 -23v-57q-88 5 -152 7.5 t-116 2.5q-33 0 -85 -2t-148 -8v57zM356 276q44 -89 112 -138.5t148 -49.5q124 0 189 109t65 315q0 199 -64.5 305.5t-184.5 106.5q-77 0 -143 -53t-122 -158v-437z" />
<glyph unicode="q" horiz-adv-x="1110" d="M82 485q0 229 122.5 369.5t319.5 140.5q85 0 155.5 -29.5t143.5 -97.5l78 127h37v-1302q0 -37 14 -50t74 -22v-57q-63 5 -110.5 7.5t-84.5 2.5q-28 0 -78.5 -2t-152.5 -8v57q130 6 153 24.5t23 112.5v373q-66 -55 -138 -81.5t-157 -26.5q-181 0 -290 125.5t-109 336.5z M258 502q0 -195 72.5 -297.5t210.5 -102.5q72 0 129 28.5t106 88.5v594q-39 58 -96 88.5t-127 30.5q-139 0 -217 -113t-78 -317z" />
<glyph unicode="r" horiz-adv-x="819" d="M31 0v57q126 12 148 31t22 107v585q0 84 -26.5 103.5t-143.5 21.5v57q82 5 163 13.5t162 19.5v-272q55 136 124 204t151 68q64 0 104.5 -42.5t40.5 -108.5q0 -49 -22.5 -76t-63.5 -27t-63.5 25.5t-22.5 73.5q0 22 6 45.5t19 48.5h-13q-98 0 -177 -143t-79 -336v-260 q0 -86 33 -110t199 -28l-1 -57q-104 5 -181 7.5t-140 2.5q-16 0 -134 -5q-65 -3 -105 -5z" />
<glyph unicode="s" horiz-adv-x="854" d="M80 705q0 129 89.5 209.5t236.5 80.5q77 0 140 -21t116 -65l16 58h45q-2 -33 -3 -66t-1 -82q0 -40 3 -125q1 -8 1 -12h-49q-14 125 -83 190.5t-188 65.5q-84 0 -136 -48t-52 -124q0 -67 44.5 -105.5t217.5 -89.5q166 -48 234.5 -115t68.5 -175q0 -138 -96 -218.5 t-262 -80.5q-77 0 -143 20.5t-127 63.5l-13 -66h-48q2 61 3.5 124.5t1.5 131.5q0 37 -1.5 55.5t-3.5 34.5h56q8 -154 79 -230.5t206 -76.5q99 0 154 48t55 134q0 72 -44.5 113.5t-170.5 79.5q-346 104 -346 291z" />
<glyph unicode="t" horiz-adv-x="684" d="M70 883v43q94 44 148.5 122.5t68.5 188.5h61l-8 -299h248v-55h-248l-14 -543v-49q0 -118 29 -160.5t100 -42.5q50 0 85 25.5t58 79.5l41 -17q-26 -91 -95.5 -142.5t-166.5 -51.5q-114 0 -164.5 61t-50.5 201v30l16 609h-108z" />
<glyph unicode="u" horiz-adv-x="1233" d="M43 906v56q86 8 161 16t146 17v-673q0 -140 50 -195t167 -55q118 0 201.5 56.5t91.5 139.5v512q0 82 -24.5 102t-122.5 23v57q88 8 163.5 16t145.5 17v-809q0 -84 20 -102t101 -27l-1 -57q-49 3 -84 4.5t-54 1.5q-25 0 -59.5 -1.5t-77.5 -4.5l-1 145q-63 -83 -153.5 -123 t-214.5 -40q-166 0 -237 81.5t-71 284.5v432q0 82 -24.5 102t-122.5 24z" />
<glyph unicode="v" horiz-adv-x="958" d="M-12 920v57q86 -6 132 -8t75 -2q33 0 82.5 2t135.5 8l1 -57q-86 -6 -106.5 -15.5t-20.5 -34.5q0 -17 3 -32.5t9 -30.5l223 -610l236 610q6 18 9 34.5t3 28.5q0 25 -20 34.5t-103 15.5v56q57 -5 94 -7t64 -2q24 0 57 2t92 8v-57q-85 0 -128 -107h-1l-225 -557 q-45 -113 -70.5 -173t-44.5 -101l-45 8l-329 837q-3 7 -7 17q-28 76 -102 76h-14z" />
<glyph unicode="w" horiz-adv-x="1473" d="M4 920v57q75 -6 120.5 -8t78.5 -2q34 0 81 2t123 8l1 -57q-72 -6 -91.5 -18.5t-19.5 -45.5q0 -20 1.5 -30.5t4.5 -18.5l191 -582l208 581q7 18 11 35.5t4 28.5q0 36 -96 49l-7 1v57q78 -6 117.5 -8t67.5 -2q38 0 84.5 2t113.5 8v-57l-4 -1q-90 -13 -90 -49q0 -15 2.5 -33 t5.5 -30l170 -594l203 594q6 16 9 32t3 31q0 36 -95 49l-7 1v56q51 -5 82 -7t55 -2q29 0 63.5 2t85.5 8l1 -57q-54 0 -79.5 -20t-49.5 -87l-176 -485q-16 -42 -61 -160t-71 -186l-45 8l-243 794l-185 -495q-20 -52 -49 -129t-67 -178l-47 8l-281 837q-20 61 -41 77t-66 16 h-16z" />
<glyph unicode="x" horiz-adv-x="1042" d="M-24 0v57q53 2 87.5 18.5t69.5 57.5l299 348l-250 350q-36 53 -68.5 69t-88.5 20v57q62 -3 112.5 -5t87.5 -1q47 0 99 1.5t112 4.5v-57q-34 0 -54 -12.5t-20 -33.5q0 -14 7 -30.5t20 -34.5l150 -215l178 232q11 14 16.5 26.5t5.5 24.5q0 20 -15.5 28.5t-76.5 14.5l1 57 q55 -3 92 -5t59 -1q35 0 79 1.5t92 4.5l1 -57h-10q-52 0 -95.5 -27.5t-101.5 -99.5l-189 -238l295 -410q36 -50 65.5 -66t80.5 -22l-1 -57q-70 3 -117.5 4.5t-70.5 1.5q-41 0 -98 -1.5t-133 -4.5v57h16q37 0 56.5 12t19.5 33q0 16 -6 32.5t-18 33.5l-195 274l-225 -270 q-12 -15 -19.5 -34.5t-7.5 -33.5q0 -22 28 -33.5t87 -13.5l-1 -57q-49 1 -110 3.5t-71 2.5q-12 0 -69.5 -2.5t-104.5 -3.5z" />
<glyph unicode="y" horiz-adv-x="924" d="M-25 920v57q82 -6 127 -8t74 -2q36 0 85.5 2t129.5 8v-57h-16q-43 0 -68.5 -13.5t-25.5 -34.5q0 -31 18 -77q4 -11 6 -17l213 -545q29 84 79 227q120 340 120 390q0 33 -32 49.5t-101 20.5v57q64 -6 101.5 -8t64.5 -2q26 0 62.5 2t98.5 8v-57q-50 -2 -78.5 -26.5 t-50.5 -86.5l-315 -897q-77 -219 -139 -292t-156 -73q-50 0 -81.5 24.5t-31.5 61.5q0 32 23 52t59 20t75.5 -25.5t51.5 -25.5q34 0 75 86.5t99 281.5l-311 756q-1 3 -4 10q-48 116 -152 134z" />
<glyph unicode="z" horiz-adv-x="934" d="M35 0v10l588 910h-224q-169 0 -220.5 -39.5t-62.5 -153.5h-42v250h774v-10l-592 -910h266q180 0 229.5 46.5t51.5 184.5l45 1v-289h-813z" />
<glyph unicode="{" d="M176 606v60q165 15 223 74t58 216v213q0 200 81 273.5t298 73.5h10v-51q-142 -2 -194 -55.5t-52 -209.5v-143q0 -226 -61 -308.5t-226 -113.5q165 -31 226 -113.5t61 -308.5v-143q0 -156 51.5 -208.5t194.5 -54.5v-51h-10q-217 0 -298 73.5t-81 272.5v213q0 158 -59 218 t-222 73z" />
<glyph unicode="|" d="M449 -483v2048h126v-2048h-126z" />
<glyph unicode="}" d="M178 -193q143 2 194.5 54.5t51.5 208.5v143q0 226 61 308.5t226 113.5q-165 31 -226 113.5t-61 308.5v143q0 156 -52 209.5t-194 55.5v51h10q216 0 297.5 -74t81.5 -273v-213q0 -157 58 -216t223 -74v-60q-163 -13 -222 -73t-59 -218v-213q0 -198 -81.5 -272t-297.5 -74 h-10v51z" />
<glyph unicode="~" horiz-adv-x="1706" d="M178 461v133q105 73 202 109t185 36q56 0 116.5 -12.5t174.5 -52.5q12 -4 35 -13q164 -59 254 -59q85 0 176 36.5t209 119.5v-131q-101 -72 -197.5 -108t-189.5 -36q-43 0 -90.5 9t-100.5 26q-30 10 -87 31q-202 72 -302 72q-83 0 -173.5 -37.5t-211.5 -122.5z" />
<glyph unicode="&#xa1;" horiz-adv-x="729" d="M258 195q0 29 35 347t43 615h57q7 -289 42.5 -611.5t35.5 -363.5q0 -75 -27 -125.5t-79 -74.5q-55 24 -81 75.5t-26 137.5zM258 1380q0 47 30.5 78t76.5 31q44 0 75 -32t31 -77q0 -40 -32 -72t-74 -32q-43 0 -75 31.5t-32 72.5z" />
<glyph unicode="&#xa2;" horiz-adv-x="1139" d="M131 461q0 236 135 385t344 149q25 0 50.5 -2.5t52.5 -6.5l88 247h71l-98 -268q81 -30 131.5 -93.5t50.5 -134.5q0 -46 -20 -72t-55 -26q-36 0 -57 29t-21 80q0 25 6.5 50t19.5 51q-12 19 -29.5 33t-43.5 27l-289 -788q39 -19 78 -28t82 -9q116 0 195.5 52.5t119.5 156.5 l43 -17q-41 -141 -147 -217.5t-258 -76.5q-38 0 -76.5 4.5t-79.5 13.5l-92 -256h-72l102 283q-115 63 -173 171.5t-58 262.5zM305 479q0 -103 26.5 -183t80.5 -136l278 770q-24 3 -42 4.5t-32 1.5q-135 0 -223 -127t-88 -330z" />
<glyph unicode="&#xa3;" horiz-adv-x="1139" d="M47 70q0 61 68 101t178 40q18 0 38.5 -0.5t43.5 -1.5q1 10 3 28q5 51 5 66q0 55 -14.5 124.5t-46.5 168.5h-181v68h162q-9 31 -27 90q-61 194 -61 288q0 183 114 296.5t300 113.5q158 0 255 -92.5t97 -241.5q0 -86 -39 -145.5t-90 -59.5q-33 0 -51.5 16.5t-18.5 45.5 q0 44 32.5 78.5t92.5 54.5q3 15 4.5 29t1.5 22q0 93 -76 163.5t-182 70.5q-125 0 -199.5 -78.5t-74.5 -210.5q0 -59 22.5 -163t73.5 -277h350v-68h-331q6 -40 9 -77t3 -70q0 -53 -13 -109t-46 -137q117 -21 262.5 -55.5t173.5 -34.5q64 0 100 37t66 139l43 -10 q-41 -184 -89 -240.5t-149 -56.5q-65 0 -174.5 29.5t-284.5 94.5q-56 -62 -117 -93t-126 -31q-50 0 -78.5 23.5t-28.5 64.5zM104 76q0 -17 18.5 -29t43.5 -12q56 0 102 25t82 75q-40 11 -66 16t-44 5q-58 0 -97 -23.5t-39 -56.5z" />
<glyph unicode="&#xa4;" horiz-adv-x="1139" d="M47 557l23 61l135 1q-1 14 -1.5 33t-0.5 57q0 34 1.5 67.5t4.5 64.5l-154 1l21 61h141q37 252 166.5 399.5t314.5 147.5q98 0 171 -46.5t120 -139.5l15 88h47l-1 -7q-3 -173 -3 -255v-86h-52q-21 192 -94.5 286t-202.5 94q-112 0 -197.5 -130.5t-111.5 -350.5h578 l-21 -61h-560q-4 -44 -4.5 -65.5t-0.5 -41.5q0 -50 0.5 -73.5t1.5 -42.5l485 -1l-22 -61h-459q22 -255 98 -374.5t213 -119.5q118 0 195.5 81t110.5 237h55q-35 -198 -132.5 -298.5t-256.5 -100.5q-188 0 -309 152t-150 423h-164z" />
<glyph unicode="&#xa5;" horiz-adv-x="1139" d="M-20 1368v64q64 -4 124 -6.5t111 -2.5q47 0 105 2.5t122 6.5v-64q-63 0 -91.5 -14t-28.5 -45q0 -10 1.5 -17.5t6.5 -15.5l297 -531l245 457q19 36 27 59t8 39q0 38 -28 53t-101 15v64q55 -5 102 -7t87 -2q33 0 80.5 2.5t103.5 6.5v-64q-63 -6 -89 -19.5t-52 -60.5 l-160 -282h250v-62h-287l-145 -268h432v-62h-432v-387q0 -111 27.5 -136t135.5 -25h25v-66q-117 6 -174 8t-92 2q-38 0 -98 -2t-175 -8v66h27q107 0 134.5 25.5t27.5 135.5v387h-467v62h455l-162 268h-293v62h260l-135 231q-49 86 -84.5 108.5t-93.5 22.5h-6z" />
<glyph unicode="&#xa6;" d="M449 -350v758h126v-758h-126zM449 674v758h126v-758h-126z" />
<glyph unicode="&#xa7;" horiz-adv-x="985" d="M168 664q0 91 44.5 162.5t141.5 136.5q-56 75 -81 136t-25 124q0 117 74 191.5t190 74.5q92 0 154.5 -55t62.5 -138q0 -47 -17.5 -72.5t-49.5 -25.5q-30 0 -47 23t-17 63q0 15 4.5 35t15.5 55q-20 29 -49 42.5t-71 13.5q-57 0 -92 -38.5t-35 -101.5q0 -49 25 -102 t110 -164l158 -207q91 -120 133.5 -214t42.5 -175q0 -94 -45 -169t-133 -130q54 -70 80 -135.5t26 -130.5q0 -117 -76.5 -186.5t-204.5 -69.5q-110 0 -173.5 51.5t-63.5 138.5q0 48 17.5 73.5t49.5 25.5q30 0 46 -22t16 -62q0 -18 -5 -40t-16 -53q20 -28 48 -40.5t73 -12.5 q74 0 119 42.5t45 111.5q0 71 -92 194q-15 21 -23 32l-210 287q-8 11 -23 32q-127 172 -127 299zM281 748q0 -100 156 -320l14 -18l176 -244q58 41 86 86t28 96q0 61 -36.5 135.5t-133.5 202.5l-180 240q-56 -39 -83 -83t-27 -95z" />
<glyph unicode="&#xa8;" d="M217 1270q0 45 34.5 78.5t80.5 33.5q44 0 77 -33.5t33 -78.5q0 -49 -31 -81t-79 -32q-50 0 -82.5 32t-32.5 81zM582 1270q0 45 33.5 78.5t78.5 33.5t79 -33.5t34 -78.5q0 -49 -32 -81t-81 -32q-48 0 -80 32t-32 81z" />
<glyph unicode="&#xa9;" horiz-adv-x="1683" d="M139 678q0 140 53 268.5t152 229.5q98 99 228 152.5t272 53.5q137 0 266.5 -53.5t226.5 -150.5q98 -97 152.5 -228.5t54.5 -271.5t-53 -268t-154 -230q-98 -100 -225 -152.5t-270 -52.5t-269 52.5t-227 152.5t-154 227t-53 271zM225 678q0 -125 47 -238.5t136 -201.5 q88 -89 198.5 -135t235.5 -46q126 0 236.5 46t197.5 135q88 90 135 203t47 237t-47.5 240.5t-132.5 201.5q-86 87 -200.5 135t-233.5 48q-123 0 -237.5 -48.5t-200.5 -136.5q-88 -89 -134.5 -202.5t-46.5 -237.5zM426 664q0 186 116 312t285 126q74 0 148 -34t82 -34 q27 0 42 14.5t21 47.5h35l2 -314h-41q-34 137 -104 206t-176 69q-123 0 -185.5 -94.5t-62.5 -278.5q0 -189 67 -285t199 -96q86 0 156 43t127 131l34 -24q-58 -105 -143 -157t-199 -52q-167 0 -285 123t-118 297z" />
<glyph unicode="&#xaa;" horiz-adv-x="768" d="M51 928q0 83 59.5 128t264.5 87q24 5 57 11q39 7 39 15l2 66v25q0 102 -29.5 142t-99.5 40q-44 0 -80 -11.5t-67 -35.5q3 -21 4.5 -36t1.5 -26q0 -39 -19.5 -62.5t-50.5 -23.5q-20 0 -31.5 14.5t-11.5 38.5q0 68 80.5 125.5t185.5 57.5q125 0 181.5 -55t56.5 -179v-16 l-6 -229v-80q0 -40 15 -58t48 -18q24 0 41.5 10t30.5 31l25 -15q-27 -51 -66 -75.5t-94 -24.5t-86.5 28t-36.5 80q-50 -55 -108.5 -81.5t-133.5 -26.5q-78 0 -125 42t-47 112zM168 954q0 -53 32 -85.5t85 -32.5q52 0 96.5 27.5t83.5 82.5l6 178q-193 -36 -248 -70.5 t-55 -99.5z" />
<glyph unicode="&#xab;" horiz-adv-x="829" d="M80 483v11q117 88 221.5 192.5t116.5 104.5q5 -1 9.5 -6t4.5 -11q0 -17 -39 -73t-166 -214q127 -157 166 -213t39 -73q0 -6 -5 -10.5t-11 -4.5q-8 0 -113 103.5t-223 193.5zM395 483v11q117 88 222 192.5t116 104.5q5 0 9.5 -5t5.5 -12q0 -17 -39.5 -73t-165.5 -214 q126 -157 165.5 -213t39.5 -73q0 -6 -5 -10.5t-12 -4.5q-8 0 -113 103.5t-223 193.5z" />
<glyph unicode="&#xac;" horiz-adv-x="1706" d="M254 741v117h1198v-502h-115v385h-1083z" />
<glyph unicode="&#xad;" horiz-adv-x="707" d="M94 438v123h498v-123h-498z" />
<glyph unicode="&#xae;" horiz-adv-x="1683" d="M139 678q0 140 53 268.5t152 229.5q98 99 228 152.5t272 53.5q138 0 268.5 -54t228.5 -152q97 -97 150 -228t53 -272q0 -137 -55.5 -267.5t-157.5 -232.5q-99 -99 -224.5 -150t-270.5 -51q-137 0 -263 52.5t-227 152.5t-154 227t-53 271zM225 678q0 -127 46.5 -239 t136.5 -201q88 -89 198.5 -135t235.5 -46q126 0 236.5 46t197.5 135q88 90 135 203t47 237t-47.5 241.5t-132.5 200.5q-86 87 -200.5 135t-233.5 48q-122 0 -236 -48t-202 -137t-134.5 -202.5t-46.5 -237.5zM469 291v40q72 3 99.5 24.5t27.5 76.5v516q0 55 -26 76t-101 25 v43h393q147 0 232.5 -54.5t85.5 -146.5q0 -76 -69.5 -124t-217.5 -75q93 -29 142 -77.5t71 -133.5q6 -22 11 -63q13 -88 59 -88q32 0 49.5 34t17.5 99h43v-12q0 -88 -40.5 -133.5t-119.5 -45.5q-46 0 -78.5 17t-48.5 49q-18 40 -21 113.5t-9 95.5q-20 68 -70.5 100.5 t-136.5 32.5h-33v-248q0 -54 26.5 -75.5t98.5 -25.5v-40h-385zM729 719q16 -1 32 -1.5t34 -0.5q112 0 173.5 45.5t61.5 128.5q0 73 -53 117.5t-143 44.5q-52 0 -78.5 -18.5t-26.5 -53.5v-262z" />
<glyph unicode="&#xaf;" d="M250 1198v127h524v-127h-524z" />
<glyph unicode="&#xb0;" horiz-adv-x="674" d="M55 1171q0 119 82.5 201t200.5 82q117 0 200 -83t83 -200q0 -116 -83.5 -199t-201.5 -83t-199.5 82t-81.5 200zM135 1171q0 -84 59.5 -143t143.5 -59t142.5 59t58.5 143t-58.5 142.5t-142.5 58.5t-143.5 -58.5t-59.5 -142.5z" />
<glyph unicode="&#xb1;" horiz-adv-x="1706" d="M254 41v117h1198v-117h-1198zM254 719v117h541v344h118v-344h539v-117h-539v-344h-118v344h-541z" />
<glyph unicode="&#xb2;" horiz-adv-x="752" d="M41 1208q0 104 79.5 169t207.5 65q134 0 218.5 -71.5t84.5 -182.5q0 -93 -60.5 -181t-185.5 -178q-25 -18 -74 -51q-122 -81 -166 -137q44 11 91 16t129 5q39 0 101 -3.5t85 -3.5q75 0 97 136l1 9l41 1q-6 -61 -15.5 -120t-21.5 -114q-16 -1 -30.5 -1.5t-32.5 -0.5 q-88 0 -208.5 3t-152.5 3h-36q-52 0 -81.5 -1.5t-57.5 -4.5l-7 8q23 51 67.5 99.5t125.5 109.5q171 130 222.5 213t51.5 189q0 97 -57.5 154t-155.5 57q-94 0 -154.5 -51.5t-60.5 -131.5v-12q47 -10 74.5 -33t27.5 -51q0 -18 -11.5 -27.5t-33.5 -9.5q-45 0 -73.5 36 t-28.5 93z" />
<glyph unicode="&#xb3;" horiz-adv-x="752" d="M55 745q0 26 14.5 42t34.5 16q28 0 41 -18.5t13 -57.5q0 -10 -3 -25.5t-3 -19.5q0 -31 56 -56.5t134 -25.5q98 0 154.5 54t56.5 147q0 95 -58 140.5t-180 45.5q-8 0 -25.5 -1t-27.5 -1l1 43q120 2 185.5 55t65.5 150q0 78 -48.5 125t-129.5 47q-49 0 -89.5 -15t-66.5 -43 q3 -20 3.5 -29t0.5 -18q0 -37 -14.5 -58t-40.5 -21q-20 0 -30.5 12t-10.5 37q0 68 76.5 120t185.5 52q120 0 196.5 -60t76.5 -155q0 -86 -63.5 -139t-184.5 -70v-2q150 -8 223.5 -61.5t73.5 -153.5q0 -108 -90.5 -174t-241.5 -66q-120 0 -202.5 54t-82.5 130z" />
<glyph unicode="&#xb4;" d="M336 1106l276 301q27 30 54.5 45.5t52.5 15.5q31 0 53.5 -23.5t22.5 -55.5q0 -27 -17 -47.5t-67 -51.5l-301 -184h-74z" />
<glyph unicode="&#xb5;" horiz-adv-x="1120" d="M-80 -330q0 40 64.5 273.5t105.5 427.5l109 514h147l-104 -492q-6 -30 -9.5 -58.5t-3.5 -53.5q0 -83 42 -129t118 -46q98 0 163.5 68.5t94.5 200.5l111 510h149l-114 -531q-13 -59 -17 -87.5t-4 -49.5q0 -48 26 -78t66 -30q35 0 65.5 18t51.5 51t41 93.5t39 60.5 q12 0 19 -10t7 -27q0 -25 -11 -66.5t-29 -83.5q-38 -82 -95 -122.5t-135 -40.5q-68 0 -108.5 51t-40.5 139v23q-46 -110 -116 -164t-165 -54q-96 0 -152.5 54.5t-70.5 161.5q-27 -136 -52 -339q-34 -272 -112 -272q-37 0 -58.5 23.5t-21.5 64.5z" />
<glyph unicode="&#xb6;" d="M76 1130q0 157 107.5 253t285.5 96h479v-78h-125v-1401h-94v1401h-182v-1401h-96v782q-173 8 -274 102.5t-101 245.5z" />
<glyph unicode="&#xb7;" horiz-adv-x="569" d="M184 717q0 39 31 69.5t72 30.5q39 0 68.5 -30t29.5 -70q0 -43 -28.5 -72t-69.5 -29q-44 0 -73.5 29t-29.5 72z" />
<glyph unicode="&#xb8;" d="M256 -362l31 71q59 -35 118 -54.5t109 -19.5q59 0 89 24.5t30 72.5q0 43 -29.5 67.5t-81.5 24.5q-11 0 -45 -3q-10 -1 -14 -1v182h47v-114q26 3 44 4t32 2q78 0 125 -44.5t47 -117.5q0 -82 -57.5 -127t-159.5 -45q-65 0 -139 20t-146 58z" />
<glyph unicode="&#xb9;" horiz-adv-x="752" d="M160 572v36h39q88 0 109.5 15t21.5 84v646q-43 -7 -85 -17t-85 -23v43q33 10 97 26q131 33 185 60v-737q0 -68 20 -82.5t97 -14.5h19l-1 -37q-70 4 -119.5 5.5t-80.5 1.5q-35 0 -88.5 -1.5t-128.5 -4.5z" />
<glyph unicode="&#xba;" horiz-adv-x="782" d="M59 1116q0 166 95 266.5t249 100.5q146 0 233 -93t87 -251q0 -166 -95 -265.5t-251 -99.5q-145 0 -231.5 93t-86.5 249zM195 1128q0 -147 52 -231t142 -84q93 0 146 83.5t53 231.5q0 150 -51 233t-142 83q-92 0 -146 -84.5t-54 -231.5z" />
<glyph unicode="&#xbb;" horiz-adv-x="829" d="M61 203q0 17 48.5 84.5t156.5 199.5q-126 158 -165.5 214t-39.5 73q1 7 5 11.5t10 5.5q11 0 116 -104.5t222 -192.5v-11q-118 -89 -222.5 -193t-113.5 -104q-7 0 -12 5t-5 12zM377 203q0 17 48.5 84.5t156.5 199.5q-127 158 -166 214t-39 73q0 6 4.5 11t9.5 6 q12 0 116.5 -104.5t221.5 -192.5v-11q-117 -89 -221.5 -193t-114.5 -104q-7 0 -11.5 5t-4.5 12z" />
<glyph unicode="&#xbc;" horiz-adv-x="1776" d="M154 629v35h36q86 0 105.5 13.5t19.5 78.5v604q-48 -9 -88 -18.5t-73 -20.5v41q29 8 125 32t145 46v-686q0 -64 18 -77t93 -13h18v-35q-67 3 -115 4.5t-78 1.5q-33 0 -85 -1.5t-121 -4.5zM375 -18l934 1450h90l-934 -1450h-90zM1102 242v37q0 5 4.5 14t21.5 32l354 461 q25 3 53.5 9t57.5 14v-516h109v-51h-109v-142q0 -49 11.5 -58t66.5 -9v-33q-23 1 -61 2q-63 2 -80 2q-22 0 -96 -2q-41 -1 -66 -2v33q80 0 97.5 12.5t17.5 58.5v138h-381zM1147 287h344v446z" />
<glyph unicode="&#xbd;" horiz-adv-x="1776" d="M154 629v35h36q86 0 105.5 13.5t19.5 78.5v604q-48 -9 -88 -18.5t-73 -20.5v41q29 8 125 32t145 46v-686q0 -64 18 -77t93 -13h18v-35q-67 3 -115 4.5t-78 1.5q-33 0 -85 -1.5t-121 -4.5zM375 -18l934 1450h90l-934 -1450h-90zM1098 596q0 95 75.5 155t196.5 60 q129 0 210 -66t81 -170q0 -86 -57.5 -168.5t-176.5 -164.5q-22 -16 -67 -46q-120 -78 -162 -130q42 9 86 13.5t121 4.5q39 0 98.5 -3t79.5 -3q73 0 94 123q2 9 2 12h37q-4 -52 -13 -106.5t-22 -110.5q-14 -1 -28 -1.5t-31 -0.5q-85 0 -199.5 3t-144.5 3h-35q-48 0 -77 -1.5 t-55 -4.5l-7 8q22 47 63.5 92t120.5 103q168 126 215 202t47 172q0 91 -55.5 144t-148.5 53q-89 0 -147 -48t-58 -122v-12q45 -9 71.5 -30.5t26.5 -47.5q0 -17 -11 -26t-32 -9q-43 0 -70.5 34t-27.5 89z" />
<glyph unicode="&#xbe;" horiz-adv-x="1778" d="M53 791q0 24 13.5 39.5t33.5 15.5q26 0 39 -18t13 -54q0 -10 -3.5 -24.5t-3.5 -18.5q0 -27 53.5 -51.5t127.5 -24.5q93 0 147.5 50.5t54.5 138.5q0 87 -56 129.5t-171 42.5q-20 0 -30.5 -0.5t-20.5 -1.5v40q114 2 178 52t64 139q0 74 -47 118t-126 44q-45 0 -83.5 -14.5 t-63.5 -41.5q3 -18 3.5 -25.5t0.5 -14.5q0 -36 -14 -56t-39 -20q-20 0 -29.5 11.5t-9.5 35.5q0 62 73.5 110t176.5 48q116 0 188 -55t72 -144q0 -79 -60 -129.5t-176 -67.5q143 -7 213 -57.5t70 -144.5q0 -100 -86.5 -162t-228.5 -62q-115 0 -194 51t-79 122zM375 -18 l934 1450h90l-934 -1450h-90zM1102 242v37q0 5 4.5 14t21.5 32l354 461q25 3 53.5 9t57.5 14v-516h109v-51h-109v-142q0 -49 11.5 -58t66.5 -9v-33q-23 1 -61 2q-63 2 -80 2q-22 0 -96 -2q-41 -1 -66 -2v33q80 0 97.5 12.5t17.5 58.5v138h-381zM1147 287h344v446z" />
<glyph unicode="&#xbf;" horiz-adv-x="1028" d="M182 346q0 94 31 167t98 140q29 29 105.5 90.5t111.5 102.5q40 45 57 103t17 155v24h59q2 -14 2.5 -29t0.5 -44q0 -104 -23.5 -170.5t-79.5 -126.5q-15 -17 -50 -49q-167 -158 -167 -357q0 -149 63 -233t173 -84q75 0 129.5 39.5t66.5 103.5q-25 21 -38 52.5t-13 70.5 q0 38 15 57t46 19t54.5 -32t23.5 -77q0 -123 -92.5 -207t-234.5 -84q-158 0 -256.5 102.5t-98.5 266.5zM524 1370q0 47 30.5 78t76.5 31q44 0 75 -32t31 -77q0 -40 -32 -71t-74 -31q-43 0 -75 30.5t-32 71.5z" />
<glyph unicode="&#xc0;" horiz-adv-x="1280" d="M-27 0v66h11q60 0 88.5 21t54.5 91l483 1311h43l473 -1311q26 -68 55.5 -90t90.5 -22h8v-66q-75 4 -136 6t-102 2q-60 0 -128.5 -2t-141.5 -6v66h10q67 0 98 20.5t31 65.5q0 16 -1.5 29.5t-4.5 23.5l-114 340h-447l-80 -223q-26 -73 -34.5 -107t-8.5 -59q0 -49 24.5 -68 t90.5 -23v-65q-51 4 -99 6t-90 2q-33 0 -78 -2t-96 -6zM325 1891q0 32 22.5 55.5t53.5 23.5q25 0 52.5 -15.5t54.5 -45.5l276 -301h-74l-301 184q-50 31 -67 51.5t-17 47.5zM362 612h404l-195 578z" />
<glyph unicode="&#xc1;" horiz-adv-x="1280" d="M-27 0v66h11q60 0 88.5 21t54.5 91l483 1311h43l473 -1311q26 -68 55.5 -90t90.5 -22h8v-66q-75 4 -136 6t-102 2q-60 0 -128.5 -2t-141.5 -6v66h10q67 0 98 20.5t31 65.5q0 16 -1.5 29.5t-4.5 23.5l-114 340h-447l-80 -223q-26 -73 -34.5 -107t-8.5 -59q0 -49 24.5 -68 t90.5 -23v-65q-51 4 -99 6t-90 2q-33 0 -78 -2t-96 -6zM362 612h404l-195 578zM432 1608l276 301q27 30 54.5 45.5t52.5 15.5q31 0 53.5 -23.5t22.5 -55.5q0 -27 -17 -47.5t-67 -51.5l-301 -184h-74z" />
<glyph unicode="&#xc2;" horiz-adv-x="1280" d="M-27 0v66h11q60 0 88.5 21t54.5 91l483 1311h43l473 -1311q26 -68 55.5 -90t90.5 -22h8v-66q-75 4 -136 6t-102 2q-60 0 -128.5 -2t-141.5 -6v66h10q67 0 98 20.5t31 65.5q0 16 -1.5 29.5t-4.5 23.5l-114 340h-447l-80 -223q-26 -73 -34.5 -107t-8.5 -59q0 -49 24.5 -68 t90.5 -23v-65q-51 4 -99 6t-90 2q-33 0 -78 -2t-96 -6zM325 1606l222 338h122l220 -338h-56l-225 199l-225 -199h-58zM362 612h404l-195 578z" />
<glyph unicode="&#xc3;" horiz-adv-x="1280" d="M-27 0v66h11q60 0 88.5 21t54.5 91l483 1311h43l473 -1311q26 -68 55.5 -90t90.5 -22h8v-66q-75 4 -136 6t-102 2q-60 0 -128.5 -2t-141.5 -6v66h10q67 0 98 20.5t31 65.5q0 16 -1.5 29.5t-4.5 23.5l-114 340h-447l-80 -223q-26 -73 -34.5 -107t-8.5 -59q0 -49 24.5 -68 t90.5 -23v-65q-51 4 -99 6t-90 2q-33 0 -78 -2t-96 -6zM336 1647q19 105 66.5 163t113.5 58q12 0 28 -2.5t39 -7.5l109 -27q13 -3 24 -4.5t21 -1.5q41 0 65.5 21t36.5 67h41q-21 -109 -67 -164t-115 -55q-12 0 -24.5 1.5t-26.5 4.5l-107 27q-28 6 -41 8t-20 2 q-40 0 -64.5 -21.5t-37.5 -68.5h-41zM362 612h404l-195 578z" />
<glyph unicode="&#xc4;" horiz-adv-x="1280" d="M-27 0v66h11q60 0 88.5 21t54.5 91l483 1311h43l473 -1311q26 -68 55.5 -90t90.5 -22h8v-66q-75 4 -136 6t-102 2q-60 0 -128.5 -2t-141.5 -6v66h10q67 0 98 20.5t31 65.5q0 16 -1.5 29.5t-4.5 23.5l-114 340h-447l-80 -223q-26 -73 -34.5 -107t-8.5 -59q0 -49 24.5 -68 t90.5 -23v-65q-51 4 -99 6t-90 2q-33 0 -78 -2t-96 -6zM313 1772q0 45 34.5 78.5t80.5 33.5q44 0 77 -33.5t33 -78.5q0 -49 -31 -81t-79 -32q-50 0 -82.5 32t-32.5 81zM362 612h404l-195 578zM678 1772q0 45 33.5 78.5t78.5 33.5t79 -33.5t34 -78.5q0 -49 -32 -81t-81 -32 q-48 0 -80 32t-32 81z" />
<glyph unicode="&#xc5;" horiz-adv-x="1280" d="M-27 0v66h11q60 0 88.5 21t54.5 91l477 1292h62l460 -1292q26 -68 55.5 -90t90.5 -22h8v-66q-75 4 -136 6t-102 2q-60 0 -128.5 -2t-141.5 -6v66h10q67 0 98 20.5t31 65.5q0 16 -1.5 29.5t-4.5 23.5l-114 340h-447l-80 -223q-26 -73 -34.5 -107t-8.5 -59q0 -49 24.5 -68 t90.5 -23v-65q-51 4 -99 6t-90 2q-33 0 -78 -2t-96 -6zM362 612h404l-195 578zM414 1749q0 93 65 158t158 65t158 -65t65 -158q0 -92 -65 -156.5t-158 -64.5q-94 0 -158.5 64t-64.5 157zM510 1749q0 -51 37.5 -89t89.5 -38t89.5 37.5t37.5 89.5q0 53 -37 90t-90 37 q-52 0 -89.5 -37.5t-37.5 -89.5z" />
<glyph unicode="&#xc6;" horiz-adv-x="1933" d="M-86 0v66h4q90 0 174 145l8 14l584 1024q15 26 23 49t8 43q0 32 -24.5 47t-78.5 15h-43h-41v67q436 0 736 2t462 5q4 -96 9 -191.5t12 -193.5h-51q-20 186 -92.5 248.5t-286.5 62.5h-279v-594h125q146 0 183 43t45 188h49q-3 -100 -4.5 -170.5t-1.5 -109.5 q0 -52 1.5 -124.5t3.5 -168.5h-48q-8 178 -45.5 227t-182.5 49h-125v-677h367q213 0 289 72t94 280h51q-13 -131 -21 -231t-12 -187h-1122v66q108 0 137 27.5t29 139.5v322h-471l-158 -285q-24 -42 -37.5 -77t-13.5 -54q0 -38 26 -54t99 -20v-65h-381zM416 621h434v774z" />
<glyph unicode="&#xc7;" horiz-adv-x="1450" d="M94 727q0 338 192 550t498 212q141 0 259 -51t206 -150l23 103h49v-7q-8 -174 -8 -256q0 -23 2 -107q1 -54 2 -87h-51q-20 229 -147 359t-328 130q-231 0 -354.5 -173t-123.5 -496q0 -328 137.5 -509.5t383.5 -181.5q166 0 281.5 86.5t164.5 247.5h57 q-47 -201 -189.5 -308t-363.5 -107q-310 0 -500 205t-190 540zM502 -362l31 71q59 -35 118 -54.5t109 -19.5q59 0 89 24.5t30 72.5q0 43 -29.5 67.5t-81.5 24.5q-11 0 -45 -3q-10 -1 -14 -1v182h47v-114q26 3 44 4t32 2q78 0 125 -44.5t47 -117.5q0 -82 -57.5 -127 t-159.5 -45q-65 0 -139 20t-146 58z" />
<glyph unicode="&#xc8;" horiz-adv-x="1407" d="M119 0v66q108 0 137 27.5t29 139.5v1004q0 113 -28 138.5t-138 27.5v67q334 0 605 2t476 4q4 -96 9 -191t12 -193h-52q-20 186 -92 248.5t-286 62.5h-318v-594h160q145 0 182.5 43t44.5 188h49q-3 -101 -4.5 -171.5t-1.5 -108.5q0 -51 1.5 -123.5t4.5 -169.5h-48 q-8 177 -46 226.5t-182 49.5h-160v-677h406q213 0 289 72t94 280h51q-14 -131 -21.5 -231t-11.5 -187h-1161zM422 1891q0 32 22.5 55.5t53.5 23.5q25 0 52.5 -15.5t54.5 -45.5l276 -301h-74l-301 184q-50 31 -67 51.5t-17 47.5z" />
<glyph unicode="&#xc9;" horiz-adv-x="1407" d="M119 0v66q108 0 137 27.5t29 139.5v1004q0 113 -28 138.5t-138 27.5v67q334 0 605 2t476 4q4 -96 9 -191t12 -193h-52q-20 186 -92 248.5t-286 62.5h-318v-594h160q145 0 182.5 43t44.5 188h49q-3 -101 -4.5 -171.5t-1.5 -108.5q0 -51 1.5 -123.5t4.5 -169.5h-48 q-8 177 -46 226.5t-182 49.5h-160v-677h406q213 0 289 72t94 280h51q-14 -131 -21.5 -231t-11.5 -187h-1161zM529 1608l276 301q27 30 54.5 45.5t52.5 15.5q31 0 53.5 -23.5t22.5 -55.5q0 -27 -17 -47.5t-67 -51.5l-301 -184h-74z" />
<glyph unicode="&#xca;" horiz-adv-x="1407" d="M119 0v66q108 0 137 27.5t29 139.5v1004q0 113 -28 138.5t-138 27.5v67q334 0 605 2t476 4q4 -96 9 -191t12 -193h-52q-20 186 -92 248.5t-286 62.5h-318v-594h160q145 0 182.5 43t44.5 188h49q-3 -101 -4.5 -171.5t-1.5 -108.5q0 -51 1.5 -123.5t4.5 -169.5h-48 q-8 177 -46 226.5t-182 49.5h-160v-677h406q213 0 289 72t94 280h51q-14 -131 -21.5 -231t-11.5 -187h-1161zM422 1606l222 338h122l220 -338h-56l-225 199l-225 -199h-58z" />
<glyph unicode="&#xcb;" horiz-adv-x="1407" d="M119 0v66q108 0 137 27.5t29 139.5v1004q0 113 -28 138.5t-138 27.5v67q334 0 605 2t476 4q4 -96 9 -191t12 -193h-52q-20 186 -92 248.5t-286 62.5h-318v-594h160q145 0 182.5 43t44.5 188h49q-3 -101 -4.5 -171.5t-1.5 -108.5q0 -51 1.5 -123.5t4.5 -169.5h-48 q-8 177 -46 226.5t-182 49.5h-160v-677h406q213 0 289 72t94 280h51q-14 -131 -21.5 -231t-11.5 -187h-1161zM410 1772q0 45 34.5 78.5t80.5 33.5q44 0 77 -33.5t33 -78.5q0 -49 -31 -81t-79 -32q-50 0 -82.5 32t-32.5 81zM775 1772q0 45 33.5 78.5t78.5 33.5t79 -33.5 t34 -78.5q0 -49 -32 -81t-81 -32q-48 0 -80 32t-32 81z" />
<glyph unicode="&#xcc;" horiz-adv-x="758" d="M96 1891q0 32 22.5 55.5t53.5 23.5q25 0 52.5 -15.5t54.5 -45.5l276 -301h-74l-301 184q-50 31 -67 51.5t-17 47.5zM109 0v66q116 0 146 27t30 140v1004q0 115 -29 140.5t-147 25.5v67q108 -5 165.5 -7.5t94.5 -2.5q46 0 112 2.5t168 7.5v-67q-118 0 -147 -27t-29 -139 v-1004q0 -116 29.5 -141.5t146.5 -25.5v-66q-135 7 -182.5 8.5t-75.5 1.5q-40 0 -104 -2t-178 -8z" />
<glyph unicode="&#xcd;" horiz-adv-x="758" d="M109 0v66q116 0 146 27t30 140v1004q0 115 -29 140.5t-147 25.5v67q108 -5 165.5 -7.5t94.5 -2.5q46 0 112 2.5t168 7.5v-67q-118 0 -147 -27t-29 -139v-1004q0 -116 29.5 -141.5t146.5 -25.5v-66q-135 7 -182.5 8.5t-75.5 1.5q-40 0 -104 -2t-178 -8zM203 1608l276 301 q27 30 54.5 45.5t52.5 15.5q31 0 53.5 -23.5t22.5 -55.5q0 -27 -17 -47.5t-67 -51.5l-301 -184h-74z" />
<glyph unicode="&#xce;" horiz-adv-x="758" d="M96 1606l222 338h122l220 -338h-56l-225 199l-225 -199h-58zM109 0v66q116 0 146 27t30 140v1004q0 115 -29 140.5t-147 25.5v67q108 -5 165.5 -7.5t94.5 -2.5q46 0 112 2.5t168 7.5v-67q-118 0 -147 -27t-29 -139v-1004q0 -116 29.5 -141.5t146.5 -25.5v-66 q-135 7 -182.5 8.5t-75.5 1.5q-40 0 -104 -2t-178 -8z" />
<glyph unicode="&#xcf;" horiz-adv-x="758" d="M84 1772q0 45 34.5 78.5t80.5 33.5q44 0 77 -33.5t33 -78.5q0 -49 -31 -81t-79 -32q-50 0 -82.5 32t-32.5 81zM109 0v66q116 0 146 27t30 140v1004q0 115 -29 140.5t-147 25.5v67q108 -5 165.5 -7.5t94.5 -2.5q46 0 112 2.5t168 7.5v-67q-118 0 -147 -27t-29 -139v-1004 q0 -116 29.5 -141.5t146.5 -25.5v-66q-135 7 -182.5 8.5t-75.5 1.5q-40 0 -104 -2t-178 -8zM449 1772q0 45 33.5 78.5t78.5 33.5t79 -33.5t34 -78.5q0 -49 -32 -81t-81 -32q-48 0 -80 32t-32 81z" />
<glyph unicode="&#xd0;" horiz-adv-x="1579" d="M0 743v72h295v422q0 111 -28.5 137.5t-139.5 28.5v67q6 0 18 -1t17 -1h24q83 -4 156 -4q66 0 171 3t146 3q396 0 611 -192.5t215 -546.5q0 -355 -203 -543t-588 -188q-53 0 -176 2t-192 2q-90 0 -129 -1t-70 -3v66q110 0 139 28t29 139v510h-295zM483 66h162 q143 0 221.5 15t141.5 50q128 71 193 224t65 382q0 203 -52 343.5t-155 219.5q-72 56 -168.5 79.5t-274.5 23.5h-133v-588h398v-72h-398v-677z" />
<glyph unicode="&#xd1;" horiz-adv-x="1612" d="M68 1403v67q70 -5 123 -7.5t94 -2.5q23 0 60 2t122 8l829 -1114v820q0 156 -35.5 191.5t-154.5 35.5h-12v67q80 -5 140.5 -7.5t108.5 -2.5q31 0 75.5 2.5t125.5 7.5v-67q-107 -3 -139.5 -33.5t-32.5 -179.5v-12v-1188l-49 10l-983 1323v-1030q0 -166 35 -196.5t166 -30.5 l-1 -66q-93 6 -149.5 8t-97.5 2q-28 0 -74 -2t-141 -8v65q119 2 152.5 34t33.5 192v946q0 113 -30 139.5t-144 26.5h-22zM535 1647q19 105 66.5 163t113.5 58q12 0 28 -2.5t39 -7.5l109 -27q13 -3 24 -4.5t21 -1.5q41 0 65.5 21t36.5 67h41q-21 -109 -67 -164t-115 -55 q-12 0 -24.5 1.5t-26.5 4.5l-107 27q-28 6 -41 8t-20 2q-40 0 -64.5 -21.5t-37.5 -68.5h-41z" />
<glyph unicode="&#xd2;" horiz-adv-x="1579" d="M94 717q0 342 197 557t506 215q314 0 501 -204.5t187 -549.5q0 -330 -200.5 -541.5t-510.5 -211.5q-304 0 -492 202.5t-188 532.5zM307 735q0 -320 129.5 -504t351.5 -184q223 0 353.5 185t130.5 503q0 322 -131 504t-361 182q-214 0 -343.5 -186t-129.5 -500zM508 1891 q0 32 22.5 55.5t53.5 23.5q25 0 52.5 -15.5t54.5 -45.5l276 -301h-74l-301 184q-50 31 -67 51.5t-17 47.5z" />
<glyph unicode="&#xd3;" horiz-adv-x="1579" d="M94 717q0 342 197 557t506 215q314 0 501 -204.5t187 -549.5q0 -330 -200.5 -541.5t-510.5 -211.5q-304 0 -492 202.5t-188 532.5zM307 735q0 -320 129.5 -504t351.5 -184q223 0 353.5 185t130.5 503q0 322 -131 504t-361 182q-214 0 -343.5 -186t-129.5 -500zM615 1608 l276 301q27 30 54.5 45.5t52.5 15.5q31 0 53.5 -23.5t22.5 -55.5q0 -27 -17 -47.5t-67 -51.5l-301 -184h-74z" />
<glyph unicode="&#xd4;" horiz-adv-x="1579" d="M94 717q0 342 197 557t506 215q314 0 501 -204.5t187 -549.5q0 -330 -200.5 -541.5t-510.5 -211.5q-304 0 -492 202.5t-188 532.5zM307 735q0 -320 129.5 -504t351.5 -184q223 0 353.5 185t130.5 503q0 322 -131 504t-361 182q-214 0 -343.5 -186t-129.5 -500zM508 1606 l222 338h122l220 -338h-56l-225 199l-225 -199h-58z" />
<glyph unicode="&#xd5;" horiz-adv-x="1579" d="M94 717q0 342 197 557t506 215q314 0 501 -204.5t187 -549.5q0 -330 -200.5 -541.5t-510.5 -211.5q-304 0 -492 202.5t-188 532.5zM307 735q0 -320 129.5 -504t351.5 -184q223 0 353.5 185t130.5 503q0 322 -131 504t-361 182q-214 0 -343.5 -186t-129.5 -500zM519 1647 q19 105 66.5 163t113.5 58q12 0 28 -2.5t39 -7.5l109 -27q13 -3 24 -4.5t21 -1.5q41 0 65.5 21t36.5 67h41q-21 -109 -67 -164t-115 -55q-12 0 -24.5 1.5t-26.5 4.5l-107 27q-28 6 -41 8t-20 2q-40 0 -64.5 -21.5t-37.5 -68.5h-41z" />
<glyph unicode="&#xd6;" horiz-adv-x="1579" d="M94 717q0 342 197 557t506 215q314 0 501 -204.5t187 -549.5q0 -330 -200.5 -541.5t-510.5 -211.5q-304 0 -492 202.5t-188 532.5zM307 735q0 -320 129.5 -504t351.5 -184q223 0 353.5 185t130.5 503q0 322 -131 504t-361 182q-214 0 -343.5 -186t-129.5 -500zM496 1772 q0 45 34.5 78.5t80.5 33.5q44 0 77 -33.5t33 -78.5q0 -49 -31 -81t-79 -32q-50 0 -82.5 32t-32.5 81zM861 1772q0 45 33.5 78.5t78.5 33.5t79 -33.5t34 -78.5q0 -49 -32 -81t-81 -32q-48 0 -80 32t-32 81z" />
<glyph unicode="&#xd7;" horiz-adv-x="1706" d="M301 135l475 475l-475 477l80 82l477 -477l475 477l82 -82l-475 -477l475 -475l-82 -82l-475 475l-477 -475z" />
<glyph unicode="&#xd8;" horiz-adv-x="1579" d="M94 723q0 338 197.5 552t505.5 214q114 0 211 -27.5t172 -81.5l131 185h100l-164 -234q118 -101 178 -251t60 -345q0 -329 -199 -541t-504 -212q-116 0 -212.5 27.5t-186.5 86.5l-180 -258h-103l219 309q-112 105 -168.5 250t-56.5 326zM307 735q0 -145 26 -260t77 -196 l698 999q-53 70 -133.5 107.5t-177.5 37.5q-225 0 -357.5 -185.5t-132.5 -502.5zM457 205q60 -80 141 -120t182 -40q225 0 358.5 186.5t133.5 503.5q0 155 -27.5 270.5t-83.5 198.5z" />
<glyph unicode="&#xd9;" horiz-adv-x="1630" d="M106 1470q104 -5 160 -7.5t92 -2.5q45 0 108.5 2.5t162.5 7.5v-67q-110 0 -138 -28t-28 -138v-662q0 -291 92 -395t322 -104q228 0 318.5 111.5t90.5 414.5v569q0 163 -31 197.5t-135 34.5v67q78 -5 129.5 -7.5t87.5 -2.5q27 0 68.5 2t128.5 8v-67q-104 0 -135 -34.5 t-31 -197.5v-505q0 -197 -9 -276.5t-30 -135.5q-51 -139 -175 -205.5t-333 -66.5q-173 0 -293 43.5t-180 128.5q-41 59 -58.5 135t-17.5 233v45v670q0 113 -27.5 138.5t-137.5 27.5zM583 1891q0 32 22.5 55.5t53.5 23.5q25 0 52.5 -15.5t54.5 -45.5l276 -301h-74l-301 184 q-50 31 -67 51.5t-17 47.5z" />
<glyph unicode="&#xda;" horiz-adv-x="1630" d="M106 1470q104 -5 160 -7.5t92 -2.5q45 0 108.5 2.5t162.5 7.5v-67q-110 0 -138 -28t-28 -138v-662q0 -291 92 -395t322 -104q228 0 318.5 111.5t90.5 414.5v569q0 163 -31 197.5t-135 34.5v67q78 -5 129.5 -7.5t87.5 -2.5q27 0 68.5 2t128.5 8v-67q-104 0 -135 -34.5 t-31 -197.5v-505q0 -197 -9 -276.5t-30 -135.5q-51 -139 -175 -205.5t-333 -66.5q-173 0 -293 43.5t-180 128.5q-41 59 -58.5 135t-17.5 233v45v670q0 113 -27.5 138.5t-137.5 27.5zM690 1608l276 301q27 30 54.5 45.5t52.5 15.5q31 0 53.5 -23.5t22.5 -55.5 q0 -27 -17 -47.5t-67 -51.5l-301 -184h-74z" />
<glyph unicode="&#xdb;" horiz-adv-x="1630" d="M106 1470q104 -5 160 -7.5t92 -2.5q45 0 108.5 2.5t162.5 7.5v-67q-110 0 -138 -28t-28 -138v-662q0 -291 92 -395t322 -104q228 0 318.5 111.5t90.5 414.5v569q0 163 -31 197.5t-135 34.5v67q78 -5 129.5 -7.5t87.5 -2.5q27 0 68.5 2t128.5 8v-67q-104 0 -135 -34.5 t-31 -197.5v-505q0 -197 -9 -276.5t-30 -135.5q-51 -139 -175 -205.5t-333 -66.5q-173 0 -293 43.5t-180 128.5q-41 59 -58.5 135t-17.5 233v45v670q0 113 -27.5 138.5t-137.5 27.5zM583 1606l222 338h122l220 -338h-56l-225 199l-225 -199h-58z" />
<glyph unicode="&#xdc;" horiz-adv-x="1630" d="M106 1470q104 -5 160 -7.5t92 -2.5q45 0 108.5 2.5t162.5 7.5v-67q-110 0 -138 -28t-28 -138v-662q0 -291 92 -395t322 -104q228 0 318.5 111.5t90.5 414.5v569q0 163 -31 197.5t-135 34.5v67q78 -5 129.5 -7.5t87.5 -2.5q27 0 68.5 2t128.5 8v-67q-104 0 -135 -34.5 t-31 -197.5v-505q0 -197 -9 -276.5t-30 -135.5q-51 -139 -175 -205.5t-333 -66.5q-173 0 -293 43.5t-180 128.5q-41 59 -58.5 135t-17.5 233v45v670q0 113 -27.5 138.5t-137.5 27.5zM571 1772q0 45 34.5 78.5t80.5 33.5q44 0 77 -33.5t33 -78.5q0 -49 -31 -81t-79 -32 q-50 0 -82.5 32t-32.5 81zM936 1772q0 45 33.5 78.5t78.5 33.5t79 -33.5t34 -78.5q0 -49 -32 -81t-81 -32q-48 0 -80 32t-32 81z" />
<glyph unicode="&#xdd;" horiz-adv-x="1210" d="M-16 1403v67q99 -5 150.5 -7.5t84.5 -2.5q52 0 115.5 2.5t152.5 7.5v-67q-68 0 -95 -14t-27 -48q0 -10 2 -18t6 -15l305 -542l252 469q18 32 26.5 56.5t8.5 43.5q0 38 -27.5 53t-103.5 15v67q69 -5 114 -7.5t76 -2.5t74.5 2.5t111.5 7.5v-67q-65 -6 -92.5 -21t-52.5 -61 l-352 -631v-457q0 -114 29 -140.5t141 -26.5h24v-66q-123 6 -182 8t-94 2q-43 0 -111 -2t-190 -8v66h24q112 0 141 27.5t29 139.5v437l-352 600q-76 133 -182 133h-6zM430 1608l276 301q27 30 54.5 45.5t52.5 15.5q31 0 53.5 -23.5t22.5 -55.5q0 -27 -17 -47.5t-67 -51.5 l-301 -184h-74z" />
<glyph unicode="&#xde;" horiz-adv-x="1247" d="M119 0v66q108 0 137 27.5t29 139.5v1004q0 113 -28 138.5t-138 27.5v67q112 -5 168.5 -7.5t91.5 -2.5q40 0 101.5 2.5t168.5 7.5v-67q-118 0 -147 -27t-29 -139v-73q24 0 53 0.5t84 0.5q295 0 433.5 -96.5t138.5 -302.5q0 -215 -130 -318.5t-401 -103.5q-36 0 -81.5 2 t-96.5 6v-119q0 -113 30 -140t146 -27h27v-66q-122 6 -184 8t-101 2q-38 0 -97.5 -2t-174.5 -8zM473 420q39 -1 79 -3.5t42 -2.5q210 0 300.5 82t90.5 268q0 176 -88.5 256t-286.5 80q-64 0 -90.5 -1t-46.5 -4v-675z" />
<glyph unicode="&#xdf;" horiz-adv-x="1114" d="M31 0v57q121 11 142.5 30t21.5 108v819q0 266 89.5 387t284.5 121q167 0 267 -93t100 -247q0 -123 -71 -204t-210 -116q177 -29 277 -148.5t100 -301.5q0 -189 -99.5 -310.5t-252.5 -121.5q-89 0 -146 48.5t-57 123.5q0 38 19 61t51 23q31 0 51 -28t20 -73 q0 -20 -4.5 -37.5t-15.5 -38.5q18 -12 33.5 -17t34.5 -5q99 0 146.5 83.5t47.5 256.5q0 235 -80.5 338.5t-261.5 103.5h-29l1 60q153 3 214.5 68.5t61.5 226.5q0 140 -53 214t-154 74q-109 0 -156 -89t-47 -312v-1061q-71 6 -104 8t-55 2q-24 0 -60 -2t-106 -8z" />
<glyph unicode="&#xe0;" d="M68 203q0 118 79.5 182.5t352.5 124.5q34 8 77 15q52 10 52 22l2 94v35q0 146 -39.5 203t-132.5 57q-59 0 -107 -16.5t-90 -51.5l3 -21q5 -50 5 -67q0 -55 -25.5 -89t-66.5 -34q-27 0 -43 20.5t-16 55.5q0 98 107.5 180t248.5 82q166 0 242 -78t76 -255v-25l-9 -326 q0 -18 -1 -56.5t-1 -57.5q0 -56 21 -82.5t65 -26.5q32 0 55 14.5t40 44.5l34 -20q-35 -73 -87.5 -109t-125.5 -36q-74 0 -116.5 40.5t-47.5 114.5q-66 -80 -144 -117.5t-179 -37.5q-104 0 -166.5 60t-62.5 161zM192 1389q0 32 22.5 55.5t53.5 23.5q25 0 52.5 -15.5 t54.5 -45.5l276 -301h-74l-301 184q-50 31 -67 51.5t-17 47.5zM223 240q0 -76 43.5 -123t112.5 -47t128.5 38.5t113.5 118.5l6 256q-256 -51 -330 -100.5t-74 -142.5z" />
<glyph unicode="&#xe1;" d="M68 203q0 118 79.5 182.5t352.5 124.5q34 8 77 15q52 10 52 22l2 94v35q0 146 -39.5 203t-132.5 57q-59 0 -107 -16.5t-90 -51.5l3 -21q5 -50 5 -67q0 -55 -25.5 -89t-66.5 -34q-27 0 -43 20.5t-16 55.5q0 98 107.5 180t248.5 82q166 0 242 -78t76 -255v-25l-9 -326 q0 -18 -1 -56.5t-1 -57.5q0 -56 21 -82.5t65 -26.5q32 0 55 14.5t40 44.5l34 -20q-35 -73 -87.5 -109t-125.5 -36q-74 0 -116.5 40.5t-47.5 114.5q-66 -80 -144 -117.5t-179 -37.5q-104 0 -166.5 60t-62.5 161zM223 240q0 -76 43.5 -123t112.5 -47t128.5 38.5t113.5 118.5 l6 256q-256 -51 -330 -100.5t-74 -142.5zM299 1106l276 301q27 30 54.5 45.5t52.5 15.5q31 0 53.5 -23.5t22.5 -55.5q0 -27 -17 -47.5t-67 -51.5l-301 -184h-74z" />
<glyph unicode="&#xe2;" d="M68 203q0 118 79.5 182.5t352.5 124.5q34 8 77 15q52 10 52 22l2 94v35q0 146 -39.5 203t-132.5 57q-59 0 -107 -16.5t-90 -51.5l3 -21q5 -50 5 -67q0 -55 -25.5 -89t-66.5 -34q-27 0 -43 20.5t-16 55.5q0 98 107.5 180t248.5 82q166 0 242 -78t76 -255v-25l-9 -326 q0 -18 -1 -56.5t-1 -57.5q0 -56 21 -82.5t65 -26.5q32 0 55 14.5t40 44.5l34 -20q-35 -73 -87.5 -109t-125.5 -36q-74 0 -116.5 40.5t-47.5 114.5q-66 -80 -144 -117.5t-179 -37.5q-104 0 -166.5 60t-62.5 161zM192 1104l222 338h122l220 -338h-56l-225 199l-225 -199h-58z M223 240q0 -76 43.5 -123t112.5 -47t128.5 38.5t113.5 118.5l6 256q-256 -51 -330 -100.5t-74 -142.5z" />
<glyph unicode="&#xe3;" d="M68 203q0 118 79.5 182.5t352.5 124.5q34 8 77 15q52 10 52 22l2 94v35q0 146 -39.5 203t-132.5 57q-59 0 -107 -16.5t-90 -51.5l3 -21q5 -50 5 -67q0 -55 -25.5 -89t-66.5 -34q-27 0 -43 20.5t-16 55.5q0 98 107.5 180t248.5 82q166 0 242 -78t76 -255v-25l-9 -326 q0 -18 -1 -56.5t-1 -57.5q0 -56 21 -82.5t65 -26.5q32 0 55 14.5t40 44.5l34 -20q-35 -73 -87.5 -109t-125.5 -36q-74 0 -116.5 40.5t-47.5 114.5q-66 -80 -144 -117.5t-179 -37.5q-104 0 -166.5 60t-62.5 161zM203 1145q19 105 66.5 163t113.5 58q12 0 28 -2.5t39 -7.5 l109 -27q13 -3 24 -4.5t21 -1.5q41 0 65.5 21t36.5 67h41q-21 -109 -67 -164t-115 -55q-12 0 -24.5 1.5t-26.5 4.5l-107 27q-28 6 -41 8t-20 2q-40 0 -64.5 -21.5t-37.5 -68.5h-41zM223 240q0 -76 43.5 -123t112.5 -47t128.5 38.5t113.5 118.5l6 256q-256 -51 -330 -100.5 t-74 -142.5z" />
<glyph unicode="&#xe4;" d="M68 203q0 118 79.5 182.5t352.5 124.5q34 8 77 15q52 10 52 22l2 94v35q0 146 -39.5 203t-132.5 57q-59 0 -107 -16.5t-90 -51.5l3 -21q5 -50 5 -67q0 -55 -25.5 -89t-66.5 -34q-27 0 -43 20.5t-16 55.5q0 98 107.5 180t248.5 82q166 0 242 -78t76 -255v-25l-9 -326 q0 -18 -1 -56.5t-1 -57.5q0 -56 21 -82.5t65 -26.5q32 0 55 14.5t40 44.5l34 -20q-35 -73 -87.5 -109t-125.5 -36q-74 0 -116.5 40.5t-47.5 114.5q-66 -80 -144 -117.5t-179 -37.5q-104 0 -166.5 60t-62.5 161zM180 1270q0 45 34.5 78.5t80.5 33.5q44 0 77 -33.5t33 -78.5 q0 -49 -31 -81t-79 -32q-50 0 -82.5 32t-32.5 81zM223 240q0 -76 43.5 -123t112.5 -47t128.5 38.5t113.5 118.5l6 256q-256 -51 -330 -100.5t-74 -142.5zM545 1270q0 45 33.5 78.5t78.5 33.5t79 -33.5t34 -78.5q0 -49 -32 -81t-81 -32q-48 0 -80 32t-32 81z" />
<glyph unicode="&#xe5;" d="M68 203q0 118 79.5 182.5t352.5 124.5q34 8 77 15q52 10 52 22l2 94v35q0 146 -39.5 203t-132.5 57q-59 0 -107 -16.5t-90 -51.5l3 -21q5 -50 5 -67q0 -55 -25.5 -89t-66.5 -34q-27 0 -43 20.5t-16 55.5q0 98 107.5 180t248.5 82q166 0 242 -78t76 -255v-25l-9 -326 q0 -18 -1 -56.5t-1 -57.5q0 -56 21 -82.5t65 -26.5q32 0 55 14.5t40 44.5l34 -20q-35 -73 -87.5 -109t-125.5 -36q-74 0 -116.5 40.5t-47.5 114.5q-66 -80 -144 -117.5t-179 -37.5q-104 0 -166.5 60t-62.5 161zM223 240q0 -76 43.5 -123t112.5 -47t128.5 38.5t113.5 118.5 l6 256q-256 -51 -330 -100.5t-74 -142.5zM274 1282q0 93 65.5 158t158.5 65t158 -65t65 -158q0 -92 -65 -156.5t-158 -64.5q-94 0 -159 64t-65 157zM369 1282q0 -51 38.5 -89t90.5 -38t89.5 37.5t37.5 89.5q0 54 -37.5 91.5t-89.5 37.5q-53 0 -91 -38.5t-38 -90.5z" />
<glyph unicode="&#xe6;" horiz-adv-x="1493" d="M68 203q0 122 75.5 185.5t321.5 119.5q41 9 93 17q54 9 54 22l2 94v35q0 146 -38.5 203t-129.5 57q-56 0 -103 -16.5t-87 -51.5q1 -6 2 -17q6 -50 6 -71q0 -55 -24.5 -89t-63.5 -34q-27 0 -43 21t-16 55q0 99 104.5 180.5t241.5 81.5q96 0 164 -32.5t102 -94.5 q63 65 137.5 96t163.5 31q171 0 272 -107t101 -288q0 -2 -1 -9q-1 -25 -1 -48l-635 -17v-16q0 -211 78 -318.5t231 -107.5q102 0 176 54t111 155l41 -17q-42 -143 -143 -218.5t-252 -75.5q-120 0 -204.5 48.5t-146.5 153.5q-97 -109 -184 -156.5t-184 -47.5 q-104 0 -162.5 59t-58.5 164zM219 242q0 -81 39.5 -126.5t108.5 -45.5q67 0 130.5 42t106.5 115l6 256q-258 -56 -324.5 -103t-66.5 -138zM768 588l489 14v23q0 151 -57.5 233t-163.5 82q-113 0 -184.5 -93t-83.5 -259z" />
<glyph unicode="&#xe7;" horiz-adv-x="1010" d="M80 459q0 238 136.5 387t352.5 149q143 0 241.5 -79.5t98.5 -188.5q0 -40 -20 -64t-53 -24q-35 0 -59.5 28t-24.5 70q0 26 11 58t11 36q0 42 -58 73.5t-143 31.5q-142 0 -227.5 -124.5t-85.5 -336.5q0 -190 83 -290.5t241 -100.5q111 0 191 54t118 155l43 -17 q-45 -144 -148.5 -219t-257.5 -75q-207 0 -328.5 128.5t-121.5 348.5zM250 -362l31 71q59 -35 118 -54.5t109 -19.5q59 0 89 24.5t30 72.5q0 43 -29.5 67.5t-81.5 24.5q-11 0 -45 -3q-10 -1 -14 -1v182h47v-114q26 3 44 4t32 2q78 0 125 -44.5t47 -117.5q0 -82 -57.5 -127 t-159.5 -45q-65 0 -139 20t-146 58z" />
<glyph unicode="&#xe8;" horiz-adv-x="1034" d="M80 481q0 228 130 371t335 143q184 0 290.5 -108t106.5 -297q0 -9 -1 -24.5t-1 -22.5l-678 -17v-14q0 -211 82.5 -319.5t243.5 -108.5q111 0 191 54t118 155l45 -17q-43 -140 -150.5 -217t-261.5 -77q-212 0 -331 131.5t-119 367.5zM260 1389q0 32 22.5 55.5t53.5 23.5 q25 0 52.5 -15.5t54.5 -45.5l276 -301h-74l-301 184q-50 31 -67 51.5t-17 47.5zM264 588l522 14v27q0 149 -61 230t-174 81q-122 0 -198.5 -93.5t-88.5 -258.5z" />
<glyph unicode="&#xe9;" horiz-adv-x="1034" d="M80 481q0 228 130 371t335 143q184 0 290.5 -108t106.5 -297q0 -9 -1 -24.5t-1 -22.5l-678 -17v-14q0 -211 82.5 -319.5t243.5 -108.5q111 0 191 54t118 155l45 -17q-43 -140 -150.5 -217t-261.5 -77q-212 0 -331 131.5t-119 367.5zM264 588l522 14v27q0 149 -61 230 t-174 81q-122 0 -198.5 -93.5t-88.5 -258.5zM367 1106l276 301q27 30 54.5 45.5t52.5 15.5q31 0 53.5 -23.5t22.5 -55.5q0 -27 -17 -47.5t-67 -51.5l-301 -184h-74z" />
<glyph unicode="&#xea;" horiz-adv-x="1034" d="M80 481q0 228 130 371t335 143q184 0 290.5 -108t106.5 -297q0 -9 -1 -24.5t-1 -22.5l-678 -17v-14q0 -211 82.5 -319.5t243.5 -108.5q111 0 191 54t118 155l45 -17q-43 -140 -150.5 -217t-261.5 -77q-212 0 -331 131.5t-119 367.5zM260 1104l222 338h122l220 -338h-56 l-225 199l-225 -199h-58zM264 588l522 14v27q0 149 -61 230t-174 81q-122 0 -198.5 -93.5t-88.5 -258.5z" />
<glyph unicode="&#xeb;" horiz-adv-x="1034" d="M80 481q0 228 130 371t335 143q184 0 290.5 -108t106.5 -297q0 -9 -1 -24.5t-1 -22.5l-678 -17v-14q0 -211 82.5 -319.5t243.5 -108.5q111 0 191 54t118 155l45 -17q-43 -140 -150.5 -217t-261.5 -77q-212 0 -331 131.5t-119 367.5zM248 1270q0 45 34.5 78.5t80.5 33.5 q44 0 77 -33.5t33 -78.5q0 -49 -31 -81t-79 -32q-50 0 -82.5 32t-32.5 81zM264 588l522 14v27q0 149 -61 230t-174 81q-122 0 -198.5 -93.5t-88.5 -258.5zM613 1270q0 45 33.5 78.5t78.5 33.5t79 -33.5t34 -78.5q0 -49 -32 -81t-81 -32q-48 0 -80 32t-32 81z" />
<glyph unicode="&#xec;" horiz-adv-x="555" d="M-41 1389q0 32 22.5 55.5t53.5 23.5q25 0 52.5 -15.5t54.5 -45.5l276 -301h-74l-301 184q-50 31 -67 51.5t-17 47.5zM4 0v57h2q193 11 193 138v585q0 85 -27.5 105t-167.5 20v57q91 4 180.5 12t175.5 21v-800q0 -98 27.5 -116.5t142.5 -21.5v-57q-106 6 -165 8t-97 2 q-37 0 -95.5 -2t-168.5 -8z" />
<glyph unicode="&#xed;" horiz-adv-x="555" d="M4 0v57h2q193 11 193 138v585q0 85 -27.5 105t-167.5 20v57q91 4 180.5 12t175.5 21v-800q0 -98 27.5 -116.5t142.5 -21.5v-57q-106 6 -165 8t-97 2q-37 0 -95.5 -2t-168.5 -8zM66 1106l276 301q27 30 54.5 45.5t52.5 15.5q31 0 53.5 -23.5t22.5 -55.5q0 -27 -17 -47.5 t-67 -51.5l-301 -184h-74z" />
<glyph unicode="&#xee;" horiz-adv-x="555" d="M-41 1104l222 338h122l220 -338h-56l-225 199l-225 -199h-58zM4 0v57h2q193 11 193 138v585q0 85 -27.5 105t-167.5 20v57q91 4 180.5 12t175.5 21v-800q0 -98 27.5 -116.5t142.5 -21.5v-57q-106 6 -165 8t-97 2q-37 0 -95.5 -2t-168.5 -8z" />
<glyph unicode="&#xef;" horiz-adv-x="555" d="M-53 1270q0 45 34.5 78.5t80.5 33.5q44 0 77 -33.5t33 -78.5q0 -49 -31 -81t-79 -32q-50 0 -82.5 32t-32.5 81zM4 0v57h2q193 11 193 138v585q0 85 -27.5 105t-167.5 20v57q91 4 180.5 12t175.5 21v-800q0 -98 27.5 -116.5t142.5 -21.5v-57q-106 6 -165 8t-97 2 q-37 0 -95.5 -2t-168.5 -8zM312 1270q0 45 33.5 78.5t78.5 33.5t79 -33.5t34 -78.5q0 -49 -32 -81t-81 -32q-48 0 -80 32t-32 81z" />
<glyph unicode="&#xf0;" horiz-adv-x="1042" d="M80 451q0 223 121.5 360t316.5 137q44 0 84 -11t80 -34q-50 85 -100.5 159t-100.5 136l-299 -156l-30 58l288 153q-53 60 -107 114t-108 101l49 56q68 -46 135.5 -100t137.5 -115l262 141l33 -59l-248 -131q187 -195 278 -385.5t91 -387.5q0 -232 -125.5 -368.5 t-335.5 -136.5q-193 0 -307.5 126.5t-114.5 342.5zM260 444q0 -191 68 -299t188 -108q123 0 193.5 113.5t70.5 312.5q0 202 -67.5 314t-190.5 112q-124 0 -193 -116.5t-69 -328.5z" />
<glyph unicode="&#xf1;" horiz-adv-x="1229" d="M31 0v57q125 12 146.5 30.5t21.5 107.5v585q0 84 -26 103.5t-142 21.5v57q104 7 179.5 15t145.5 18v-233q71 120 162.5 176.5t212.5 56.5q161 0 232 -84.5t71 -281.5v-445q0 -83 20.5 -100.5t100.5 -26.5v-57q-109 7 -149 8.5t-64 1.5q-32 0 -83 -2t-150 -8v57 q121 11 142 30t21 108v458q0 143 -44 207t-142 64q-122 0 -224 -107t-102 -229v-393q0 -93 20.5 -111t102.5 -27v-57q-103 6 -147 8t-68 2q-30 0 -80 -2t-157 -8zM330 1145q19 105 66.5 163t113.5 58q12 0 28 -2.5t39 -7.5l109 -27q13 -3 24 -4.5t21 -1.5q41 0 65.5 21 t36.5 67h41q-21 -109 -67 -164t-115 -55q-12 0 -24.5 1.5t-26.5 4.5l-107 27q-28 6 -41 8t-20 2q-40 0 -64.5 -21.5t-37.5 -68.5h-41z" />
<glyph unicode="&#xf2;" horiz-adv-x="1042" d="M80 471q0 238 126 381t333 143q192 0 308 -133t116 -358q0 -238 -126.5 -380t-334.5 -142q-193 0 -307.5 132t-114.5 357zM239 1389q0 32 22.5 55.5t53.5 23.5q25 0 52.5 -15.5t54.5 -45.5l276 -301h-74l-301 184q-50 31 -67 51.5t-17 47.5zM260 487q0 -211 69 -330.5 t189 -119.5q123 0 193.5 120t70.5 330q0 214 -67.5 333.5t-188.5 119.5q-122 0 -194 -121t-72 -332z" />
<glyph unicode="&#xf3;" horiz-adv-x="1042" d="M80 471q0 238 126 381t333 143q192 0 308 -133t116 -358q0 -238 -126.5 -380t-334.5 -142q-193 0 -307.5 132t-114.5 357zM260 487q0 -211 69 -330.5t189 -119.5q123 0 193.5 120t70.5 330q0 214 -67.5 333.5t-188.5 119.5q-122 0 -194 -121t-72 -332zM346 1106l276 301 q27 30 54.5 45.5t52.5 15.5q31 0 53.5 -23.5t22.5 -55.5q0 -27 -17 -47.5t-67 -51.5l-301 -184h-74z" />
<glyph unicode="&#xf4;" horiz-adv-x="1042" d="M80 471q0 238 126 381t333 143q192 0 308 -133t116 -358q0 -238 -126.5 -380t-334.5 -142q-193 0 -307.5 132t-114.5 357zM239 1104l222 338h122l220 -338h-56l-225 199l-225 -199h-58zM260 487q0 -211 69 -330.5t189 -119.5q123 0 193.5 120t70.5 330q0 214 -67.5 333.5 t-188.5 119.5q-122 0 -194 -121t-72 -332z" />
<glyph unicode="&#xf5;" horiz-adv-x="1042" d="M80 471q0 238 126 381t333 143q192 0 308 -133t116 -358q0 -238 -126.5 -380t-334.5 -142q-193 0 -307.5 132t-114.5 357zM250 1145q19 105 66.5 163t113.5 58q12 0 28 -2.5t39 -7.5l109 -27q13 -3 24 -4.5t21 -1.5q41 0 65.5 21t36.5 67h41q-21 -109 -67 -164t-115 -55 q-12 0 -24.5 1.5t-26.5 4.5l-107 27q-28 6 -41 8t-20 2q-40 0 -64.5 -21.5t-37.5 -68.5h-41zM260 487q0 -211 69 -330.5t189 -119.5q123 0 193.5 120t70.5 330q0 214 -67.5 333.5t-188.5 119.5q-122 0 -194 -121t-72 -332z" />
<glyph unicode="&#xf6;" horiz-adv-x="1042" d="M80 471q0 238 126 381t333 143q192 0 308 -133t116 -358q0 -238 -126.5 -380t-334.5 -142q-193 0 -307.5 132t-114.5 357zM227 1270q0 45 34.5 78.5t80.5 33.5q44 0 77 -33.5t33 -78.5q0 -49 -31 -81t-79 -32q-50 0 -82.5 32t-32.5 81zM260 487q0 -211 69 -330.5 t189 -119.5q123 0 193.5 120t70.5 330q0 214 -67.5 333.5t-188.5 119.5q-122 0 -194 -121t-72 -332zM592 1270q0 45 33.5 78.5t78.5 33.5t79 -33.5t34 -78.5q0 -49 -32 -81t-81 -32q-48 0 -80 32t-32 81z" />
<glyph unicode="&#xf7;" horiz-adv-x="1706" d="M254 553v117h1198v-117h-1198zM739 250q0 48 34 81.5t81 33.5t81 -34t34 -81t-33.5 -81t-81.5 -34t-81.5 33.5t-33.5 81.5zM739 971q0 47 34 80.5t81 33.5q48 0 81.5 -33.5t33.5 -80.5q0 -48 -33.5 -81.5t-81.5 -33.5q-49 0 -82 33.5t-33 81.5z" />
<glyph unicode="&#xf8;" horiz-adv-x="1042" d="M4 -143l189 262q-60 75 -86.5 155.5t-26.5 188.5q0 247 126 389.5t343 142.5q64 0 120 -17t111 -54l140 194h92l-174 -239q66 -80 95.5 -165.5t29.5 -199.5q0 -245 -126 -388.5t-337 -143.5q-75 0 -139 21t-115 63l-152 -209h-90zM258 451q0 -61 7 -111t22 -96l422 583 q-31 55 -78.5 84t-106.5 29q-128 0 -197 -126.5t-69 -362.5zM319 166q34 -65 84 -98t113 -33q123 0 193.5 121t70.5 331q0 85 -7.5 149.5t-22.5 121.5z" />
<glyph unicode="&#xf9;" horiz-adv-x="1233" d="M43 906v56q86 8 161 16t146 17v-673q0 -140 50 -195t167 -55q118 0 201.5 56.5t91.5 139.5v512q0 82 -24.5 102t-122.5 23v57q88 8 163.5 16t145.5 17v-809q0 -84 20 -102t101 -27l-1 -57q-49 3 -84 4.5t-54 1.5q-25 0 -59.5 -1.5t-77.5 -4.5l-1 145q-63 -83 -153.5 -123 t-214.5 -40q-166 0 -237 81.5t-71 284.5v432q0 82 -24.5 102t-122.5 24zM315 1389q0 32 22.5 55.5t53.5 23.5q25 0 52.5 -15.5t54.5 -45.5l276 -301h-74l-301 184q-50 31 -67 51.5t-17 47.5z" />
<glyph unicode="&#xfa;" horiz-adv-x="1233" d="M43 906v56q86 8 161 16t146 17v-673q0 -140 50 -195t167 -55q118 0 201.5 56.5t91.5 139.5v512q0 82 -24.5 102t-122.5 23v57q88 8 163.5 16t145.5 17v-809q0 -84 20 -102t101 -27l-1 -57q-49 3 -84 4.5t-54 1.5q-25 0 -59.5 -1.5t-77.5 -4.5l-1 145q-63 -83 -153.5 -123 t-214.5 -40q-166 0 -237 81.5t-71 284.5v432q0 82 -24.5 102t-122.5 24zM422 1106l276 301q27 30 54.5 45.5t52.5 15.5q31 0 53.5 -23.5t22.5 -55.5q0 -27 -17 -47.5t-67 -51.5l-301 -184h-74z" />
<glyph unicode="&#xfb;" horiz-adv-x="1233" d="M43 906v56q86 8 161 16t146 17v-673q0 -140 50 -195t167 -55q118 0 201.5 56.5t91.5 139.5v512q0 82 -24.5 102t-122.5 23v57q88 8 163.5 16t145.5 17v-809q0 -84 20 -102t101 -27l-1 -57q-49 3 -84 4.5t-54 1.5q-25 0 -59.5 -1.5t-77.5 -4.5l-1 145q-63 -83 -153.5 -123 t-214.5 -40q-166 0 -237 81.5t-71 284.5v432q0 82 -24.5 102t-122.5 24zM315 1104l222 338h122l220 -338h-56l-225 199l-225 -199h-58z" />
<glyph unicode="&#xfc;" horiz-adv-x="1233" d="M43 906v56q86 8 161 16t146 17v-673q0 -140 50 -195t167 -55q118 0 201.5 56.5t91.5 139.5v512q0 82 -24.5 102t-122.5 23v57q88 8 163.5 16t145.5 17v-809q0 -84 20 -102t101 -27l-1 -57q-49 3 -84 4.5t-54 1.5q-25 0 -59.5 -1.5t-77.5 -4.5l-1 145q-63 -83 -153.5 -123 t-214.5 -40q-166 0 -237 81.5t-71 284.5v432q0 82 -24.5 102t-122.5 24zM303 1270q0 45 34.5 78.5t80.5 33.5q44 0 77 -33.5t33 -78.5q0 -49 -31 -81t-79 -32q-50 0 -82.5 32t-32.5 81zM668 1270q0 45 33.5 78.5t78.5 33.5t79 -33.5t34 -78.5q0 -49 -32 -81t-81 -32 q-48 0 -80 32t-32 81z" />
<glyph unicode="&#xfd;" horiz-adv-x="924" d="M-25 920v57q82 -6 127 -8t74 -2q36 0 85.5 2t129.5 8v-57h-16q-43 0 -68.5 -13.5t-25.5 -34.5q0 -31 18 -77q4 -11 6 -17l213 -545q29 84 79 227q120 340 120 390q0 33 -32 49.5t-101 20.5v57q64 -6 101.5 -8t64.5 -2q26 0 62.5 2t98.5 8v-57q-50 -2 -78.5 -26.5 t-50.5 -86.5l-315 -897q-77 -219 -139 -292t-156 -73q-50 0 -81.5 24.5t-31.5 61.5q0 32 23 52t59 20t75.5 -25.5t51.5 -25.5q34 0 75 86.5t99 281.5l-311 756q-1 3 -4 10q-48 116 -152 134zM287 1106l276 301q27 30 54.5 45.5t52.5 15.5q31 0 53.5 -23.5t22.5 -55.5 q0 -27 -17 -47.5t-67 -51.5l-301 -184h-74z" />
<glyph unicode="&#xfe;" horiz-adv-x="1108" d="M-6 1432v57q90 5 173.5 13t164.5 20v-699q54 85 132.5 128.5t176.5 43.5q172 0 278.5 -133t106.5 -350q0 -224 -107.5 -360t-283.5 -136q-95 0 -170.5 38t-132.5 114v-410q0 -96 24 -113.5t152 -23.5v-57q-88 5 -152 7.5t-116 2.5q-34 0 -88.5 -2.5t-147.5 -7.5v57 q114 8 140 28t26 109v1549q0 81 -28 103t-148 22zM332 276q43 -89 112 -138.5t150 -49.5q123 0 187.5 108.5t64.5 315.5q0 200 -64 306t-184 106q-77 0 -144 -53.5t-122 -157.5v-437z" />
<glyph unicode="&#xff;" horiz-adv-x="924" d="M-25 920v57q82 -6 127 -8t74 -2q36 0 85.5 2t129.5 8v-57h-16q-43 0 -68.5 -13.5t-25.5 -34.5q0 -31 18 -77q4 -11 6 -17l213 -545q29 84 79 227q120 340 120 390q0 33 -32 49.5t-101 20.5v57q64 -6 101.5 -8t64.5 -2q26 0 62.5 2t98.5 8v-57q-50 -2 -78.5 -26.5 t-50.5 -86.5l-315 -897q-77 -219 -139 -292t-156 -73q-50 0 -81.5 24.5t-31.5 61.5q0 32 23 52t59 20t75.5 -25.5t51.5 -25.5q34 0 75 86.5t99 281.5l-311 756q-1 3 -4 10q-48 116 -152 134zM168 1270q0 45 34.5 78.5t80.5 33.5q44 0 77 -33.5t33 -78.5q0 -49 -31 -81 t-79 -32q-50 0 -82.5 32t-32.5 81zM533 1270q0 45 33.5 78.5t78.5 33.5t79 -33.5t34 -78.5q0 -49 -32 -81t-81 -32q-48 0 -80 32t-32 81z" />
<glyph unicode="&#x152;" horiz-adv-x="2109" d="M94 719q0 345 199 557.5t520 212.5q25 0 186.5 -9.5t298.5 -9.5h41q13 0 81 1q251 4 480 6q3 -62 7.5 -144t15.5 -241h-51q-20 185 -93 248t-288 63h-229v-594h71q146 0 183 43t45 188h51q-2 -47 -4 -124q-4 -123 -4 -156q0 -53 5 -204q2 -57 3 -89h-51 q-8 177 -45.5 226.5t-182.5 49.5h-71v-677h319q212 0 287.5 71.5t93.5 280.5h51q-11 -106 -18.5 -211t-12.5 -207h-653q-122 0 -296 -10t-226 -10q-327 0 -520 200t-193 539zM307 735q0 -321 134.5 -502.5t373.5 -181.5q150 0 203 48t53 200v938q0 109 -51 148.5t-184 39.5 q-248 0 -388.5 -183.5t-140.5 -506.5z" />
<glyph unicode="&#x153;" horiz-adv-x="1675" d="M80 471q0 238 123 381t323 143q102 0 181.5 -41t144.5 -129q59 81 149 124.5t197 43.5q175 0 279 -107t104 -288v-55l-653 -17v-14q0 -207 79.5 -317.5t229.5 -110.5q110 0 187 53.5t114 155.5l43 -17q-43 -144 -145.5 -219t-257.5 -75q-121 0 -208 42.5t-134 125.5 q-73 -87 -156.5 -127.5t-187.5 -40.5q-188 0 -300 132t-112 357zM262 487q0 -212 64.5 -331t177.5 -119q115 0 181.5 120t66.5 330q0 213 -64.5 333t-177.5 120q-115 0 -181.5 -120.5t-66.5 -332.5zM932 588l504 14v23q0 151 -59.5 233t-168.5 82q-118 0 -191 -93t-85 -259z " />
<glyph unicode="&#x178;" horiz-adv-x="1210" d="M-16 1403v67q99 -5 150.5 -7.5t84.5 -2.5q52 0 115.5 2.5t152.5 7.5v-67q-68 0 -95 -14t-27 -48q0 -10 2 -18t6 -15l305 -542l252 469q18 32 26.5 56.5t8.5 43.5q0 38 -27.5 53t-103.5 15v67q69 -5 114 -7.5t76 -2.5t74.5 2.5t111.5 7.5v-67q-65 -6 -92.5 -21t-52.5 -61 l-352 -631v-457q0 -114 29 -140.5t141 -26.5h24v-66q-123 6 -182 8t-94 2q-43 0 -111 -2t-190 -8v66h24q112 0 141 27.5t29 139.5v437l-352 600q-76 133 -182 133h-6zM311 1772q0 45 34.5 78.5t80.5 33.5q44 0 77 -33.5t33 -78.5q0 -49 -31 -81t-79 -32q-50 0 -82.5 32 t-32.5 81zM676 1772q0 45 33.5 78.5t78.5 33.5t79 -33.5t34 -78.5q0 -49 -32 -81t-81 -32q-48 0 -80 32t-32 81z" />
<glyph unicode="&#x2c6;" d="M229 1104l222 338h122l220 -338h-56l-225 199l-225 -199h-58z" />
<glyph unicode="&#x2dc;" d="M240 1145q19 105 66.5 163t113.5 58q12 0 28 -2.5t39 -7.5l109 -27q13 -3 24 -4.5t21 -1.5q41 0 65.5 21t36.5 67h41q-21 -109 -67 -164t-115 -55q-12 0 -24.5 1.5t-26.5 4.5l-107 27q-28 6 -41 8t-20 2q-40 0 -64.5 -21.5t-37.5 -68.5h-41z" />
<glyph unicode="&#x2000;" horiz-adv-x="986" />
<glyph unicode="&#x2001;" horiz-adv-x="1972" />
<glyph unicode="&#x2002;" horiz-adv-x="986" />
<glyph unicode="&#x2003;" horiz-adv-x="1972" />
<glyph unicode="&#x2004;" horiz-adv-x="657" />
<glyph unicode="&#x2005;" horiz-adv-x="493" />
<glyph unicode="&#x2006;" horiz-adv-x="328" />
<glyph unicode="&#x2007;" horiz-adv-x="328" />
<glyph unicode="&#x2008;" horiz-adv-x="246" />
<glyph unicode="&#x2009;" horiz-adv-x="394" />
<glyph unicode="&#x200a;" horiz-adv-x="109" />
<glyph unicode="&#x2010;" horiz-adv-x="707" d="M94 438v123h498v-123h-498z" />
<glyph unicode="&#x2011;" horiz-adv-x="707" d="M94 438v123h498v-123h-498z" />
<glyph unicode="&#x2012;" horiz-adv-x="707" d="M94 438v123h498v-123h-498z" />
<glyph unicode="&#x2013;" d="M0 461v84h1024v-84h-1024z" />
<glyph unicode="&#x2014;" horiz-adv-x="2048" d="M0 461v84h2048v-84h-2048z" />
<glyph unicode="&#x2018;" horiz-adv-x="522" d="M139 1130q0 98 50 190t145 169l33 -39q-71 -61 -105.5 -121.5t-34.5 -122.5q0 -14 0.5 -20.5t1.5 -13.5h5q28 4 40 4q44 0 70.5 -27t26.5 -72t-28.5 -74.5t-72.5 -29.5q-54 0 -92.5 45.5t-38.5 111.5z" />
<glyph unicode="&#x2019;" horiz-adv-x="522" d="M156 1384q0 46 28.5 75.5t71.5 29.5q55 0 93 -46.5t38 -115.5q0 -95 -50 -186.5t-144 -167.5l-33 39q69 60 103 120.5t34 124.5q0 14 -0.5 21t-2.5 12q-11 -3 -23 -4.5t-21 -1.5q-43 0 -68.5 27.5t-25.5 72.5z" />
<glyph unicode="&#x201a;" horiz-adv-x="522" d="M129 104q0 48 30.5 79.5t76.5 31.5q61 0 99 -50.5t38 -133.5q0 -93 -53 -187t-150 -174l-37 41q75 64 111.5 128t36.5 132q0 15 -0.5 21.5t-2.5 13.5q-12 -3 -24 -4.5t-23 -1.5q-46 0 -74 28.5t-28 75.5z" />
<glyph unicode="&#x201c;" horiz-adv-x="895" d="M139 1130q0 98 50 190t145 169l33 -39q-71 -61 -105.5 -121.5t-34.5 -122.5q0 -14 0.5 -20.5t1.5 -13.5h5q28 4 40 4q44 0 70.5 -27t26.5 -72t-28.5 -74.5t-72.5 -29.5q-54 0 -92.5 45.5t-38.5 111.5zM512 1130q0 97 50.5 189.5t146.5 169.5l32 -39 q-70 -61 -104.5 -121.5t-34.5 -122.5q0 -14 0.5 -20.5t1.5 -13.5h5q28 4 40 4q43 0 69.5 -27t26.5 -72t-28 -74.5t-72 -29.5q-55 0 -94 45.5t-39 111.5z" />
<glyph unicode="&#x201d;" horiz-adv-x="895" d="M156 1384q0 46 28.5 75.5t71.5 29.5q55 0 93 -46.5t38 -115.5q0 -95 -50 -186.5t-144 -167.5l-33 39q69 60 103 120.5t34 124.5q0 14 -0.5 21t-2.5 12q-11 -3 -23 -4.5t-21 -1.5q-43 0 -68.5 27.5t-25.5 72.5zM530 1384q0 46 28 75.5t71 29.5q55 0 94 -46.5t39 -115.5 q0 -95 -50.5 -186.5t-144.5 -167.5l-35 39q70 60 105 122t35 126q0 12 -0.5 18t-2.5 12q-12 -3 -23.5 -4.5t-20.5 -1.5q-43 0 -69 27.5t-26 72.5z" />
<glyph unicode="&#x201e;" horiz-adv-x="895" d="M129 104q0 48 30.5 79.5t76.5 31.5q61 0 99 -50.5t38 -133.5q0 -93 -53 -187t-150 -174l-37 41q75 64 111.5 128t36.5 132q0 15 -0.5 21.5t-2.5 13.5q-12 -3 -24 -4.5t-23 -1.5q-46 0 -74 28.5t-28 75.5zM504 104q0 48 30.5 79.5t75.5 31.5q61 0 99.5 -50.5t38.5 -133.5 q0 -94 -52.5 -187t-150.5 -174l-37 41q75 64 111 128t36 132q0 15 -0.5 22t-1.5 13q-12 -3 -24 -4.5t-23 -1.5q-46 0 -74 28.5t-28 75.5z" />
<glyph unicode="&#x2022;" horiz-adv-x="1208" d="M307 762q0 123 87 209t210 86q122 0 208.5 -86.5t86.5 -208.5t-87.5 -209.5t-209.5 -87.5q-123 0 -209 87t-86 210z" />
<glyph unicode="&#x2026;" horiz-adv-x="2048" d="M247 102q0 51 26 82t69 31q42 0 68 -31t26 -82t-26 -81.5t-68 -30.5q-43 0 -69 30.5t-26 81.5zM929 102q0 51 26 82t69 31q42 0 68 -31t26 -82t-26 -81.5t-68 -30.5q-43 0 -69 30.5t-26 81.5zM1613 102q0 51 26 82t69 31q42 0 68 -31t26 -82t-26 -81.5t-68 -30.5 q-43 0 -69 30.5t-26 81.5z" />
<glyph unicode="&#x202f;" horiz-adv-x="394" />
<glyph unicode="&#x2039;" horiz-adv-x="516" d="M80 483v11q117 88 221.5 192.5t116.5 104.5q5 -1 9.5 -6t4.5 -11q0 -17 -39 -73t-166 -214q127 -157 166 -213t39 -73q0 -6 -5 -10.5t-11 -4.5q-8 0 -113 103.5t-223 193.5z" />
<glyph unicode="&#x203a;" horiz-adv-x="516" d="M61 203q0 17 48.5 84.5t156.5 199.5q-126 158 -165.5 214t-39.5 73q1 7 5 11.5t10 5.5q11 0 116 -104.5t222 -192.5v-11q-118 -89 -222.5 -193t-113.5 -104q-7 0 -12 5t-5 12z" />
<glyph unicode="&#x205f;" horiz-adv-x="493" />
<glyph unicode="&#x20ac;" horiz-adv-x="1139" d="M47 557l23 61l135 1q-1 14 -1.5 33t-0.5 57q0 34 1.5 67.5t4.5 64.5l-154 1l21 61h141q37 252 166.5 399.5t314.5 147.5q98 0 171 -46.5t120 -139.5l15 88h47l-1 -7q-3 -173 -3 -255v-86h-52q-21 192 -94.5 286t-202.5 94q-112 0 -197.5 -130.5t-111.5 -350.5h578 l-21 -61h-560q-4 -44 -4.5 -65.5t-0.5 -41.5q0 -50 0.5 -73.5t1.5 -42.5l485 -1l-22 -61h-459q22 -255 98 -374.5t213 -119.5q118 0 195.5 81t110.5 237h55q-35 -198 -132.5 -298.5t-256.5 -100.5q-188 0 -309 152t-150 423h-164z" />
<glyph unicode="&#x2122;" horiz-adv-x="1683" d="M244 1260l12 178h440l11 -178h-25q-8 79 -40.5 115t-96.5 36h-21v-426q0 -23 12 -37t33 -16l31 -2v-27h-248v27l31 2q21 1 33 15.5t12 37.5v426h-20q-64 0 -97 -36t-41 -115h-26zM788 903v27l34 2q21 2 32.5 16t11.5 37v371q0 23 -12.5 37t-34.5 16l-31 2v27h183 l141 -400l148 400h174v-25l-30 -2q-22 -2 -34 -15.5t-12 -37.5v-373q0 -24 12 -37.5t34 -15.5l30 -2v-27h-236v27l31 2q21 2 33 16t12 37v395l-178 -479h-15l-174 479v-395q0 -23 12.5 -37t34.5 -16l31 -2v-27h-197z" />
<glyph unicode="&#x25fc;" horiz-adv-x="975" d="M0 0v975h975v-975h-975z" />
<glyph unicode="&#xfb01;" horiz-adv-x="1157" d="M18 57q141 8 166 27.5t25 110.5v688h-191v55h31h80q52 0 64 10t16 58q1 22 2 63q6 207 65 299q48 74 128 114t182 40q136 0 225.5 -77.5t89.5 -189.5q0 -46 -22 -73t-60 -27q-34 0 -56 24t-22 62q0 36 23.5 71t23.5 50q0 35 -54.5 69.5t-125.5 34.5q-120 0 -178.5 -79.5 t-58.5 -243.5v-205h241q82 0 169 9.5t182 29.5v-782q0 -98 27 -116.5t142 -21.5v-57q-94 5 -155.5 7.5t-106.5 2.5q-19 0 -56.5 -1.5t-151.5 -8.5v57q93 9 116 29t23 109v589q0 62 -17 80.5t-100 18.5h-313v-688q0 -90 21.5 -108.5t137.5 -29.5v-57q-110 6 -163.5 8t-87.5 2 q-37 0 -96 -2t-164 -8z" />
<glyph unicode="&#xfb02;" horiz-adv-x="1157" d="M18 57q141 8 166 27.5t25 110.5v688h-191v55h35h68q55 0 69 10t19 58q1 23 2 70q5 173 45 257q42 89 129.5 139t200.5 50q43 0 85.5 -10t84.5 -29l207 39v-1327q0 -97 25.5 -115t137.5 -23v-57q-92 5 -152 7.5t-104 2.5q-28 0 -184 -9l-24 -1v57q93 9 116 29t23 109v688 h-430v-688q0 -90 21.5 -108.5t137.5 -29.5v-57q-110 6 -163.5 8t-87.5 2q-37 0 -96 -2t-164 -8zM371 938h430v334q0 13 1 40t1 42q-31 55 -81 83.5t-116 28.5q-118 0 -176.5 -80t-58.5 -243v-205z" />
</font>
</defs>
</svg>
