<?xml version="1.0" standalone="no"?>
<!DOCTYPE svg PUBLIC "-//W3C//DTD SVG 1.1//EN" "http://www.w3.org/Graphics/SVG/1.1/DTD/svg11.dtd" >
<svg xmlns="http://www.w3.org/2000/svg">
<metadata></metadata>
<defs>
<font id="century751_no2_btitalic" horiz-adv-x="1128" >
<font-face units-per-em="2048" ascent="1556" descent="-492" />
<missing-glyph horiz-adv-x="563" />
<glyph horiz-adv-x="0" />
<glyph unicode="&#xd;" horiz-adv-x="563" />
<glyph unicode=" "  horiz-adv-x="563" />
<glyph unicode="&#x09;" horiz-adv-x="563" />
<glyph unicode="&#xa0;" horiz-adv-x="563" />
<glyph unicode="!" horiz-adv-x="702" d="M141 92q0 41 31 72t72 31t71.5 -30.5t30.5 -72.5q0 -44 -29.5 -73t-72.5 -29t-73 29.5t-30 72.5zM246 336q44 290 70.5 612t33.5 358q16 82 46 126t79 57q30 -21 45 -56t15 -85q0 -70 -93 -409.5t-147 -612.5z" />
<glyph unicode="&#x22;" horiz-adv-x="678" d="M90 1362q0 48 22 74t62 26q41 0 63.5 -26t22.5 -74q0 -9 -3 -34q-1 -5 -1 -7l-66 -457h-32l-64 457q-2 17 -3 26t-1 15zM418 1360q0 49 22.5 75.5t63.5 26.5q40 0 62 -26t22 -74q0 -14 -0.5 -23t-1.5 -18l-68 -457h-31l-65 457q0 2 -1 6q-3 22 -3 33z" />
<glyph unicode="#" horiz-adv-x="1575" d="M104 467l43 115h322l100 286h-348l43 117h348l166 471h133l-168 -471h287l168 471h131l-166 -471h307l-40 -117h-310l-100 -286h332l-43 -115h-330l-166 -469h-133l166 469h-287l-166 -469h-131l166 469h-324zM600 582h289l102 286h-291z" />
<glyph unicode="$" d="M86 301q0 71 26 117.5t66 46.5q26 0 43 -19.5t17 -50.5q0 -39 -18 -77.5t-54 -79.5q12 -74 76 -124t166 -65l104 598q-170 65 -249 155.5t-79 219.5q0 187 127 304.5t332 117.5h10l27 149h68l-29 -157q138 -23 214.5 -102.5t76.5 -198.5q0 -59 -20 -93t-54 -34 q-26 0 -41.5 21t-15.5 56q0 31 12 66.5t37 79.5q-25 64 -79 101.5t-138 49.5l-105 -589q175 -62 260.5 -156t85.5 -223q0 -179 -134 -304.5t-331 -125.5h-24l-33 -189h-68l35 197q-147 26 -229 107.5t-82 201.5zM322 1094q0 -99 52.5 -164t168.5 -109l100 568h-6 q-146 0 -230.5 -80t-84.5 -215zM473 45h12q138 0 227 85t89 214q0 97 -53.5 164.5t-172.5 118.5z" />
<glyph unicode="%" horiz-adv-x="1636" d="M109 991q0 214 84 336.5t229 122.5q147 0 228 -115.5t81 -324.5q0 -199 -87 -320t-228 -121q-142 0 -224.5 113.5t-82.5 308.5zM240 979q0 -169 45 -262.5t125 -93.5q89 0 139.5 110.5t50.5 306.5q0 172 -45.5 264.5t-130.5 92.5q-84 0 -134 -112.5t-50 -305.5zM309 -18 l926 1468h90l-926 -1468h-90zM903 406q0 210 85.5 333t230.5 123t226 -115.5t81 -324.5q0 -200 -86 -320t-228 -120q-143 0 -226 113.5t-83 310.5zM1036 391q0 -172 45 -264t129 -92t134.5 112t50.5 306q0 172 -45.5 264t-128.5 92q-86 0 -135.5 -111t-49.5 -307z" />
<glyph unicode="&#x26;" horiz-adv-x="1475" d="M76 412q0 151 88.5 259.5t259.5 166.5q-105 51 -157 123.5t-52 168.5q0 152 115 255.5t286 103.5q159 0 260 -71t101 -177q0 -35 -14.5 -54.5t-40.5 -19.5q-40 0 -60 41t-20 119q0 51 -44.5 77t-133.5 26q-131 0 -207 -85t-76 -231q0 -114 52 -184.5t157 -98.5l-27 -53 q-18 4 -37.5 10.5t-46.5 18.5q-105 -33 -169 -134.5t-64 -236.5q0 -163 104.5 -266.5t272.5 -103.5q190 0 299.5 102t109.5 278q0 58 -13.5 114t-42.5 116q-31 3 -55.5 4.5t-39.5 1.5q-77 0 -122 -28t-65 -87q30 -25 46 -55t16 -61q0 -32 -16.5 -52t-43.5 -20 q-33 0 -54 30.5t-21 79.5q0 116 93 188.5t247 72.5q49 0 159 -9.5t170 -9.5q75 0 103.5 17.5t48.5 66.5l31 -14q-28 -97 -56.5 -126.5t-97.5 -29.5q-50 0 -114 3.5t-140 10.5q22 -41 32.5 -86t10.5 -100q0 -216 -151 -353.5t-384 -137.5q-222 0 -359.5 119.5t-137.5 310.5z " />
<glyph unicode="'" horiz-adv-x="348" d="M90 1360q0 50 21.5 76t62.5 26t63.5 -26t22.5 -74q0 -9 -3 -34q-1 -5 -1 -7l-66 -457h-32l-66 457q-1 8 -1.5 16t-0.5 23z" />
<glyph unicode="(" horiz-adv-x="797" d="M180 471q0 337 178.5 615t495.5 434l16 -31q-260 -149 -410.5 -433t-150.5 -626q0 -221 69 -431t212 -425l-27 -23q-185 214 -284 451.5t-99 468.5z" />
<glyph unicode=")" horiz-adv-x="797" d="M-106 -418q260 149 410.5 433t150.5 626q0 222 -68.5 432t-210.5 424l25 23q185 -214 284 -451.5t99 -468.5q0 -337 -178.5 -615t-495.5 -434z" />
<glyph unicode="*" horiz-adv-x="930" d="M193 982.5v12.5q0 52 161 113q43 17 68 27l27 -48q-33 -23 -83 -63q-89 -72 -124 -72q-13 0 -25 5.5t-22 14.5q-2 6 -2 10.5zM193 1294q0 9 0.5 14t1.5 9q10 11 21.5 15.5t25.5 4.5q37 0 125 -73q50 -41 82 -64l-27 -45q-25 10 -68 26q-161 62 -161 113zM440 883 q0 19 10.5 84.5t16.5 109.5h53q6 -46 16.5 -112t10.5 -82q0 -34 -13.5 -55t-39.5 -27q-27 6 -40.5 26.5t-13.5 55.5zM440 1407q0 35 13.5 55.5t40.5 26.5q26 -6 39.5 -26.5t13.5 -55.5q0 -16 -10.5 -82.5t-16.5 -113.5h-53q-5 42 -16 110t-11 86zM537 1090l26 45 q33 -14 88 -35q142 -55 142 -105q0 -6 -0.5 -10.5t-2.5 -12.5q-12 -10 -23 -15t-24 -5q-36 0 -145 88q-39 32 -61 50zM537 1200q28 21 74 59q95 78 132 78q14 0 25.5 -5t22.5 -16q1 -6 1.5 -11t0.5 -11q0 -49 -149 -106q-51 -21 -81 -33z" />
<glyph unicode="+" horiz-adv-x="1706" d="M254 553v117h541v551h118v-551h539v-117h-539v-553h-118v553h-541z" />
<glyph unicode="," horiz-adv-x="563" d="M-16 -291q122 56 189 121.5t67 128.5q-1 21 -5.5 31t-13.5 10q-3 0 -21 -5t-32 -5q-33 0 -55.5 25.5t-22.5 64.5q0 52 31 83.5t82 31.5q57 0 92 -43.5t35 -114.5q0 -123 -83.5 -219.5t-242.5 -157.5z" />
<glyph unicode="-" horiz-adv-x="707" d="M63 438l23 123h481l-22 -123h-482z" />
<glyph unicode="." horiz-adv-x="563" d="M100 92q0 41 31 72t72 31t71.5 -30.5t30.5 -72.5q0 -44 -29.5 -73t-72.5 -29t-73 29.5t-30 72.5z" />
<glyph unicode="/" horiz-adv-x="606" d="M-154 -190l748 1679h98l-747 -1679h-99z" />
<glyph unicode="0" d="M74 522q0 412 165 670t418 258q182 0 289 -145t107 -394q0 -414 -164 -671.5t-418 -257.5q-181 0 -289 146t-108 394zM248 483q0 -218 60 -330t177 -112q167 0 281.5 253.5t114.5 641.5q0 223 -59.5 338t-174.5 115q-172 0 -285.5 -254t-113.5 -652z" />
<glyph unicode="1" d="M182 0l11 61h12q185 0 232 254l1 8l135 767q7 31 10 62t3 60q0 37 -14 52.5t-46 15.5q-8 0 -24.5 -3.5t-36.5 -8.5l-131 -39l-15 51q112 33 226.5 74t232.5 90l-203 -1141q-8 -52 -12 -84.5t-4 -52.5q0 -60 28.5 -82.5t108.5 -22.5h29l-8 -61q-109 6 -169.5 8t-101.5 2 q-37 0 -95.5 -2t-168.5 -8z" />
<glyph unicode="2" d="M20 35q132 162 375 362q42 35 62 52q199 167 279.5 300t80.5 283q0 151 -83.5 241.5t-221.5 90.5q-135 0 -225 -83t-90 -204q0 -22 3.5 -45t10.5 -47q68 -9 105.5 -40.5t37.5 -78.5q0 -33 -19.5 -53t-51.5 -20q-63 0 -109.5 74t-46.5 182q0 175 120 289t308 114 q194 0 312 -116.5t118 -309.5q0 -143 -61 -258.5t-193 -218.5q-26 -21 -247.5 -170t-348.5 -299q82 44 147 65t119 21q49 0 161.5 -19.5t172.5 -19.5q75 0 118.5 40.5t84.5 158.5l45 -13q-54 -220 -99.5 -275.5t-144.5 -55.5q-94 0 -260 28.5t-231 28.5q-51 0 -98.5 -13 t-98.5 -40z" />
<glyph unicode="3" d="M59 311q0 72 31.5 119t77.5 47q28 0 43.5 -18.5t15.5 -50.5q0 -38 -24 -75t-70 -71q19 -94 104 -152.5t205 -58.5q160 0 257.5 101.5t97.5 267.5q0 125 -73 191.5t-210 66.5q-24 0 -77 -4h-5l25 71q176 19 277.5 116.5t101.5 248.5q0 124 -77.5 201.5t-201.5 77.5 q-116 0 -195 -74t-79 -182v-19q64 -2 100.5 -27.5t36.5 -68.5q0 -38 -19 -57t-55 -19q-60 0 -99.5 47.5t-39.5 120.5q0 149 110 245.5t283 96.5q174 0 281.5 -93.5t107.5 -244.5q0 -149 -102.5 -250.5t-294.5 -142.5q179 -9 272.5 -89t93.5 -224q0 -188 -135 -307t-346 -119 q-187 0 -302.5 91.5t-115.5 237.5z" />
<glyph unicode="4" d="M57 420v53q205 262 419.5 507.5t441.5 479.5l55 -59q-250 -230 -450.5 -450.5t-336.5 -413.5h514l97 614l141 31l-102 -645l153 4l-51 -121h-121l-24 -180q-4 -27 -6.5 -51.5t-2.5 -34.5q0 -47 28 -71t83 -24q4 0 12.5 1t14.5 1l-11 -61q-100 6 -156.5 8t-95.5 2 q-35 0 -89 -2t-156 -8l10 61q129 0 175.5 39.5t70.5 223.5l12 96h-625z" />
<glyph unicode="5" d="M84 264q0 69 22 108.5t60 39.5q25 0 41 -19t16 -49q0 -38 -14.5 -72t-46.5 -67q14 -67 82.5 -109.5t165.5 -42.5q163 0 269.5 121.5t106.5 310.5q0 146 -76 230t-208 84q-61 0 -117.5 -21.5t-116.5 -66.5l-53 37l123 696q169 -39 306 -61.5t198 -22.5q38 0 65.5 12 t65.5 47l33 -28q-63 -86 -115 -123t-109 -37q-73 0 -172 13t-227 40l-94 -502q65 44 131 65t135 21q184 0 289.5 -103.5t105.5 -285.5q0 -206 -148 -351.5t-362 -145.5q-159 0 -257.5 78.5t-98.5 203.5z" />
<glyph unicode="6" d="M92 553q0 384 177 641.5t436 257.5q151 0 246.5 -85.5t95.5 -219.5q0 -70 -24.5 -112t-64.5 -42q-28 0 -43.5 18.5t-15.5 51.5q0 43 19.5 82t52.5 63q-22 87 -84 132.5t-158 45.5q-175 0 -299.5 -186.5t-161.5 -511.5q81 114 172 167.5t203 53.5q160 0 260.5 -108.5 t100.5 -284.5q0 -227 -136 -380.5t-336 -153.5q-197 0 -318.5 156.5t-121.5 414.5zM264 473q0 -194 75.5 -313t197.5 -119q129 0 219 137.5t90 343.5q0 146 -61.5 224.5t-174.5 78.5q-94 0 -180.5 -57.5t-161.5 -169.5q-2 -29 -3 -57.5t-1 -67.5z" />
<glyph unicode="7" d="M139 1090q32 81 61.5 168t63.5 200l41 -8l-49 -170q57 92 102.5 126t106.5 34q86 0 227.5 -22.5t194.5 -22.5q65 0 108 14t68 43l39 -33q-86 -166 -283.5 -496.5t-247.5 -488.5q-40 -131 -66 -300t-54 -169q-9 0 -21 6.5t-22 16.5l-48 45q-13 13 -19.5 27t-6.5 30 q0 69 58.5 224.5t154.5 316.5q54 91 212.5 328t209.5 370q-43 -32 -90.5 -46.5t-108.5 -14.5q-66 0 -180 16t-160 16q-80 0 -133.5 -48.5t-112.5 -178.5z" />
<glyph unicode="8" d="M68 342q0 145 97.5 251.5t272.5 149.5q-125 73 -179 149t-54 179q0 167 115.5 273t300.5 106q172 0 277.5 -93.5t105.5 -246.5q0 -128 -70.5 -213.5t-224.5 -144.5q130 -54 195 -140.5t65 -205.5q0 -177 -141 -300.5t-345 -123.5q-185 0 -300 100t-115 260zM209 352 q0 -138 79.5 -224.5t207.5 -86.5q133 0 223 92t90 229q0 121 -67 196t-242 144q-149 -43 -220 -128.5t-71 -221.5zM348 1112q0 -102 68.5 -177t226.5 -144q112 30 175 118.5t63 214.5q0 120 -72 192.5t-191 72.5q-120 0 -195 -76.5t-75 -200.5z" />
<glyph unicode="9" d="M63 281q0 59 26.5 97t66.5 38q29 0 44 -19t15 -57t-21.5 -77.5t-56.5 -61.5q39 -76 102.5 -116t145.5 -40q164 0 285 171.5t170 475.5q-76 -95 -174.5 -147.5t-200.5 -52.5q-146 0 -234 103t-88 275q0 251 134 416.5t333 165.5q189 0 301.5 -149.5t112.5 -403.5 q0 -391 -179 -654t-439 -263q-148 0 -245.5 85.5t-97.5 213.5zM297 879q0 -139 63 -220t170 -81q99 0 187 70.5t151 201.5q1 5 2 15q11 90 11 134q0 185 -66.5 288.5t-183.5 103.5q-138 0 -236 -148.5t-98 -363.5z" />
<glyph unicode=":" horiz-adv-x="621" d="M98 92q0 41 30 72t71 31t71.5 -30.5t30.5 -72.5q0 -44 -29.5 -73t-72.5 -29t-72 29t-29 73zM223 766q0 44 29 73t74 29q42 0 72 -30t30 -72q0 -40 -31 -71t-71 -31q-42 0 -72.5 30t-30.5 72z" />
<glyph unicode=";" horiz-adv-x="621" d="M-27 -291q123 56 189.5 121.5t66.5 128.5q0 21 -4.5 31t-13.5 10q-3 0 -21 -5t-32 -5q-34 0 -57 25.5t-23 64.5q0 52 31 83.5t81 31.5q58 0 92.5 -43.5t34.5 -114.5q0 -124 -82.5 -220.5t-240.5 -156.5zM223 766q0 44 29 73t74 29q42 0 72 -30t30 -72q0 -40 -31 -71 t-71 -31q-42 0 -72.5 30t-30.5 72z" />
<glyph unicode="&#x3c;" horiz-adv-x="1706" d="M264 559v103l1178 483v-127l-1000 -408l1000 -405v-129z" />
<glyph unicode="=" horiz-adv-x="1706" d="M254 360v117h1198v-117h-1198zM254 743v117h1198v-117h-1198z" />
<glyph unicode="&#x3e;" horiz-adv-x="1706" d="M264 76v129l1000 405l-1000 408v127l1178 -483v-103z" />
<glyph unicode="?" horiz-adv-x="963" d="M164 1128q0 158 102.5 259.5t261.5 101.5q142 0 228 -88.5t86 -235.5q0 -194 -205 -436q-52 -60 -76 -92q-41 -54 -73 -132.5t-52 -176.5l-53 10q16 116 46.5 202t86.5 169q9 13 26 39q146 217 146 387q0 127 -57 199.5t-156 72.5q-102 0 -165 -57.5t-72 -159.5 q38 -18 57.5 -51t19.5 -78q0 -31 -16.5 -50.5t-42.5 -19.5q-40 0 -66 38.5t-26 98.5zM283 92q0 41 30.5 72t71.5 31t71.5 -30.5t30.5 -72.5q0 -44 -29 -73t-73 -29q-43 0 -72.5 29.5t-29.5 72.5z" />
<glyph unicode="@" horiz-adv-x="2019" d="M145 537q0 204 86 381t250 313q131 110 291 165.5t344 55.5q347 0 553.5 -187t206.5 -499q0 -157 -58 -297t-163 -236q-57 -52 -123.5 -80t-134.5 -28q-97 0 -149 52.5t-58 158.5q-62 -106 -139 -158.5t-170 -52.5q-125 0 -201 92t-76 244q0 108 49 216t138 193 q65 64 144 100t155 36q87 0 143 -49.5t78 -145.5l53 180h143l-170 -610q0 -2 -1 -5q-17 -59 -17 -104q0 -47 25.5 -74.5t68.5 -27.5q34 0 79 17.5t85 48.5q122 90 187 231t65 315q0 140 -50 252t-153 203q-90 79 -216 122.5t-267 43.5q-187 0 -341.5 -58.5t-275.5 -175.5 q-130 -126 -197 -293.5t-67 -369.5q0 -175 57 -304.5t181 -234.5q114 -97 261 -146.5t320 -49.5q163 0 317.5 52t295.5 154l30 -36q-148 -110 -313 -166t-342 -56q-187 0 -342 46.5t-274 138.5q-151 113 -229.5 274.5t-78.5 358.5zM750 375q0 -93 40.5 -147t108.5 -54 q66 0 126 44.5t116 133.5q57 94 91 202.5t34 197.5q0 93 -47.5 153t-120.5 60q-54 0 -99 -31t-92 -100q-72 -108 -114.5 -234t-42.5 -225z" />
<glyph unicode="A" horiz-adv-x="1262" d="M-96 0v67q63 4 105 40.5t110 177.5l485 1009q32 37 63 83t62 104l68 16l194 -1208q2 -11 5 -31q29 -181 178 -190v-68q-103 6 -153.5 8t-80.5 2q-44 0 -103.5 -2t-156.5 -8v67q89 6 115 26.5t26 80.5q0 14 -5 53q-2 15 -3 23l-45 313h-434l-156 -330q-13 -27 -20.5 -56 t-7.5 -48q0 -33 27 -46.5t106 -15.5l-1 -67q-81 6 -125.5 8t-72.5 2q-20 0 -55.5 -2t-124.5 -8zM360 631h400l-94 653z" />
<glyph unicode="B" horiz-adv-x="1284" d="M18 0v65q83 3 115.5 27.5t46.5 108.5l168 1011q7 41 10.5 72t3.5 41q0 38 -27 55.5t-110 26.5v66h195h295q209 0 313.5 -86.5t104.5 -260.5q0 -173 -110.5 -272.5t-315.5 -110.5q189 -29 288 -120t99 -236q0 -192 -136.5 -295.5t-390.5 -103.5q-58 0 -194.5 6t-214.5 6 h-140zM328 68q51 -4 98 -6.5t88 -2.5q197 0 297 91.5t100 271.5q0 143 -85.5 214t-260.5 71h-131zM446 774q12 0 35 -1q63 -3 84 -3q209 0 302.5 89t93.5 286q0 136 -69.5 199t-217.5 63q-15 0 -67 -2q-35 -1 -56 -2z" />
<glyph unicode="C" horiz-adv-x="1298" d="M74 608q0 386 208.5 633.5t532.5 247.5q114 0 214.5 -43.5t178.5 -126.5l33 80h49q-15 -92 -31.5 -200t-37.5 -259h-54q4 36 6.5 67.5t2.5 55.5q0 161 -93.5 257.5t-248.5 96.5q-255 0 -409.5 -230.5t-154.5 -608.5q0 -241 110 -372.5t308 -131.5q154 0 264.5 76.5 t190.5 238.5l47 -20q-83 -192 -220 -289.5t-323 -97.5q-262 0 -417.5 170t-155.5 456z" />
<glyph unicode="D" horiz-adv-x="1436" d="M18 0v65q83 3 115.5 27.5t46.5 108.5l168 1011q7 41 10.5 72t3.5 41q0 39 -28.5 56t-107.5 22l-1 67h381q203 0 297 -16t168 -53q137 -66 214 -213t77 -344q0 -216 -82.5 -404t-224.5 -297q-101 -77 -224 -110t-393 -33h-20h-400zM330 66h102q194 0 284 19t158 65 q131 85 207 279t76 448q0 283 -105 404.5t-354 121.5h-145z" />
<glyph unicode="E" horiz-adv-x="1346" d="M18 0v65q83 3 115.5 27.5t46.5 108.5l168 1011q7 41 10.5 72t3.5 41q0 39 -28.5 56t-107.5 22l-1 67h994l-13 -397h-53q1 18 1.5 34t0.5 32q0 150 -55.5 207t-214.5 57h-334l-102 -610h92q191 0 244.5 44.5t72.5 176.5h51q-25 -125 -45 -259t-37 -280h-50q2 37 3.5 66 t1.5 47q0 84 -32 110.5t-146 26.5h-168l-108 -659h362q132 0 191 14t100 47q42 36 73.5 96t73.5 195h54q-23 -100 -44.5 -204.5t-41.5 -213.5h-1078z" />
<glyph unicode="F" horiz-adv-x="1186" d="M18 65q83 3 115.5 27.5t46.5 108.5l168 1011q7 41 10.5 72t3.5 41q0 39 -28.5 56t-107.5 22l-1 67h936l-12 -397h-53q1 19 1.5 35t0.5 31q0 150 -55.5 207t-215.5 57h-276l-102 -623h92q190 0 242.5 42t70.5 163h51q-22 -115 -41.5 -243.5t-36.5 -278.5h-52q0 14 3 41 q4 55 4 71q0 84 -33 111t-147 27h-166l-75 -456q-7 -37 -11 -69t-4 -45q0 -40 33.5 -58.5t103.5 -18.5h43v-66q-97 5 -161.5 7.5t-110.5 2.5q-23 0 -65 -1.5t-170 -8.5z" />
<glyph unicode="G" horiz-adv-x="1442" d="M66 588q0 389 220 645t554 256q139 0 246 -49t188 -150l35 78h43q-15 -106 -31 -222.5t-37 -260.5h-49q1 12 1.5 26t0.5 41q0 223 -100.5 344t-286.5 121q-260 0 -421 -235.5t-161 -622.5q0 -240 109.5 -374t306.5 -134q76 0 149 23t148 69l33 219q2 11 3 23t1 33 q0 47 -28.5 63.5t-149.5 18.5v67q94 -5 149 -7.5t92 -2.5q47 0 112.5 2.5t157.5 7.5l1 -67q-96 -6 -125 -29t-47 -133l-58 -338h-47l-8 104q-102 -62 -205 -92t-215 -30q-275 0 -428 159.5t-153 446.5z" />
<glyph unicode="H" horiz-adv-x="1593" d="M18 0v65q83 3 115.5 27.5t46.5 108.5l168 1011q7 41 10.5 72t3.5 41q0 39 -28.5 56t-107.5 22l-1 67q91 -5 144 -7.5t86 -2.5q41 0 99 2.5t148 7.5v-67q-100 -5 -130.5 -27.5t-45.5 -105.5l-75 -473h716l68 415q7 42 10.5 72t3.5 41q0 39 -28.5 56t-108.5 22v67 q85 -5 138 -7.5t89 -2.5q39 0 94.5 2.5t141.5 7.5v-67q-83 -3 -115.5 -26.5t-46.5 -106.5l-166 -1014q-3 -19 -7 -48q-9 -58 -9 -65q0 -38 28.5 -55t110.5 -23v-65q-98 6 -148.5 8t-80.5 2q-36 0 -91.5 -2t-158.5 -8v66q99 4 130.5 27t45.5 108l88 528h-715l-79 -472 q-7 -37 -11 -69t-4 -45q0 -38 28 -55t109 -23v-65q-92 6 -144 8t-85 2t-86 -2t-150 -8z" />
<glyph unicode="I" horiz-adv-x="707" d="M18 0v65q83 3 115.5 27.5t46.5 108.5l168 1011q7 41 10.5 72t3.5 41q0 39 -28.5 56t-107.5 22l-1 67q84 -5 138.5 -7.5t91.5 -2.5t92 2.5t141 7.5v-67q-83 -3 -115 -26.5t-47 -106.5l-166 -1014q-6 -43 -10 -74t-4 -39q0 -38 28 -55t109 -23v-65q-92 6 -144 8t-85 2 t-86 -2t-150 -8z" />
<glyph unicode="J" horiz-adv-x="778" d="M-195 -106q0 36 21 58.5t53 22.5q43 0 73 -35t30 -90q0 -15 -1 -25.5t-4 -21.5q15 -4 29 -6t27 -2q82 0 129.5 75.5t79.5 264.5l176 1077q6 41 10 72t4 41q0 40 -33 59t-104 19h-53v67q91 -5 159 -7.5t123 -2.5q35 0 91.5 2.5t158.5 7.5v-67q-100 -5 -130.5 -28 t-45.5 -111l-135 -832q-43 -264 -76.5 -369t-83.5 -172q-56 -74 -130.5 -113.5t-158.5 -39.5q-89 0 -149 45.5t-60 110.5z" />
<glyph unicode="K" horiz-adv-x="1298" d="M18 0v65q83 3 115.5 27.5t46.5 108.5l168 1011q7 41 10.5 72t3.5 41q0 39 -28.5 56t-107.5 22l-1 67q84 -5 138.5 -7.5t91.5 -2.5t92 2.5t141 7.5v-67q-83 -3 -115 -26.5t-47 -106.5l-96 -582q250 229 416 421t166 241q0 23 -20.5 35.5t-65.5 17.5v67q9 0 28 -1 q112 -7 160 -7q35 0 136 6q32 2 48 2v-67h-10q-96 0 -207 -135l-2 -3q-108 -126 -212.5 -238.5t-209.5 -213.5q178 -244 361 -567q30 -54 43 -76q35 -60 74.5 -81.5t115.5 -23.5v-65q-80 3 -138.5 4.5t-92.5 1.5q-41 0 -105.5 -1.5t-152.5 -4.5v66q66 0 88 11.5t22 43.5 q0 39 -50 133t-158 258l-127 188l-121 -98l-56 -346q-6 -41 -10 -72.5t-4 -40.5q0 -38 28 -55t109 -23v-65q-92 6 -144 8t-85 2t-86 -2t-150 -8z" />
<glyph unicode="L" horiz-adv-x="1219" d="M18 0v65q83 3 115.5 27.5t46.5 108.5l168 1011q7 41 10.5 72t3.5 41q0 39 -28.5 56t-107.5 22l-1 67q91 -5 144 -7.5t86 -2.5q51 0 114.5 2.5t147.5 7.5l-1 -67q-109 -3 -142.5 -26t-47.5 -107l-198 -1204h319q132 0 191 14t100 47q49 40 83 110.5t66 198.5h54 q-22 -106 -43.5 -215t-42.5 -221h-1037z" />
<glyph unicode="M" horiz-adv-x="1741" d="M-12 0v66h8q129 0 172 198q2 13 4 21l197 938q6 31 10 61t4 47q0 36 -31.5 51t-125.5 21l-1 67q80 -5 122.5 -7.5t70.5 -2.5q24 0 63.5 2.5t120.5 7.5l191 -1134l579 1134q31 -1 82.5 -5.5t73.5 -4.5q24 0 78 4.5t84 5.5l-1 -67q-8 1 -15.5 1.5t-18.5 0.5 q-45 0 -66.5 -28.5t-38.5 -131.5l-149 -997q-4 -26 -6 -51t-2 -50q0 -49 27 -65t122 -16v-66q-70 4 -131.5 6t-105.5 2q-55 0 -120 -2t-134 -6v66h10q86 0 117.5 33t54.5 177l164 1090l-678 -1309l-45 -34l-219 1325l-215 -1116q-4 -19 -8 -44q-7 -34 -7 -41q0 -45 32 -63 t116 -18v-66q-56 4 -106 6t-89 2q-38 0 -86.5 -2t-103.5 -6z" />
<glyph unicode="N" horiz-adv-x="1532" d="M12 0v66h6q119 0 159 218q2 13 3 19l162 924q4 20 6 35t2 20q0 57 -52.5 89t-147.5 32h-9v67q55 -5 92 -7.5t64 -2.5q28 0 67 2.5t97 7.5l688 -1175l143 827q9 51 14 96.5t5 71.5q0 60 -35 85.5t-121 27.5v67q71 -5 118.5 -7.5t82.5 -2.5q26 0 69 2.5t117 7.5v-67h-6 q-73 0 -104 -35t-60 -203l-203 -1153l-39 -22l-718 1237l-152 -879q-9 -51 -13.5 -96.5t-4.5 -73.5q0 -60 35 -85.5t120 -27.5v-65q-88 6 -130.5 8t-69.5 2q-21 0 -58 -2t-127 -8z" />
<glyph unicode="O" horiz-adv-x="1493" d="M78 643q0 154 42.5 291.5t125.5 249.5q109 149 258.5 225t335.5 76q253 0 416 -184.5t163 -475.5q0 -146 -42 -283.5t-124 -254.5q-105 -151 -252 -231.5t-319 -80.5q-270 0 -437 184t-167 484zM272 553q0 -236 106.5 -374t287.5 -138q111 0 205.5 55.5t168.5 165.5 q86 123 134.5 295.5t48.5 353.5q0 231 -108 368.5t-288 137.5q-101 0 -193.5 -48.5t-158.5 -137.5q-95 -132 -149 -310.5t-54 -367.5z" />
<glyph unicode="P" horiz-adv-x="1214" d="M18 65q83 3 115.5 27.5t46.5 108.5l168 1011q7 41 10.5 72t3.5 41q0 39 -27.5 56t-108.5 24l-1 67q59 -3 100.5 -4.5t69.5 -1.5q39 0 133 3.5t148 3.5q236 0 362.5 -105t126.5 -299q0 -217 -144.5 -325.5t-434.5 -108.5q-39 0 -140 7q-14 1 -20 1l-66 -387 q-6 -37 -10 -69t-4 -44q0 -44 37.5 -60.5t148.5 -16.5v-66q-104 6 -168 8t-110 2q-23 0 -65 -1.5t-170 -8.5zM434 709q15 -1 40 -2q60 -2 79 -2q228 0 328 92t100 299q0 164 -83.5 236.5t-272.5 72.5q-29 0 -44 -0.5t-28 -1.5z" />
<glyph unicode="Q" horiz-adv-x="1493" d="M78 643q0 154 42.5 291.5t125.5 249.5q105 145 254 223t321 78q268 0 433 -181t165 -477q0 -268 -129.5 -486.5t-349.5 -317.5q25 -103 80 -150t151 -47q62 0 115.5 17t110.5 55v-60q-66 -47 -141.5 -72.5t-149.5 -25.5q-136 0 -222 62.5t-108 176.5q-23 -1 -45.5 -1.5 t-60.5 -0.5q-261 0 -426.5 185t-165.5 481zM270 551q0 -87 16 -156t50 -135q72 37 144 55.5t145 18.5q117 0 192 -54.5t105 -160.5q137 105 219 320.5t82 475.5q0 228 -108.5 365t-287.5 137q-122 0 -224.5 -66.5t-178.5 -195.5q-72 -122 -113 -282t-41 -322zM354 213 q63 -88 134 -128t163 -40q25 0 54 3t63 9q-11 100 -71 152.5t-165 52.5q-48 0 -91 -12t-87 -37z" />
<glyph unicode="R" horiz-adv-x="1360" d="M18 0v65q83 3 115.5 27.5t46.5 108.5l168 1011q7 41 10.5 72t3.5 41q0 37 -25.5 55.5t-111.5 34.5v58q61 -5 114 -7t95 -2q66 0 165 4.5t132 4.5q227 0 346 -91t119 -264q0 -167 -115 -261.5t-340 -111.5q149 -34 212 -109t63 -218q0 -37 -6 -113.5t-6 -116.5 q0 -52 27 -84t71 -32q38 0 71.5 28.5t67.5 89.5l39 -20q-49 -97 -112.5 -142.5t-149.5 -45.5q-99 0 -150 54t-51 161q0 53 15.5 154.5t15.5 150.5q0 121 -68 168t-254 47q-35 0 -53.5 -0.5t-36.5 -2.5l-76 -458q-6 -43 -10 -74t-4 -39q0 -38 28 -55t109 -23v-65 q-92 6 -144 8t-85 2t-86 -2t-150 -8zM446 780h6q84 -4 126 -4q207 0 320.5 96.5t113.5 272.5q0 135 -75 202.5t-224 67.5q-27 0 -63 -2t-99 -8z" />
<glyph unicode="S" horiz-adv-x="1180" d="M84 63q18 106 32 217.5t24 225.5h53q-1 -2 -1 -6q-4 -48 -4 -70q0 -183 92 -284t257 -101q131 0 209.5 78t78.5 211q0 97 -56.5 170t-270.5 205q-194 119 -252 196.5t-58 181.5q0 179 123 290.5t324 111.5q92 0 179 -29.5t171 -89.5l21 57h45q-19 -93 -33.5 -195.5 t-24.5 -213.5h-47v26q0 195 -72 286t-227 91q-130 0 -208.5 -72.5t-78.5 -193.5q0 -136 270 -306l27 -18q208 -129 276 -219t68 -206q0 -179 -130.5 -302.5t-323.5 -123.5q-110 0 -209 40t-184 119l-27 -76h-43z" />
<glyph unicode="T" horiz-adv-x="1331" d="M70 1094q16 64 49 192t49 193q37 -5 78.5 -7t115.5 -2h68h721q56 0 109.5 2.5t107.5 6.5v-13q-8 -266 -8 -391h-49v29q0 164 -59 231.5t-201 67.5h-203l-188 -1146q-8 -41 -12.5 -73.5t-4.5 -40.5q0 -40 33.5 -58.5t103.5 -18.5h35v-66q-113 6 -169.5 8t-92.5 2 q-37 0 -97 -2t-167 -8v66h28q79 0 113 24.5t49 110.5l201 1202h-221q-154 0 -228.5 -69.5t-105.5 -239.5h-55z" />
<glyph unicode="U" horiz-adv-x="1532" d="M203 336q0 48 7.5 113t29.5 184l106 579q7 37 10.5 68.5t3.5 44.5q0 39 -28.5 56t-107.5 22l-1 67q91 -5 144 -7.5t86 -2.5q40 0 99 2.5t150 7.5v-67q-98 -4 -129.5 -26.5t-46.5 -106.5l-116 -682q-17 -93 -24 -150t-7 -98q0 -134 84 -204t244 -70q119 0 208.5 43.5 t143.5 128.5q70 111 116 414q4 27 7 43l80 518q6 40 10 70t4 42q0 42 -33.5 59t-125.5 19l-1 67q70 -5 124.5 -7.5t96.5 -2.5q25 0 62 2t117 8l-1 -67q-81 -3 -113 -26t-46 -107l-117 -699q-54 -327 -189 -458t-409 -131q-202 0 -320 95.5t-118 258.5z" />
<glyph unicode="V" horiz-adv-x="1247" d="M43 1403v67q84 -5 139.5 -7.5t96.5 -2.5q38 0 98.5 2.5t159.5 7.5v-67q-80 0 -111 -18.5t-31 -63.5q0 -20 10 -71q2 -9 3 -13l194 -963l412 895q25 57 39 99.5t14 62.5q0 63 -144 72h-1v67q72 -5 121.5 -7.5t84.5 -2.5q27 0 67 2t122 8v-67q-64 -4 -101.5 -36t-93.5 -150 l-573 -1211l-51 -24l-279 1271q-22 101 -53.5 122.5t-122.5 27.5z" />
<glyph unicode="W" horiz-adv-x="1915" d="M51 1470q84 -5 139.5 -7.5t96.5 -2.5q38 0 98.5 2.5t159.5 7.5v-67q-80 0 -111 -18.5t-31 -63.5q0 -14 8 -57q3 -17 5 -28l172 -962l391 930l-4 49q-6 84 -42.5 114.5t-135.5 35.5v67q83 -5 139.5 -7.5t97.5 -2.5q38 0 96.5 2.5t159.5 7.5v-67q-85 -2 -112 -20t-27 -70 q0 -28 1 -44.5t3 -31.5l125 -944l397 876q26 57 40 99.5t14 62.5q0 63 -144 72h-2v67q73 -5 122 -7.5t85 -2.5q25 0 63 2t123 8v-67q-62 -4 -99 -35t-93 -151l-574 -1211l-51 -24l-162 1099l-464 -1075l-52 -24l-256 1271q-19 97 -50.5 120.5t-124.5 29.5z" />
<glyph unicode="X" horiz-adv-x="1305" d="M-37 0v65q66 3 115 35t125 136l364 493l-215 471q-56 125 -102.5 164t-122.5 39h-6v67q113 -6 163 -8t81 -2q36 0 93 2.5t160 7.5v-67q-71 0 -100 -12.5t-29 -42.5q0 -18 6.5 -40.5t18.5 -45.5l184 -385l279 393q13 18 20 37.5t7 35.5q0 25 -27.5 40t-81.5 20v67 q66 -5 112.5 -7.5t79.5 -2.5q30 0 74.5 2.5t116.5 7.5v-67q-68 -3 -116.5 -34.5t-123.5 -133.5l-311 -422l254 -543q9 -18 23 -50q70 -154 200 -154v-66q-122 7 -167 8.5t-70 1.5q-44 0 -103.5 -2t-156.5 -8v66q69 0 99 12.5t30 42.5q0 16 -6.5 38.5t-18.5 49.5l-215 461 l-332 -471q-14 -20 -21 -38t-7 -32q0 -27 26 -42t84 -21v-66q-83 6 -124.5 8t-67.5 2q-28 0 -70 -2t-121 -8z" />
<glyph unicode="Y" horiz-adv-x="1104" d="M43 1403v67q74 -5 124.5 -7.5t86.5 -2.5q32 0 83 2.5t150 7.5v-67q-69 -6 -92.5 -18t-23.5 -39q0 -12 5 -29.5t19 -52.5l228 -549l317 553q12 21 19.5 43t7.5 37q0 29 -27.5 41t-101.5 14v67q66 -5 109 -7.5t75 -2.5q31 0 76 2.5t114 7.5v-67q-59 -4 -97 -30.5 t-93 -117.5l-383 -639l-61 -360q-7 -37 -11 -69t-4 -44q0 -38 28 -55t109 -23v-65q-94 6 -144 8t-83 2t-86 -2t-149 -8v65q81 3 114 27t47 109l74 430l-258 606q-43 99 -77.5 129t-94.5 37z" />
<glyph unicode="Z" horiz-adv-x="1352" d="M20 0l963 1395h-334q-263 0 -329.5 -55.5t-92.5 -229.5h-51q15 109 23 199.5t10 170.5q106 -4 207.5 -7t197.5 -3h627l-962 -1394h460q212 0 294 71t120 269h55q-24 -117 -42 -222.5t-29 -203.5q-78 2 -196 5q-155 5 -173 5h-748z" />
<glyph unicode="[" horiz-adv-x="635" d="M55 -358l320 1859q34 -12 67 -18t66 -6q40 0 84.5 5.5t101.5 18.5l-10 -51q-38 -14 -81.5 -20.5t-98.5 -6.5h-27l-293 -1704h15q37 0 80.5 -6.5t95.5 -19.5l-9 -51q-44 11 -87 16.5t-89 5.5q-36 0 -69 -5.5t-66 -16.5z" />
<glyph unicode="\" horiz-adv-x="606" d="M49 1489h96l453 -1679h-94z" />
<glyph unicode="]" horiz-adv-x="635" d="M-109 -358l9 51q44 13 89.5 19.5t96.5 6.5h23l292 1704h-14q-37 0 -82 7t-96 20l10 51q45 -11 87.5 -16.5t86.5 -5.5q36 0 69 5.5t66 16.5l-318 -1859q-30 11 -63.5 16.5t-70.5 5.5q-43 0 -88 -5.5t-97 -16.5z" />
<glyph unicode="^" horiz-adv-x="2048" d="M412 897l522 565h178l520 -565h-92l-518 436l-520 -436h-90z" />
<glyph unicode="_" horiz-adv-x="1024" d="M0 -365h1024v-118h-1024v118z" />
<glyph unicode="`" horiz-adv-x="1024" d="M377 1389q0 32 22 54.5t54 22.5q21 0 42 -13t42 -38l245 -309h-80l-266 199q-30 22 -44.5 42.5t-14.5 41.5z" />
<glyph unicode="a" horiz-adv-x="1124" d="M37 256q0 130 43.5 266t120.5 246q76 109 169 168t187 59q74 0 123.5 -30t75.5 -91l30 121h152l-170 -704q-11 -44 -17 -82.5t-6 -63.5q0 -26 21 -48.5t47 -22.5q41 0 83.5 48t84.5 142l47 -18q-50 -127 -127 -195.5t-166 -68.5q-66 0 -99.5 39t-33.5 116q0 29 3.5 64.5 t10.5 74.5q-88 -148 -179 -221t-187 -73q-104 0 -158.5 70t-54.5 204zM199 252q0 -90 29 -134t89 -44q38 0 81 26.5t91 79.5q62 68 110 143.5t56 110.5l74 328q-9 85 -50 133.5t-104 48.5q-66 0 -132 -57.5t-117 -161.5q-59 -117 -93 -246.5t-34 -226.5z" />
<glyph unicode="b" horiz-adv-x="1053" d="M10 10q28 54 46.5 111t35.5 143l199 1002q9 42 12.5 68t3.5 44q0 71 -119 77q-15 1 -22 1l10 55q19 0 51 -1q58 -3 76 -3q30 0 72.5 3t124.5 12l-193 -916q105 183 205.5 271t204.5 88q107 0 170 -81t63 -218q0 -283 -175.5 -483.5t-424.5 -200.5q-56 0 -102 12t-90 39 l-117 -47zM217 121q0 -38 33 -61t88 -23q94 0 172 53.5t139 159.5q63 105 104.5 247t41.5 240q0 77 -30 115.5t-89 38.5q-86 0 -185 -110.5t-206 -325.5l-62 -290q-3 -14 -4.5 -26t-1.5 -18z" />
<glyph unicode="c" horiz-adv-x="915" d="M39 375q0 252 153.5 436t360.5 184q116 0 189 -58t73 -151q0 -40 -17.5 -64t-47.5 -24q-34 0 -52 26.5t-18 74.5q0 19 3 45.5t3 34.5q0 29 -28.5 44t-84.5 15q-149 0 -250.5 -167.5t-101.5 -416.5q0 -142 56 -219.5t159 -77.5q99 0 177 68t126 197l47 -21 q-60 -165 -157 -243t-240 -78q-160 0 -255 107.5t-95 287.5z" />
<glyph unicode="d" horiz-adv-x="1133" d="M39 268q0 122 40.5 244.5t115.5 222.5q76 104 171.5 161.5t190.5 57.5q71 0 119 -26.5t74 -81.5l96 420q8 33 12 62t4 50q0 73 -138 77q-21 1 -32 1l10 55q13 0 37 -1q78 -3 107 -3q36 0 83.5 3.5t125.5 11.5l-285 -1272q-3 -15 -4.5 -33t-1.5 -39q0 -50 20 -79t54 -29 q37 0 79.5 46t100.5 150l43 -22q-66 -136 -141 -199t-170 -63q-65 0 -100.5 42t-35.5 119q0 22 5.5 50.5t19.5 80.5q-99 -156 -186 -224t-185 -68q-107 0 -168 76t-61 210zM211 244q0 -83 33 -128.5t92 -45.5q37 0 76 22t82 68q59 62 104.5 137.5t56.5 122.5l72 305 q-11 84 -49 128t-100 44q-65 0 -128.5 -54t-115.5 -155q-56 -107 -89.5 -231t-33.5 -213z" />
<glyph unicode="e" horiz-adv-x="909" d="M29 305q0 150 61 294.5t168 248.5q74 72 162 109.5t184 37.5q99 0 155 -45.5t56 -126.5q0 -151 -151.5 -235.5t-432.5 -88.5q-15 -71 -22.5 -131t-7.5 -108q0 -101 40.5 -151t123.5 -50q87 0 167.5 61t143.5 175l41 -27q-71 -144 -171.5 -215t-234.5 -71 q-133 0 -207.5 85t-74.5 238zM244 553q219 3 329.5 70.5t110.5 197.5q0 53 -33 85t-88 32q-106 0 -187 -97.5t-132 -287.5z" />
<glyph unicode="f" horiz-adv-x="635" d="M4 -436q90 300 182 874l7 42l63 397h-195l9 61h194q43 288 148.5 436t269.5 148q99 0 163 -53t64 -134q0 -45 -18.5 -69.5t-52.5 -24.5q-29 0 -48.5 23t-19.5 57q0 24 9 54.5t9 37.5q0 20 -26.5 35.5t-63.5 15.5q-107 0 -166.5 -106.5t-111.5 -419.5h223l-10 -61h-221 l-72 -441q-49 -301 -86 -480.5t-80 -324.5z" />
<glyph unicode="g" horiz-adv-x="1028" d="M-47 -252q0 46 19.5 74t52.5 28q28 0 44.5 -20.5t16.5 -54.5q0 -25 -15.5 -56.5t-15.5 -44.5q0 -26 54 -48.5t124 -22.5q154 0 236.5 130.5t165.5 573.5q-97 -153 -184 -222t-183 -69q-105 0 -167 78t-62 213q0 114 43 238.5t119 228.5q77 106 170.5 163.5t185.5 57.5 q66 0 115.5 -26t85.5 -80l18 88h152q-68 -289 -136 -632t-81 -398q-51 -206 -166 -304t-305 -98q-131 0 -209 55.5t-78 147.5zM211 285q0 -83 33 -128.5t92 -45.5q39 0 77 21t81 67q103 109 167 241h1l73 353q-13 65 -55.5 103t-99.5 38q-67 0 -130.5 -53.5t-115.5 -153.5 q-56 -107 -89.5 -230.5t-33.5 -211.5z" />
<glyph unicode="h" horiz-adv-x="1143" d="M53 0l258 1265q9 43 13 69.5t4 43.5q0 71 -120 77q-14 1 -22 1l11 55q18 0 51 -1q57 -3 76 -3q30 0 72.5 3t123.5 12l-172 -828q106 160 198.5 230.5t192.5 70.5q88 0 138.5 -44.5t50.5 -123.5q0 -40 -14 -98.5t-46 -146.5l-120 -338q-14 -35 -20.5 -64.5t-6.5 -50.5 q0 -30 18 -46.5t49 -16.5q45 0 90 46t105 154l43 -22q-66 -137 -140 -200.5t-167 -63.5q-75 0 -117.5 39t-42.5 110q0 29 7 63t20 68l139 387q24 68 35.5 113.5t11.5 68.5q0 46 -19 66t-63 20q-99 0 -228 -155.5t-167 -339.5l-86 -420h-156z" />
<glyph unicode="i" horiz-adv-x="664" d="M25 737q55 126 135 193t174 67q60 0 97.5 -32.5t37.5 -83.5q0 -40 -26 -132l-1 -4l-153 -529q-5 -19 -7.5 -36t-2.5 -30q0 -42 16.5 -62t50.5 -20q46 0 90 44.5t105 153.5l43 -22q-67 -139 -140.5 -201.5t-167.5 -62.5q-72 0 -114.5 40t-42.5 109q0 21 5 48t21 83 l146 498q7 22 10.5 42.5t3.5 37.5q0 31 -15.5 49t-41.5 18q-38 0 -80.5 -45.5t-95.5 -144.5zM322 1262q0 47 28.5 78.5t71.5 31.5q37 0 63.5 -21.5t26.5 -52.5q0 -53 -31.5 -87.5t-79.5 -34.5q-33 0 -56 25t-23 61z" />
<glyph unicode="j" horiz-adv-x="631" d="M-289 -313q0 35 18.5 55t49.5 20q43 0 65.5 -33t22.5 -96q0 -4 -1 -15t-1 -17q13 -6 21.5 -8t17.5 -3q83 0 134.5 84.5t119.5 382.5l168 752q2 8 3 17.5t1 25.5q0 35 -16 53.5t-46 18.5q-53 0 -106 -56t-94 -157l-50 18q58 136 135 202t179 66q72 0 111.5 -35t39.5 -100 q0 -18 -3.5 -45.5t-12.5 -71.5l-150 -694q-53 -250 -161.5 -378t-268.5 -128q-80 0 -128 39t-48 103zM322 1262q0 47 28.5 78.5t71.5 31.5q37 0 63.5 -21.5t26.5 -52.5q0 -53 -31.5 -87.5t-79.5 -34.5q-33 0 -56 25t-23 61z" />
<glyph unicode="k" d="M53 0l258 1265q9 43 13 69.5t4 43.5q-1 71 -121 77q-10 1 -14 1l4 55q18 0 51 -1q57 -3 76 -3q30 0 72.5 3t123.5 12l-203 -990q120 236 234 349.5t231 113.5q68 0 106 -39t38 -108q0 -114 -109.5 -217t-294.5 -158q85 -6 124 -39t61 -123q7 -28 16 -79q25 -138 100 -138 q48 0 92.5 46.5t88.5 144.5l36 -21q-65 -149 -135 -216.5t-160 -67.5q-139 0 -179 304l-1 9q-1 7 -2 19q-16 117 -108 126v60q167 40 255.5 121.5t88.5 195.5q0 51 -21 75.5t-63 24.5q-45 0 -94.5 -35.5t-100.5 -103.5q-95 -129 -169 -273.5t-85 -201.5l-57 -301h-156z" />
<glyph unicode="l" horiz-adv-x="598" d="M70 131q0 23 4 53t18 95l219 989q8 32 12.5 62t4.5 50q0 69 -114 75q-18 1 -28 1l11 57q30 -2 59.5 -3t69.5 -1q39 0 87 3t107 10l-278 -1263q-7 -32 -11 -59.5t-4 -43.5q0 -39 19 -60.5t51 -21.5q42 0 89 48.5t101 149.5l43 -22q-66 -137 -141.5 -202.5t-165.5 -65.5 q-72 0 -112.5 39.5t-40.5 109.5z" />
<glyph unicode="m" horiz-adv-x="1731" d="M-20 752q66 119 148 181t173 62q69 0 105 -35t36 -102q0 -33 -6.5 -77.5t-19.5 -98.5q113 166 206.5 239.5t188.5 73.5q69 0 105 -35.5t36 -103.5q0 -28 -6 -69t-20 -105q115 170 207.5 241.5t193.5 71.5q88 0 138.5 -44.5t50.5 -123.5q0 -37 -14 -93.5t-48 -151.5 l-119 -338q-13 -35 -19.5 -64.5t-6.5 -50.5q0 -30 17 -46.5t48 -16.5q45 0 91.5 47t105.5 153l43 -22q-66 -137 -140 -200.5t-167 -63.5q-76 0 -118 39t-42 110q0 29 7 63t20 68l139 387q22 63 33.5 110t11.5 72q0 47 -18.5 66.5t-61.5 19.5q-99 0 -226 -153t-169 -342 l-92 -420h-156l156 707q8 41 13 74t5 53q0 39 -16 61.5t-43 22.5q-87 0 -211.5 -157t-165.5 -341l-92 -420h-156l156 707q8 41 13 74t5 53q0 39 -15.5 61.5t-43.5 22.5q-50 0 -101.5 -44.5t-118.5 -148.5z" />
<glyph unicode="n" horiz-adv-x="1219" d="M-20 752q66 119 148 181t173 62q69 0 105 -35t36 -102q0 -33 -6.5 -77.5t-19.5 -98.5q115 170 207.5 241.5t193.5 71.5q88 0 138.5 -44.5t50.5 -123.5q0 -40 -14.5 -98.5t-45.5 -146.5l-121 -338q-13 -35 -19.5 -64.5t-6.5 -50.5q0 -30 18 -46.5t49 -16.5q45 0 90 46 t105 154l43 -22q-66 -137 -140 -200.5t-167 -63.5q-76 0 -118 39t-42 110q0 29 7 63t20 68l139 387q24 68 35.5 113.5t11.5 68.5q0 46 -19.5 66t-62.5 20q-99 0 -226 -153t-169 -342l-92 -420h-156l156 707q8 41 13 74t5 53q0 39 -15.5 61.5t-43.5 22.5q-50 0 -101.5 -44.5 t-118.5 -148.5z" />
<glyph unicode="o" horiz-adv-x="1004" d="M39 365q0 257 155 443.5t365 186.5q154 0 245 -97t91 -263q0 -276 -151.5 -464.5t-368.5 -188.5q-157 0 -246.5 101.5t-89.5 281.5zM203 244q0 -97 45 -152t123 -55q67 0 124.5 39t102.5 117q61 102 97 247.5t36 290.5q0 99 -43.5 154t-122.5 55q-66 0 -124.5 -40.5 t-104.5 -117.5q-61 -102 -97 -247.5t-36 -290.5z" />
<glyph unicode="p" horiz-adv-x="1133" d="M-35 -436l10 57h11q94 0 114 102q3 15 5 24l188 960q8 46 12 77t4 52q0 35 -13 50t-48 15q-48 0 -102 -44.5t-111 -131.5l-41 27q67 119 148 181t171 62q69 0 105.5 -34.5t36.5 -100.5q0 -26 -4.5 -62t-14.5 -83q89 150 172.5 215t186.5 65q106 0 166.5 -87.5 t60.5 -241.5q0 -271 -139 -460.5t-332 -189.5q-72 0 -127.5 28.5t-87.5 82.5l-72 -352q-6 -36 -8 -51.5t-2 -26.5q0 -44 23 -59t130 -17l-10 -57q-59 4 -116 6t-109 2q-42 0 -95 -2t-112 -6zM350 211q25 -61 68.5 -93t101.5 -32q59 0 113 36t96 103q55 89 92 227.5t37 258.5 q0 92 -33.5 141t-97.5 49q-77 0 -155 -88t-156 -262z" />
<glyph unicode="q" horiz-adv-x="1028" d="M43 311q0 118 41 240t115 223q77 105 171 163t187 58q75 0 127 -33t84 -102q39 29 69.5 62.5t53.5 72.5h41l-270 -1220q-5 -17 -7 -33.5t-2 -34.5q0 -42 20.5 -61.5t67.5 -24.5l-12 -57q-60 5 -107 7.5t-87 2.5q-33 0 -84.5 -2.5t-140.5 -7.5l10 57q94 2 129 27t51 98 l123 547q-86 -140 -173.5 -208.5t-181.5 -68.5q-104 0 -164.5 79t-60.5 216zM211 285q0 -83 33 -128.5t92 -45.5q39 0 77 21t81 67q60 65 109.5 142t53.5 99l70 324q-8 77 -50 123.5t-102 46.5q-63 0 -127.5 -55t-113.5 -152q-56 -109 -89.5 -231.5t-33.5 -210.5z" />
<glyph unicode="r" horiz-adv-x="834" d="M-20 752q66 119 148 181t173 62q69 0 105 -35t36 -102q0 -33 -6.5 -77.5t-19.5 -98.5q75 158 151 235.5t156 77.5q56 0 89.5 -36t33.5 -97q0 -44 -21.5 -71t-56.5 -27q-37 0 -59.5 24.5t-22.5 65.5q0 5 1 18t1 21q0 10 -5 17.5t-13 7.5q-60 0 -156.5 -150.5 t-140.5 -347.5l-92 -420h-156l156 707q8 41 13 74t5 53q0 39 -15.5 61.5t-43.5 22.5q-50 0 -101.5 -44.5t-118.5 -148.5z" />
<glyph unicode="s" horiz-adv-x="840" d="M18 229q0 46 21 74.5t53 28.5q28 0 46 -20.5t18 -53.5q0 -32 -22.5 -69.5t-22.5 -45.5q0 -35 61 -72.5t139 -37.5q90 0 145.5 50.5t55.5 131.5q0 110 -183 217q-42 25 -65 39q-79 47 -114 104t-35 138q0 121 87.5 201.5t223.5 80.5q123 0 207 -60t84 -147q0 -42 -18 -67 t-48 -25q-28 0 -45.5 21.5t-17.5 56.5q0 20 7.5 44.5t22.5 51.5q-35 40 -80 58t-108 18q-79 0 -130.5 -47t-51.5 -119q0 -105 179 -212l15 -9q141 -84 176 -138t35 -136q0 -132 -93.5 -217.5t-240.5 -85.5q-133 0 -217 69t-84 178z" />
<glyph unicode="t" horiz-adv-x="725" d="M84 872l8 58h166l74 334h143l-67 -334h239l-10 -58h-242l-137 -681l-3 -22.5t-1 -12.5q0 -44 22.5 -70.5t59.5 -26.5q57 0 117.5 63.5t115.5 180.5l37 -22q-61 -150 -141 -224.5t-180 -74.5q-91 0 -139 43.5t-48 126.5q0 17 4.5 45t16.5 78l127 597h-162z" />
<glyph unicode="u" horiz-adv-x="1219" d="M25 731q72 132 150 198t163 66q70 0 110.5 -38.5t40.5 -104.5q0 -28 -6.5 -63t-19.5 -72l-137 -389q-23 -62 -34 -107t-11 -74q0 -46 18.5 -66t60.5 -20q99 0 226.5 153.5t169.5 342.5l92 420h158l-158 -709q-9 -42 -14 -75.5t-5 -51.5q0 -35 15.5 -57.5t38.5 -22.5 q56 0 107 42t118 147l41 -25q-69 -121 -150.5 -183t-171.5 -62q-68 0 -103.5 34.5t-35.5 102.5q0 35 7 80t20 98q-117 -172 -209.5 -243.5t-194.5 -71.5q-88 0 -137 44t-49 123q0 41 13.5 98t45.5 148l119 338q13 35 20 64.5t7 50.5q0 29 -15.5 46t-40.5 17q-42 0 -96 -53.5 t-106 -148.5z" />
<glyph unicode="v" horiz-adv-x="1034" d="M-37 766q61 120 112.5 168.5t114.5 48.5q27 0 95.5 -13.5t109.5 -13.5q29 0 55.5 8t71.5 31h39q-111 -217 -174 -419.5t-63 -329.5q0 -91 32.5 -133.5t102.5 -42.5q87 0 171 86t148 243q32 77 52 157.5t20 115.5q0 15 -32 94.5t-32 140.5q0 42 16 65t44 23q38 0 57 -47 t19 -141q0 -128 -39.5 -268.5t-112.5 -272.5q-78 -139 -174 -211.5t-203 -72.5q-108 0 -164.5 70.5t-56.5 205.5q0 149 75 313.5t232 362.5q-51 -34 -98 -50t-94 -16q-25 0 -73.5 6.5t-70.5 6.5q-40 0 -73.5 -30.5t-73.5 -105.5z" />
<glyph unicode="w" horiz-adv-x="1546" d="M-37 766q58 115 110 162t117 47q27 0 95.5 -9.5t109.5 -9.5q29 0 55.5 8t71.5 31h39q-112 -218 -175.5 -424t-63.5 -333q0 -77 23 -111.5t75 -34.5q102 0 220.5 202.5t201.5 530.5l35 150h131q-76 -275 -111 -446.5t-35 -268.5q0 -82 29 -125t84 -43q69 0 146 79t139 216 q40 90 66 178.5t26 116.5q0 13 -22.5 81t-22.5 116q0 56 15 86t44 30q36 0 53 -29.5t17 -95.5q0 -107 -35.5 -246t-97.5 -276q-81 -175 -189.5 -270.5t-222.5 -95.5q-88 0 -128 55.5t-40 177.5q0 48 5 86.5t15 71.5q-98 -206 -192.5 -298.5t-204.5 -92.5q-85 0 -131.5 59 t-46.5 168q0 156 70 321.5t241 403.5q-51 -34 -98 -50t-94 -16q-25 0 -73.5 6.5t-70.5 6.5q-40 0 -73.5 -30.5t-73.5 -105.5z" />
<glyph unicode="x" horiz-adv-x="1143" d="M0 86q0 33 10 81.5t29 108.5h39q-11 -43 -16 -73.5t-5 -55.5q0 -42 16 -65t46 -23q57 0 136 95.5t196 306.5q-29 282 -63.5 364t-104.5 82q-46 0 -91 -36t-92 -109l-32 18q61 105 141.5 161t167.5 56q100 0 145.5 -86t55.5 -307q108 210 190 300.5t160 90.5 q49 0 74.5 -30.5t25.5 -90.5q0 -24 -1.5 -52t-4.5 -60h-41q2 16 3 31t1 32q0 49 -19 73t-57 24q-51 0 -112.5 -68.5t-194.5 -290.5q8 -41 22 -116q64 -343 156 -343q47 0 91 43.5t85 128.5l35 -20q-58 -139 -130.5 -207.5t-160.5 -68.5q-93 0 -139.5 88.5t-79.5 359.5 q-118 -228 -213.5 -335t-179.5 -107q-43 0 -65.5 25.5t-22.5 74.5z" />
<glyph unicode="y" horiz-adv-x="1139" d="M20 731q64 135 142 200.5t174 65.5q68 0 104.5 -34.5t36.5 -100.5q0 -28 -8 -69.5t-25 -100.5l-61 -211q-6 -22 -19 -64q-47 -157 -47 -212q0 -42 19 -62t57 -20q45 0 98.5 40t114.5 120q54 69 95.5 142.5t48.5 101.5l100 450h154l-166 -770q-87 -403 -193 -532.5 t-303 -129.5q-126 0 -208.5 47t-82.5 115q0 33 18 51.5t50 18.5q43 0 72.5 -39t29.5 -98v-15q20 -11 47 -16.5t64 -5.5q152 0 228.5 132t158.5 627q-100 -166 -208 -256t-208 -90q-69 0 -105 37t-36 107q0 64 50 238l7 24l88 303q9 29 14 61t5 58q0 33 -16.5 49t-49.5 16 q-45 0 -91.5 -46.5t-105.5 -151.5z" />
<glyph unicode="z" horiz-adv-x="924" d="M4 20q117 228 375.5 511.5t325.5 375.5q-43 -33 -85.5 -47t-103.5 -14t-148.5 14t-113.5 14q-41 0 -75 -24t-89 -100l-29 18q70 123 129.5 176t126.5 53q32 0 146.5 -23.5t193.5 -23.5q51 0 77 11t42 36l23 -26q-122 -223 -366 -481t-296 -347q30 27 60.5 39.5t66.5 12.5 q64 0 199 -37t199 -37q52 0 76.5 33.5t30.5 113.5h30v-57q0 -122 -40.5 -176.5t-129.5 -54.5q-66 0 -226 47t-241 47q-45 0 -75.5 -17.5t-53.5 -56.5z" />
<glyph unicode="{" horiz-adv-x="1024" d="M176 606v60q165 15 223 74t58 216v213q0 200 81 273.5t298 73.5h10v-51q-142 -2 -194 -55.5t-52 -209.5v-143q0 -226 -61 -308.5t-226 -113.5q165 -31 226 -113.5t61 -308.5v-143q0 -156 51.5 -208.5t194.5 -54.5v-51h-10q-217 0 -298 73.5t-81 272.5v213q0 158 -59 218 t-222 73z" />
<glyph unicode="|" horiz-adv-x="1024" d="M449 -483v2048h126v-2048h-126z" />
<glyph unicode="}" horiz-adv-x="1024" d="M178 -193q143 2 194.5 54.5t51.5 208.5v143q0 226 61 308.5t226 113.5q-165 31 -226 113.5t-61 308.5v143q0 156 -52 209.5t-194 55.5v51h10q216 0 297.5 -74t81.5 -273v-213q0 -157 58 -216t223 -74v-60q-163 -13 -222 -73t-59 -218v-213q0 -198 -81.5 -272t-297.5 -74 h-10v51z" />
<glyph unicode="~" horiz-adv-x="1706" d="M178 461v133q105 73 202 109t185 36q56 0 116.5 -12.5t174.5 -52.5q12 -4 35 -13q164 -59 254 -59q85 0 176 36.5t209 119.5v-131q-101 -72 -197.5 -108t-189.5 -36q-43 0 -90.5 9t-100.5 26q-30 10 -87 31q-202 72 -302 72q-83 0 -173.5 -37.5t-211.5 -122.5z" />
<glyph unicode="&#xa0;" />
<glyph unicode="&#xa1;" horiz-adv-x="702" d="M139 131q0 69 93 407.5t147 612.5l51 -8q-44 -290 -71 -613t-33 -357q-16 -81 -46.5 -125.5t-78.5 -57.5q-31 21 -46.5 56.5t-15.5 84.5zM330 1384q0 45 29 75t73 30q42 0 72.5 -31t30.5 -74q0 -39 -31.5 -69.5t-71.5 -30.5q-42 0 -72 29.5t-30 70.5z" />
<glyph unicode="&#xa2;" d="M133 377q0 253 151.5 434.5t362.5 181.5q18 0 27 -0.5t16 -1.5l94 242h70l-98 -258q74 -20 113.5 -68.5t39.5 -120.5q0 -40 -17.5 -64t-47.5 -24q-33 0 -52.5 25t-19.5 68q0 15 4 41t12 67q-13 10 -26 16t-27 8l-319 -835q29 -16 57.5 -23.5t56.5 -7.5q98 0 175.5 67.5 t128.5 197.5l47 -21q-61 -164 -158.5 -242.5t-241.5 -78.5q-26 0 -52 3t-52 9l-94 -248h-72l104 272q-92 57 -137 146t-45 215zM301 350q0 -76 15.5 -127t48.5 -86l305 801h-25q-136 0 -240 -174.5t-104 -413.5z" />
<glyph unicode="&#xa3;" d="M-18 80q0 71 61 116.5t160 45.5q17 0 39.5 -2.5t70.5 -9.5q6 46 9.5 92t3.5 88q0 48 -10 169q-2 23 -3 35h-215l25 68h182q-9 63 -13.5 120t-4.5 109q0 253 111.5 397t306.5 144q143 0 229 -87t86 -232q0 -109 -44.5 -179.5t-109.5 -70.5q-32 0 -48.5 15t-16.5 44 q0 49 42 85t107 42q3 28 4.5 46.5t1.5 29.5q0 113 -60.5 177t-166.5 64q-137 0 -211 -84t-74 -241q0 -45 11 -171t12 -208h305l-22 -68h-281q-3 -115 -28 -211.5t-74 -181.5q44 -14 125 -41q221 -74 309 -74q62 0 107.5 23.5t103.5 85.5l28 -20q-78 -117 -148 -165t-157 -48 q-69 0 -163.5 30.5t-247.5 104.5q-50 -67 -106 -101t-116 -34q-56 0 -88 26t-32 72zM23 86q0 -24 21.5 -41.5t49.5 -17.5q49 0 97 28t90 82q-44 20 -76.5 28.5t-63.5 8.5q-47 0 -82.5 -26.5t-35.5 -61.5z" />
<glyph unicode="&#xa4;" d="M20 557l27 61l146 1q3 53 11.5 116.5t18.5 106.5h-155l26 61h144q66 262 206 404.5t336 142.5q95 0 166 -41.5t117 -122.5l33 80h49q-10 -60 -32.5 -166t-35.5 -196h-53q3 33 3.5 49t0.5 30q0 145 -63 224t-183 79q-125 0 -220 -124t-152 -359h567l-27 -61h-553 q-8 -43 -15.5 -105.5t-10.5 -117.5l481 -1l-27 -61h-456v-16q0 -241 68.5 -369.5t201.5 -128.5q104 0 178 58.5t152 211.5l47 -20q-77 -166 -171 -238.5t-222 -72.5q-205 0 -316.5 154t-113.5 421h-173z" />
<glyph unicode="&#xa5;" d="M18 592l11 61h452l-114 269h-293l10 61h256l-96 223q-41 97 -74 126.5t-92 35.5v64q83 -6 125 -8.5t69 -2.5q36 0 86.5 2.5t126.5 7.5v-63q-75 -8 -94.5 -20t-19.5 -39q0 -10 5 -26.5t19 -51.5l221 -533l299 537q14 23 20.5 43.5t6.5 36.5q0 26 -24.5 37.5t-99.5 15.5 l-1 63q70 -5 111 -7.5t69 -2.5q31 0 94.5 4.5t90.5 5.5v-63q-59 -4 -97.5 -31.5t-89.5 -111.5l-141 -242h270l-10 -61h-297l-151 -269h409l-10 -61h-432l-62 -343q-7 -44 -9.5 -67t-2.5 -41q0 -39 25 -55.5t108 -22.5v-63q-86 6 -138.5 8t-90.5 2q-25 0 -67 -2t-130 -8v63 q80 3 112 26t46 106l68 397h-474z" />
<glyph unicode="&#xa6;" horiz-adv-x="1024" d="M449 -350v758h126v-758h-126zM449 674v758h126v-758h-126z" />
<glyph unicode="&#xa7;" horiz-adv-x="958" d="M80 -193q0 57 26.5 92t69.5 35q21 0 35 -16.5t14 -40.5q0 -31 -20.5 -61.5t-61.5 -61.5q16 -50 66.5 -78t124.5 -28q76 0 123 49.5t47 130.5q0 47 -20.5 116t-57.5 146l-145 293q-35 68 -52.5 138.5t-17.5 137.5q0 103 41 185.5t123 140.5q-23 60 -34 109t-11 94 q0 135 79.5 218t206.5 83q98 0 160 -53t62 -136q0 -60 -29.5 -101.5t-73.5 -41.5q-20 0 -34.5 16.5t-14.5 38.5q0 34 21.5 67t62.5 63q-9 44 -50.5 71t-103.5 27q-76 0 -124 -49.5t-48 -128.5q0 -48 21 -116t59 -147l148 -301q35 -73 53 -143.5t18 -132.5q0 -103 -41 -185 t-122 -141q19 -51 28.5 -99t9.5 -95q0 -140 -77 -220.5t-209 -80.5q-114 0 -183 57t-69 149zM309 762q0 -51 23 -126.5t65 -164.5l158 -332q46 34 66 78.5t20 112.5q0 50 -23 129t-63 162l-160 331q-43 -30 -64.5 -78t-21.5 -112z" />
<glyph unicode="&#xa8;" horiz-adv-x="1024" d="M354 1270q0 41 32.5 73.5t74.5 32.5q43 0 75.5 -32t32.5 -74q0 -48 -31 -79.5t-77 -31.5q-44 0 -75.5 32.5t-31.5 78.5zM707 1270q0 41 32.5 73.5t73.5 32.5q44 0 76.5 -32t32.5 -74q0 -48 -31.5 -79.5t-77.5 -31.5q-43 0 -74.5 32.5t-31.5 78.5z" />
<glyph unicode="&#xa9;" horiz-adv-x="1683" d="M139 678q0 140 53 268.5t152 229.5q98 99 228 152.5t272 53.5q137 0 266.5 -53.5t226.5 -150.5q98 -97 152.5 -228.5t54.5 -271.5t-53 -268t-154 -230q-98 -100 -225 -152.5t-270 -52.5t-269 52.5t-227 152.5t-154 227t-53 271zM225 678q0 -125 47 -238.5t136 -201.5 q88 -89 198.5 -135t235.5 -46q126 0 236.5 46t197.5 135q88 90 135 203t47 237t-47.5 240.5t-132.5 201.5q-86 87 -200.5 135t-233.5 48q-123 0 -237.5 -48.5t-200.5 -136.5q-88 -89 -134.5 -202.5t-46.5 -237.5zM426 664q0 186 116 312t285 126q74 0 148 -34t82 -34 q27 0 42 14.5t21 47.5h35l2 -314h-41q-34 137 -104 206t-176 69q-123 0 -185.5 -94.5t-62.5 -278.5q0 -189 67 -285t199 -96q86 0 156 43t127 131l34 -24q-58 -105 -143 -157t-199 -52q-167 0 -285 123t-118 297z" />
<glyph unicode="&#xaa;" horiz-adv-x="844" d="M29 952q0 92 32 186.5t91 172.5q56 75 125.5 116t140.5 41q56 0 93 -20.5t56 -63.5l23 84h115l-130 -493q-7 -30 -11.5 -56.5t-4.5 -44.5t15.5 -34.5t35.5 -16.5q31 0 62.5 34t62.5 99l37 -12q-39 -88 -97 -136t-124 -48q-49 0 -73.5 27t-24.5 81q0 24 2.5 49t7.5 49 q-66 -104 -134 -155t-141 -51q-78 0 -118.5 49t-40.5 143zM150 948q0 -63 21.5 -94t66.5 -31q28 0 60 19t69 57q47 48 83 101t42 76l55 229q-6 59 -37.5 94t-77.5 35q-50 0 -99.5 -40.5t-88.5 -113.5q-44 -81 -69 -172t-25 -160z" />
<glyph unicode="&#xab;" horiz-adv-x="797" d="M27 498q118 81 232 176.5t124 95.5q6 0 11 -4t5 -10q0 -17 -51.5 -78.5t-175.5 -190.5q75 -154 98 -209.5t23 -72.5q0 -6 -4.5 -10.5t-9.5 -4.5q-15 0 -91.5 108.5t-160.5 199.5zM340 498q118 81 232 176.5t124 95.5q7 0 12 -4t5 -10q0 -17 -52 -78.5t-176 -190.5l12 -23 q111 -232 111 -259q0 -6 -5.5 -10.5t-10.5 -4.5q-14 0 -91 108.5t-161 199.5z" />
<glyph unicode="&#xac;" horiz-adv-x="1706" d="M254 741v117h1198v-502h-115v385h-1083z" />
<glyph unicode="&#xad;" horiz-adv-x="707" d="M63 438l23 123h481l-22 -123h-482z" />
<glyph unicode="&#xae;" horiz-adv-x="1683" d="M139 678q0 140 53 268.5t152 229.5q98 99 228 152.5t272 53.5q138 0 268.5 -54t228.5 -152q97 -97 150 -228t53 -272q0 -137 -55.5 -267.5t-157.5 -232.5q-99 -99 -224.5 -150t-270.5 -51q-137 0 -263 52.5t-227 152.5t-154 227t-53 271zM225 678q0 -127 46.5 -239 t136.5 -201q88 -89 198.5 -135t235.5 -46q126 0 236.5 46t197.5 135q88 90 135 203t47 237t-47.5 241.5t-132.5 200.5q-86 87 -200.5 135t-233.5 48q-122 0 -236 -48t-202 -137t-134.5 -202.5t-46.5 -237.5zM469 291v40q72 3 99.5 24.5t27.5 76.5v516q0 55 -26 76t-101 25 v43h393q147 0 232.5 -54.5t85.5 -146.5q0 -76 -69.5 -124t-217.5 -75q93 -29 142 -77.5t71 -133.5q6 -22 11 -63q13 -88 59 -88q32 0 49.5 34t17.5 99h43v-12q0 -88 -40.5 -133.5t-119.5 -45.5q-46 0 -78.5 17t-48.5 49q-18 40 -21 113.5t-9 95.5q-20 68 -70.5 100.5 t-136.5 32.5h-33v-248q0 -54 26.5 -75.5t98.5 -25.5v-40h-385zM729 719q16 -1 32 -1.5t34 -0.5q112 0 173.5 45.5t61.5 128.5q0 73 -53 117.5t-143 44.5q-52 0 -78.5 -18.5t-26.5 -53.5v-262z" />
<glyph unicode="&#xaf;" horiz-adv-x="1024" d="M365 1196l26 129h522l-28 -129h-520z" />
<glyph unicode="&#xb0;" horiz-adv-x="674" d="M55 1171q0 119 82.5 201t200.5 82q117 0 200 -83t83 -200q0 -116 -83.5 -199t-201.5 -83t-199.5 82t-81.5 200zM135 1171q0 -84 59.5 -143t143.5 -59t142.5 59t58.5 143t-58.5 142.5t-142.5 58.5t-143.5 -58.5t-59.5 -142.5z" />
<glyph unicode="&#xb1;" horiz-adv-x="1706" d="M254 41v117h1198v-117h-1198zM254 719v117h541v344h118v-344h539v-117h-539v-344h-118v344h-541z" />
<glyph unicode="&#xb2;" horiz-adv-x="745" d="M14 592q87 98 248 218l39 30q132 101 185 180.5t53 169.5q0 91 -55 146t-146 55q-90 0 -149.5 -50t-59.5 -122q0 -11 2.5 -24.5t7.5 -30.5q45 -7 69.5 -25.5t24.5 -46.5q0 -21 -12.5 -33t-34.5 -12q-41 0 -71.5 44.5t-30.5 108.5q0 106 79 174t204 68q127 0 204.5 -69.5 t77.5 -184.5q0 -87 -40.5 -156.5t-125.5 -130.5q-33 -24 -113 -72q-191 -115 -280 -211q54 28 96 41t78 13q33 0 107 -12.5t114 -12.5q49 0 77 24t56 95l31 -6q-36 -132 -66 -165.5t-96 -33.5q-61 0 -170.5 16.5t-152.5 16.5q-34 0 -65 -7.5t-64 -23.5z" />
<glyph unicode="&#xb3;" horiz-adv-x="745" d="M39 758q0 43 21 71.5t51 28.5q18 0 28.5 -11.5t10.5 -31.5q0 -22 -16.5 -44.5t-45.5 -41.5q12 -57 68 -92t137 -35q105 0 169 61t64 160q0 75 -48.5 115.5t-137.5 40.5q-15 0 -45 -3q-7 -1 -10 -1l16 43q116 12 183 71t67 148q0 74 -51 121t-131 47q-77 0 -130 -44.5 t-53 -109.5v-12q42 0 66 -16t24 -41q0 -22 -12 -33.5t-35 -11.5q-40 0 -66 28t-26 72q0 89 72 147t186 58q115 0 186.5 -56t71.5 -147q0 -89 -67.5 -150t-193.5 -85q117 -5 179 -53t62 -136q0 -111 -89.5 -182.5t-228.5 -71.5q-123 0 -199.5 55t-76.5 142z" />
<glyph unicode="&#xb4;" horiz-adv-x="1024" d="M434 1106l293 295q34 33 62 49t53 16q33 0 55.5 -23t22.5 -59q0 -24 -16.5 -43.5t-59.5 -46.5l-322 -188h-88z" />
<glyph unicode="&#xb5;" horiz-adv-x="1120" d="M-80 -330q0 40 64.5 273.5t105.5 427.5l109 514h147l-104 -492q-6 -30 -9.5 -58.5t-3.5 -53.5q0 -83 42 -129t118 -46q98 0 163.5 68.5t94.5 200.5l111 510h149l-114 -531q-13 -59 -17 -87.5t-4 -49.5q0 -48 26 -78t66 -30q35 0 65.5 18t51.5 51t41 93.5t39 60.5 q12 0 19 -10t7 -27q0 -25 -11 -66.5t-29 -83.5q-38 -82 -95 -122.5t-135 -40.5q-68 0 -108.5 51t-40.5 139v23q-46 -110 -116 -164t-165 -54q-96 0 -152.5 54.5t-70.5 161.5q-27 -136 -52 -339q-34 -272 -112 -272q-37 0 -58.5 23.5t-21.5 64.5z" />
<glyph unicode="&#xb6;" horiz-adv-x="1024" d="M76 1130q0 157 107.5 253t285.5 96h479v-78h-125v-1401h-94v1401h-182v-1401h-96v782q-173 8 -274 102.5t-101 245.5z" />
<glyph unicode="&#xb7;" horiz-adv-x="563" d="M184 717q0 39 31 69.5t72 30.5q39 0 68.5 -30t29.5 -70q0 -43 -28.5 -72t-69.5 -29q-44 0 -73.5 29t-29.5 72z" />
<glyph unicode="&#xb8;" horiz-adv-x="1024" d="M141 -362l29 71q57 -35 117 -54.5t110 -19.5q59 0 90 25t31 72q0 43 -29.5 67.5t-82.5 24.5q-13 0 -32 -2t-57 -8l62 188h49l-37 -114q26 3 44 4t32 2q81 0 127.5 -44t46.5 -118q0 -81 -55 -126.5t-154 -45.5q-72 0 -146.5 20t-144.5 58z" />
<glyph unicode="&#xb9;" horiz-adv-x="745" d="M121 572l6 36h8q123 0 155 153l1 5l88 459q4 21 6 40t2 33q0 22 -9.5 31.5t-29.5 9.5q-7 0 -18.5 -2t-22.5 -6l-86 -22l-10 30q70 18 146 43t157 56l-133 -684q-6 -29 -9 -49t-3 -33q0 -37 19.5 -50.5t72.5 -13.5h18l-6 -36q-56 2 -101 4t-77 2q-29 0 -72.5 -2t-101.5 -4 z" />
<glyph unicode="&#xba;" horiz-adv-x="754" d="M29 1028q0 180 116.5 310t274.5 130q115 0 183.5 -68t68.5 -183q0 -193 -114 -325t-277 -132q-118 0 -185 71.5t-67 196.5zM152 942q0 -67 33.5 -105t93.5 -38q51 0 94 27.5t76 80.5q46 72 73 173.5t27 203.5q0 69 -33 107.5t-92 38.5q-49 0 -92.5 -28.5t-79.5 -82.5 q-46 -72 -73 -174t-27 -203z" />
<glyph unicode="&#xbb;" horiz-adv-x="797" d="M-2 205q0 17 53.5 81t171.5 187q-65 131 -93 197t-28 86q0 6 4.5 10t10.5 4q15 0 93.5 -109t160.5 -198q-118 -81 -233 -177t-126 -96q-6 0 -10 4.5t-4 10.5zM311 205q0 17 52 78t176 190q-72 145 -97.5 204.5t-25.5 78.5q0 6 5 10t11 4q15 0 92.5 -108.5t159.5 -198.5 q-118 -81 -233 -177t-125 -96q-7 0 -11 4.5t-4 10.5z" />
<glyph unicode="&#xbc;" horiz-adv-x="1763" d="M115 629l6 35h8q117 0 147 141v4l84 430q5 15 7 30.5t2 39.5q0 20 -8.5 28.5t-28.5 8.5q-6 -1 -16.5 -2.5t-23.5 -4.5l-81 -22l-10 29q73 19 144.5 42t143.5 50l-127 -639q-6 -36 -8 -51.5t-2 -26.5q0 -33 18 -45t68 -12h19l-5 -35q-55 3 -98 4.5t-73 1.5 q-28 0 -69.5 -1.5t-96.5 -4.5zM369 -18l934 1450h90l-934 -1450h-90zM1090 236v28q125 143 259.5 281t280.5 272l35 -33q-156 -128 -282.5 -251t-213.5 -232h324l61 344l91 17l-66 -361l96 2l-30 -67h-78l-15 -101q-3 -20 -4.5 -32.5t-1.5 -16.5q0 -26 18 -39.5t52 -13.5 q3 0 8.5 1t9.5 1l-8 -35q-50 3 -89.5 4.5t-68.5 1.5q-26 0 -64.5 -1.5t-90.5 -4.5l6 35q83 0 112 22t44 123l8 56h-393z" />
<glyph unicode="&#xbd;" horiz-adv-x="1763" d="M115 629l6 35h8q117 0 147 141v4l84 430q5 15 7 30.5t2 39.5q0 20 -8.5 28.5t-28.5 8.5q-6 -1 -16.5 -2.5t-23.5 -4.5l-81 -22l-10 29q73 19 144.5 42t143.5 50l-127 -639q-6 -36 -8 -51.5t-2 -26.5q0 -33 18 -45t68 -12h19l-5 -35q-55 3 -98 4.5t-73 1.5 q-28 0 -69.5 -1.5t-96.5 -4.5zM369 -18l934 1450h90l-934 -1450h-90zM1065 20q79 86 224 194q35 26 50 38q126 93 177 167.5t51 158.5q0 85 -52 135.5t-139 50.5q-86 0 -143 -46.5t-57 -113.5q0 -11 2 -22t8 -31q43 -5 66.5 -22t23.5 -44q0 -18 -12.5 -29.5t-32.5 -11.5 q-40 0 -69 41.5t-29 102.5q0 97 75.5 161t194.5 64q121 0 195.5 -65t74.5 -173q0 -81 -38 -145.5t-122 -122.5q-16 -11 -155.5 -94.5t-218.5 -167.5q49 24 90 35.5t76 11.5q30 0 101 -10t110 -10q46 0 73.5 22t55.5 88l26 -6q-33 -122 -61.5 -154t-91.5 -32 q-59 0 -163.5 16.5t-146.5 16.5q-31 0 -61 -7.5t-62 -23.5z" />
<glyph unicode="&#xbe;" horiz-adv-x="1763" d="M37 803q0 40 20 66t49 26q18 0 27.5 -10.5t9.5 -28.5q0 -20 -15 -41t-44 -39q13 -53 66 -86t129 -33q101 0 162 57t61 150q0 70 -46 107t-132 37q-21 0 -31 -0.5t-20 -1.5l14 41q111 10 175 65t64 139q0 69 -49 112.5t-127 43.5q-72 0 -122 -41.5t-50 -101.5v-10 q40 -2 63 -17t23 -39q0 -21 -11.5 -31t-35.5 -10q-37 0 -61.5 26.5t-24.5 67.5q0 83 69 137t179 54q109 0 176.5 -52t67.5 -137q0 -84 -64.5 -141t-185.5 -80q114 -5 172.5 -49.5t58.5 -126.5q0 -104 -85 -171t-218 -67q-118 0 -191 51.5t-73 133.5zM369 -18l934 1450h90 l-934 -1450h-90zM1090 236v28q125 143 259.5 281t280.5 272l35 -33q-156 -128 -282.5 -251t-213.5 -232h324l61 344l91 17l-66 -361l96 2l-30 -67h-78l-15 -101q-3 -20 -4.5 -32.5t-1.5 -16.5q0 -26 18 -39.5t52 -13.5q3 0 8.5 1t9.5 1l-8 -35q-50 3 -89.5 4.5t-68.5 1.5 q-26 0 -64.5 -1.5t-90.5 -4.5l6 35q83 0 112 22t44 123l8 56h-393z" />
<glyph unicode="&#xbf;" horiz-adv-x="963" d="M119 311q0 194 203 438q51 61 75 93q42 55 74 134t51 175l53 -10q-15 -113 -45.5 -199t-86.5 -171q-8 -12 -23 -34q-150 -221 -150 -395q0 -130 57.5 -201t161.5 -71q97 0 160.5 59.5t71.5 159.5q-36 16 -57 49t-21 74q0 35 17 55t45 20q39 0 64.5 -38t25.5 -99 q0 -157 -103 -258.5t-262 -101.5q-142 0 -226.5 87t-84.5 234zM471 1384q0 45 29 75t73 30q42 0 72.5 -31t30.5 -74q0 -39 -31 -69.5t-72 -30.5t-71.5 29.5t-30.5 70.5z" />
<glyph unicode="&#xc0;" horiz-adv-x="1262" d="M-96 0v67q63 4 105 40.5t110 177.5l485 1009q32 37 63 83t62 104l68 16l194 -1208q2 -11 5 -31q29 -181 178 -190v-68q-103 6 -153.5 8t-80.5 2q-44 0 -103.5 -2t-156.5 -8v67q89 6 115 26.5t26 80.5q0 14 -5 53q-2 15 -3 23l-45 313h-434l-156 -330q-13 -27 -20.5 -56 t-7.5 -48q0 -33 27 -46.5t106 -15.5l-1 -67q-81 6 -125.5 8t-72.5 2q-20 0 -55.5 -2t-124.5 -8zM360 631h400l-94 653zM543 1891q0 32 22 54.5t54 22.5q21 0 42 -13t42 -38l245 -309h-80l-266 199q-30 22 -44.5 42.5t-14.5 41.5z" />
<glyph unicode="&#xc1;" horiz-adv-x="1262" d="M-96 0v67q63 4 105 40.5t110 177.5l485 1009q32 37 63 83t62 104l68 16l194 -1208q2 -11 5 -31q29 -181 178 -190v-68q-103 6 -153.5 8t-80.5 2q-44 0 -103.5 -2t-156.5 -8v67q89 6 115 26.5t26 80.5q0 14 -5 53q-2 15 -3 23l-45 313h-434l-156 -330q-13 -27 -20.5 -56 t-7.5 -48q0 -33 27 -46.5t106 -15.5l-1 -67q-81 6 -125.5 8t-72.5 2q-20 0 -55.5 -2t-124.5 -8zM360 631h400l-94 653zM600 1608l293 295q34 33 62 49t53 16q33 0 55.5 -23t22.5 -59q0 -24 -16.5 -43.5t-59.5 -46.5l-322 -188h-88z" />
<glyph unicode="&#xc2;" horiz-adv-x="1262" d="M-96 0v67q63 4 105 40.5t110 177.5l485 1009q32 37 63 83t62 104l68 16l194 -1208q2 -11 5 -31q29 -181 178 -190v-68q-103 6 -153.5 8t-80.5 2q-44 0 -103.5 -2t-156.5 -8v67q89 6 115 26.5t26 80.5q0 14 -5 53q-2 15 -3 23l-45 313h-434l-156 -330q-13 -27 -20.5 -56 t-7.5 -48q0 -33 27 -46.5t106 -15.5l-1 -67q-81 6 -125.5 8t-72.5 2q-20 0 -55.5 -2t-124.5 -8zM360 631h400l-94 653zM479 1606l299 338h103l162 -338h-58l-170 199l-258 -199h-78z" />
<glyph unicode="&#xc3;" horiz-adv-x="1262" d="M-96 0v67q63 4 105 40.5t110 177.5l485 1009q32 37 63 83t62 104l68 16l194 -1208q2 -11 5 -31q29 -181 178 -190v-68q-103 6 -153.5 8t-80.5 2q-44 0 -103.5 -2t-156.5 -8v67q89 6 115 26.5t26 80.5q0 14 -5 53q-2 15 -3 23l-45 313h-434l-156 -330q-13 -27 -20.5 -56 t-7.5 -48q0 -33 27 -46.5t106 -15.5l-1 -67q-81 6 -125.5 8t-72.5 2q-20 0 -55.5 -2t-124.5 -8zM360 631h400l-94 653zM514 1657q14 94 56.5 142.5t111.5 48.5q17 0 35.5 -3t36.5 -8l128 -34q23 -6 38 -8.5t26 -2.5q40 0 66 20.5t37 59.5h45q-18 -93 -64.5 -142.5 t-115.5 -49.5q-15 0 -34.5 3t-41.5 9l-129 35q-15 4 -31 6t-33 2q-36 0 -57 -19t-29 -59h-45z" />
<glyph unicode="&#xc4;" horiz-adv-x="1262" d="M-96 0v67q63 4 105 40.5t110 177.5l485 1009q32 37 63 83t62 104l68 16l194 -1208q2 -11 5 -31q29 -181 178 -190v-68q-103 6 -153.5 8t-80.5 2q-44 0 -103.5 -2t-156.5 -8v67q89 6 115 26.5t26 80.5q0 14 -5 53q-2 15 -3 23l-45 313h-434l-156 -330q-13 -27 -20.5 -56 t-7.5 -48q0 -33 27 -46.5t106 -15.5l-1 -67q-81 6 -125.5 8t-72.5 2q-20 0 -55.5 -2t-124.5 -8zM360 631h400l-94 653zM520 1772q0 41 32.5 73.5t74.5 32.5q43 0 75.5 -32t32.5 -74q0 -48 -31 -79.5t-77 -31.5q-44 0 -75.5 32.5t-31.5 78.5zM873 1772q0 41 32.5 73.5 t73.5 32.5q44 0 76.5 -32t32.5 -74q0 -48 -31.5 -79.5t-77.5 -31.5q-43 0 -74.5 32.5t-31.5 78.5z" />
<glyph unicode="&#xc5;" horiz-adv-x="1262" d="M-96 0v67q63 4 105 40.5t110 177.5l485 1009q30 36 58 75t53 81l88 20l188 -1181q2 -11 5 -31q29 -181 178 -190v-68q-103 6 -153.5 8t-80.5 2q-44 0 -103.5 -2t-156.5 -8v67q89 6 115 26.5t26 80.5q0 14 -5 53q-2 15 -3 23l-45 313h-434l-156 -330q-13 -27 -20.5 -56 t-7.5 -48q0 -33 27 -46.5t106 -15.5l-1 -67q-81 6 -125.5 8t-72.5 2q-20 0 -55.5 -2t-124.5 -8zM360 631h400l-94 653zM547 1749q0 94 64.5 158.5t156.5 64.5q94 0 158.5 -64.5t64.5 -158.5q0 -93 -64.5 -157t-158.5 -64t-157.5 63.5t-63.5 157.5zM641 1749 q0 -52 37.5 -89.5t89.5 -37.5t89.5 37.5t37.5 89.5q0 54 -36.5 90.5t-90.5 36.5q-52 0 -89.5 -37.5t-37.5 -89.5z" />
<glyph unicode="&#xc6;" horiz-adv-x="1925" d="M-174 0v66q49 5 93 41.5t134 160.5l705 973q18 25 27.5 49t9.5 43q0 37 -24 51.5t-103 18.5v67h1130l-14 -397h-53q1 19 1.5 35t0.5 31q0 150 -55 207t-214 57h-334l-102 -610h92q191 0 244.5 44.5t73.5 176.5h51q-25 -125 -45.5 -259t-36.5 -280h-53q1 15 3 40 q5 57 5 73q0 84 -33 110.5t-147 26.5h-166l-109 -659h361q133 0 192.5 14t100.5 47q41 36 73 96t74 195h53q-23 -100 -44.5 -204.5t-41.5 -213.5h-1077v65q81 3 113 26.5t47 109.5l61 358h-473l-231 -332q-25 -35 -36 -60t-11 -46q0 -26 26.5 -40t79.5 -16v-65 q-72 6 -114.5 8t-73.5 2q-15 0 -43.5 -1.5t-116.5 -8.5zM391 625h438l127 766h-16z" />
<glyph unicode="&#xc7;" horiz-adv-x="1298" d="M74 608q0 386 208.5 633.5t532.5 247.5q114 0 214.5 -43.5t178.5 -126.5l33 80h49q-15 -92 -31.5 -200t-37.5 -259h-54q4 36 6.5 67.5t2.5 55.5q0 161 -93.5 257.5t-248.5 96.5q-255 0 -409.5 -230.5t-154.5 -608.5q0 -241 110 -372.5t308 -131.5q154 0 264.5 76.5 t190.5 238.5l47 -20q-83 -192 -220 -289.5t-323 -97.5q-262 0 -417.5 170t-155.5 456zM407 -362l29 71q57 -35 117 -54.5t110 -19.5q59 0 90 25t31 72q0 43 -29.5 67.5t-82.5 24.5q-13 0 -32 -2t-57 -8l62 188h49l-37 -114q26 3 44 4t32 2q81 0 127.5 -44t46.5 -118 q0 -81 -55 -126.5t-154 -45.5q-72 0 -146.5 20t-144.5 58z" />
<glyph unicode="&#xc8;" horiz-adv-x="1346" d="M18 0v65q83 3 115.5 27.5t46.5 108.5l168 1011q7 41 10.5 72t3.5 41q0 39 -28.5 56t-107.5 22l-1 67h994l-13 -397h-53q1 18 1.5 34t0.5 32q0 150 -55.5 207t-214.5 57h-334l-102 -610h92q191 0 244.5 44.5t72.5 176.5h51q-25 -125 -45 -259t-37 -280h-50q2 37 3.5 66 t1.5 47q0 84 -32 110.5t-146 26.5h-168l-108 -659h362q132 0 191 14t100 47q42 36 73.5 96t73.5 195h54q-23 -100 -44.5 -204.5t-41.5 -213.5h-1078zM557 1891q0 32 22 54.5t54 22.5q21 0 42 -13t42 -38l245 -309h-80l-266 199q-30 22 -44.5 42.5t-14.5 41.5z" />
<glyph unicode="&#xc9;" horiz-adv-x="1346" d="M18 0v65q83 3 115.5 27.5t46.5 108.5l168 1011q7 41 10.5 72t3.5 41q0 39 -28.5 56t-107.5 22l-1 67h994l-13 -397h-53q1 18 1.5 34t0.5 32q0 150 -55.5 207t-214.5 57h-334l-102 -610h92q191 0 244.5 44.5t72.5 176.5h51q-25 -125 -45 -259t-37 -280h-50q2 37 3.5 66 t1.5 47q0 84 -32 110.5t-146 26.5h-168l-108 -659h362q132 0 191 14t100 47q42 36 73.5 96t73.5 195h54q-23 -100 -44.5 -204.5t-41.5 -213.5h-1078zM614 1608l293 295q34 33 62 49t53 16q33 0 55.5 -23t22.5 -59q0 -24 -16.5 -43.5t-59.5 -46.5l-322 -188h-88z" />
<glyph unicode="&#xca;" horiz-adv-x="1346" d="M18 0v65q83 3 115.5 27.5t46.5 108.5l168 1011q7 41 10.5 72t3.5 41q0 39 -28.5 56t-107.5 22l-1 67h994l-13 -397h-53q1 18 1.5 34t0.5 32q0 150 -55.5 207t-214.5 57h-334l-102 -610h92q191 0 244.5 44.5t72.5 176.5h51q-25 -125 -45 -259t-37 -280h-50q2 37 3.5 66 t1.5 47q0 84 -32 110.5t-146 26.5h-168l-108 -659h362q132 0 191 14t100 47q42 36 73.5 96t73.5 195h54q-23 -100 -44.5 -204.5t-41.5 -213.5h-1078zM493 1606l299 338h103l162 -338h-58l-170 199l-258 -199h-78z" />
<glyph unicode="&#xcb;" horiz-adv-x="1346" d="M18 0v65q83 3 115.5 27.5t46.5 108.5l168 1011q7 41 10.5 72t3.5 41q0 39 -28.5 56t-107.5 22l-1 67h994l-13 -397h-53q1 18 1.5 34t0.5 32q0 150 -55.5 207t-214.5 57h-334l-102 -610h92q191 0 244.5 44.5t72.5 176.5h51q-25 -125 -45 -259t-37 -280h-50q2 37 3.5 66 t1.5 47q0 84 -32 110.5t-146 26.5h-168l-108 -659h362q132 0 191 14t100 47q42 36 73.5 96t73.5 195h54q-23 -100 -44.5 -204.5t-41.5 -213.5h-1078zM534 1772q0 41 32.5 73.5t74.5 32.5q43 0 75.5 -32t32.5 -74q0 -48 -31 -79.5t-77 -31.5q-44 0 -75.5 32.5t-31.5 78.5z M887 1772q0 41 32.5 73.5t73.5 32.5q44 0 76.5 -32t32.5 -74q0 -48 -31.5 -79.5t-77.5 -31.5q-43 0 -74.5 32.5t-31.5 78.5z" />
<glyph unicode="&#xcc;" horiz-adv-x="707" d="M18 0v65q83 3 115.5 27.5t46.5 108.5l168 1011q7 41 10.5 72t3.5 41q0 39 -28.5 56t-107.5 22l-1 67q84 -5 138.5 -7.5t91.5 -2.5t92 2.5t141 7.5v-67q-83 -3 -115 -26.5t-47 -106.5l-166 -1014q-6 -43 -10 -74t-4 -39q0 -38 28 -55t109 -23v-65q-92 6 -144 8t-85 2 t-86 -2t-150 -8zM254 1891q0 32 22 54.5t54 22.5q21 0 42 -13t42 -38l245 -309h-80l-266 199q-30 22 -44.5 42.5t-14.5 41.5z" />
<glyph unicode="&#xcd;" horiz-adv-x="707" d="M18 0v65q83 3 115.5 27.5t46.5 108.5l168 1011q7 41 10.5 72t3.5 41q0 39 -28.5 56t-107.5 22l-1 67q84 -5 138.5 -7.5t91.5 -2.5t92 2.5t141 7.5v-67q-83 -3 -115 -26.5t-47 -106.5l-166 -1014q-6 -43 -10 -74t-4 -39q0 -38 28 -55t109 -23v-65q-92 6 -144 8t-85 2 t-86 -2t-150 -8zM311 1608l293 295q34 33 62 49t53 16q33 0 55.5 -23t22.5 -59q0 -24 -16.5 -43.5t-59.5 -46.5l-322 -188h-88z" />
<glyph unicode="&#xce;" horiz-adv-x="707" d="M18 0v65q83 3 115.5 27.5t46.5 108.5l168 1011q7 41 10.5 72t3.5 41q0 39 -28.5 56t-107.5 22l-1 67q84 -5 138.5 -7.5t91.5 -2.5t92 2.5t141 7.5v-67q-83 -3 -115 -26.5t-47 -106.5l-166 -1014q-6 -43 -10 -74t-4 -39q0 -38 28 -55t109 -23v-65q-92 6 -144 8t-85 2 t-86 -2t-150 -8zM190 1606l299 338h103l162 -338h-58l-170 199l-258 -199h-78z" />
<glyph unicode="&#xcf;" horiz-adv-x="707" d="M18 0v65q83 3 115.5 27.5t46.5 108.5l168 1011q7 41 10.5 72t3.5 41q0 39 -28.5 56t-107.5 22l-1 67q84 -5 138.5 -7.5t91.5 -2.5t92 2.5t141 7.5v-67q-83 -3 -115 -26.5t-47 -106.5l-166 -1014q-6 -43 -10 -74t-4 -39q0 -38 28 -55t109 -23v-65q-92 6 -144 8t-85 2 t-86 -2t-150 -8zM231 1772q0 41 32.5 73.5t74.5 32.5q43 0 75.5 -32t32.5 -74q0 -48 -31 -79.5t-77 -31.5q-44 0 -75.5 32.5t-31.5 78.5zM584 1772q0 41 32.5 73.5t73.5 32.5q44 0 76.5 -32t32.5 -74q0 -48 -31.5 -79.5t-77.5 -31.5q-43 0 -74.5 32.5t-31.5 78.5z" />
<glyph unicode="&#xd0;" horiz-adv-x="1446" d="M20 727l13 72h256l67 413q7 41 11 72t4 41q0 39 -28 55.5t-109 22.5l-1 67h383q203 0 297.5 -16t167.5 -53q136 -66 212.5 -213t76.5 -344q0 -217 -82 -404.5t-223 -296.5q-100 -77 -223.5 -110t-392.5 -33h-21h-399v65q82 3 115 27.5t46 108.5l84 526h-254zM338 66h104 q195 0 284.5 19t158.5 65q130 85 206 279t76 448q0 283 -105 404.5t-353 121.5h-148l-100 -604h325l-12 -72h-328z" />
<glyph unicode="&#xd1;" horiz-adv-x="1532" d="M12 0v66h6q119 0 159 218q2 13 3 19l162 924q4 20 6 35t2 20q0 57 -52.5 89t-147.5 32h-9v67q55 -5 92 -7.5t64 -2.5q28 0 67 2.5t97 7.5l688 -1175l143 827q9 51 14 96.5t5 71.5q0 60 -35 85.5t-121 27.5v67q71 -5 118.5 -7.5t82.5 -2.5q26 0 69 2.5t117 7.5v-67h-6 q-73 0 -104 -35t-60 -203l-203 -1153l-39 -22l-718 1237l-152 -879q-9 -51 -13.5 -96.5t-4.5 -73.5q0 -60 35 -85.5t120 -27.5v-65q-88 6 -130.5 8t-69.5 2q-21 0 -58 -2t-127 -8zM618 1657q14 94 56.5 142.5t111.5 48.5q17 0 35.5 -3t36.5 -8l128 -34q23 -6 38 -8.5 t26 -2.5q40 0 66 20.5t37 59.5h45q-18 -93 -64.5 -142.5t-115.5 -49.5q-15 0 -34.5 3t-41.5 9l-129 35q-15 4 -31 6t-33 2q-36 0 -57 -19t-29 -59h-45z" />
<glyph unicode="&#xd2;" horiz-adv-x="1493" d="M78 643q0 154 42.5 291.5t125.5 249.5q109 149 258.5 225t335.5 76q253 0 416 -184.5t163 -475.5q0 -146 -42 -283.5t-124 -254.5q-105 -151 -252 -231.5t-319 -80.5q-270 0 -437 184t-167 484zM272 553q0 -236 106.5 -374t287.5 -138q111 0 205.5 55.5t168.5 165.5 q86 123 134.5 295.5t48.5 353.5q0 231 -108 368.5t-288 137.5q-101 0 -193.5 -48.5t-158.5 -137.5q-95 -132 -149 -310.5t-54 -367.5zM641 1891q0 32 22 54.5t54 22.5q21 0 42 -13t42 -38l245 -309h-80l-266 199q-30 22 -44.5 42.5t-14.5 41.5z" />
<glyph unicode="&#xd3;" horiz-adv-x="1493" d="M78 643q0 154 42.5 291.5t125.5 249.5q109 149 258.5 225t335.5 76q253 0 416 -184.5t163 -475.5q0 -146 -42 -283.5t-124 -254.5q-105 -151 -252 -231.5t-319 -80.5q-270 0 -437 184t-167 484zM272 553q0 -236 106.5 -374t287.5 -138q111 0 205.5 55.5t168.5 165.5 q86 123 134.5 295.5t48.5 353.5q0 231 -108 368.5t-288 137.5q-101 0 -193.5 -48.5t-158.5 -137.5q-95 -132 -149 -310.5t-54 -367.5zM698 1608l293 295q34 33 62 49t53 16q33 0 55.5 -23t22.5 -59q0 -24 -16.5 -43.5t-59.5 -46.5l-322 -188h-88z" />
<glyph unicode="&#xd4;" horiz-adv-x="1493" d="M78 643q0 154 42.5 291.5t125.5 249.5q109 149 258.5 225t335.5 76q253 0 416 -184.5t163 -475.5q0 -146 -42 -283.5t-124 -254.5q-105 -151 -252 -231.5t-319 -80.5q-270 0 -437 184t-167 484zM272 553q0 -236 106.5 -374t287.5 -138q111 0 205.5 55.5t168.5 165.5 q86 123 134.5 295.5t48.5 353.5q0 231 -108 368.5t-288 137.5q-101 0 -193.5 -48.5t-158.5 -137.5q-95 -132 -149 -310.5t-54 -367.5zM577 1606l299 338h103l162 -338h-58l-170 199l-258 -199h-78z" />
<glyph unicode="&#xd5;" horiz-adv-x="1493" d="M78 643q0 154 42.5 291.5t125.5 249.5q109 149 258.5 225t335.5 76q253 0 416 -184.5t163 -475.5q0 -146 -42 -283.5t-124 -254.5q-105 -151 -252 -231.5t-319 -80.5q-270 0 -437 184t-167 484zM272 553q0 -236 106.5 -374t287.5 -138q111 0 205.5 55.5t168.5 165.5 q86 123 134.5 295.5t48.5 353.5q0 231 -108 368.5t-288 137.5q-101 0 -193.5 -48.5t-158.5 -137.5q-95 -132 -149 -310.5t-54 -367.5zM612 1657q14 94 56.5 142.5t111.5 48.5q17 0 35.5 -3t36.5 -8l128 -34q23 -6 38 -8.5t26 -2.5q40 0 66 20.5t37 59.5h45 q-18 -93 -64.5 -142.5t-115.5 -49.5q-15 0 -34.5 3t-41.5 9l-129 35q-15 4 -31 6t-33 2q-36 0 -57 -19t-29 -59h-45z" />
<glyph unicode="&#xd6;" horiz-adv-x="1493" d="M78 643q0 154 42.5 291.5t125.5 249.5q109 149 258.5 225t335.5 76q253 0 416 -184.5t163 -475.5q0 -146 -42 -283.5t-124 -254.5q-105 -151 -252 -231.5t-319 -80.5q-270 0 -437 184t-167 484zM272 553q0 -236 106.5 -374t287.5 -138q111 0 205.5 55.5t168.5 165.5 q86 123 134.5 295.5t48.5 353.5q0 231 -108 368.5t-288 137.5q-101 0 -193.5 -48.5t-158.5 -137.5q-95 -132 -149 -310.5t-54 -367.5zM618 1772q0 41 32.5 73.5t74.5 32.5q43 0 75.5 -32t32.5 -74q0 -48 -31 -79.5t-77 -31.5q-44 0 -75.5 32.5t-31.5 78.5zM971 1772 q0 41 32.5 73.5t73.5 32.5q44 0 76.5 -32t32.5 -74q0 -48 -31.5 -79.5t-77.5 -31.5q-43 0 -74.5 32.5t-31.5 78.5z" />
<glyph unicode="&#xd7;" horiz-adv-x="1706" d="M301 135l475 475l-475 477l80 82l477 -477l475 477l82 -82l-475 -477l475 -475l-82 -82l-475 475l-477 -475z" />
<glyph unicode="&#xd8;" horiz-adv-x="1493" d="M72 -170l200 293q-99 108 -146.5 236t-47.5 286q0 184 61 343.5t178 281.5q102 104 234 159.5t280 55.5q93 0 166.5 -22t132.5 -66l150 225h109l-187 -276q105 -86 160 -219t55 -304q0 -180 -60 -340.5t-175 -285.5q-100 -109 -229 -166.5t-275 -57.5q-92 0 -175 24.5 t-159 74.5l-164 -242h-108zM260 541q0 -103 19.5 -183t60.5 -143l747 1104q-51 50 -113.5 74t-137.5 24q-135 0 -243 -74.5t-192 -224.5q-66 -122 -103.5 -274.5t-37.5 -302.5zM393 152q56 -58 120 -84.5t144 -26.5q139 0 247 74t190 225q65 118 104 275.5t39 304.5 q0 96 -25 178.5t-75 154.5z" />
<glyph unicode="&#xd9;" horiz-adv-x="1532" d="M203 336q0 48 7.5 113t29.5 184l106 579q7 37 10.5 68.5t3.5 44.5q0 39 -28.5 56t-107.5 22l-1 67q91 -5 144 -7.5t86 -2.5q40 0 99 2.5t150 7.5v-67q-98 -4 -129.5 -26.5t-46.5 -106.5l-116 -682q-17 -93 -24 -150t-7 -98q0 -134 84 -204t244 -70q119 0 208.5 43.5 t143.5 128.5q70 111 116 414q4 27 7 43l80 518q6 40 10 70t4 42q0 42 -33.5 59t-125.5 19l-1 67q70 -5 124.5 -7.5t96.5 -2.5q25 0 62 2t117 8l-1 -67q-81 -3 -113 -26t-46 -107l-117 -699q-54 -327 -189 -458t-409 -131q-202 0 -320 95.5t-118 258.5zM699 1891 q0 32 22 54.5t54 22.5q21 0 42 -13t42 -38l245 -309h-80l-266 199q-30 22 -44.5 42.5t-14.5 41.5z" />
<glyph unicode="&#xda;" horiz-adv-x="1532" d="M203 336q0 48 7.5 113t29.5 184l106 579q7 37 10.5 68.5t3.5 44.5q0 39 -28.5 56t-107.5 22l-1 67q91 -5 144 -7.5t86 -2.5q40 0 99 2.5t150 7.5v-67q-98 -4 -129.5 -26.5t-46.5 -106.5l-116 -682q-17 -93 -24 -150t-7 -98q0 -134 84 -204t244 -70q119 0 208.5 43.5 t143.5 128.5q70 111 116 414q4 27 7 43l80 518q6 40 10 70t4 42q0 42 -33.5 59t-125.5 19l-1 67q70 -5 124.5 -7.5t96.5 -2.5q25 0 62 2t117 8l-1 -67q-81 -3 -113 -26t-46 -107l-117 -699q-54 -327 -189 -458t-409 -131q-202 0 -320 95.5t-118 258.5zM756 1608l293 295 q34 33 62 49t53 16q33 0 55.5 -23t22.5 -59q0 -24 -16.5 -43.5t-59.5 -46.5l-322 -188h-88z" />
<glyph unicode="&#xdb;" horiz-adv-x="1532" d="M203 336q0 48 7.5 113t29.5 184l106 579q7 37 10.5 68.5t3.5 44.5q0 39 -28.5 56t-107.5 22l-1 67q91 -5 144 -7.5t86 -2.5q40 0 99 2.5t150 7.5v-67q-98 -4 -129.5 -26.5t-46.5 -106.5l-116 -682q-17 -93 -24 -150t-7 -98q0 -134 84 -204t244 -70q119 0 208.5 43.5 t143.5 128.5q70 111 116 414q4 27 7 43l80 518q6 40 10 70t4 42q0 42 -33.5 59t-125.5 19l-1 67q70 -5 124.5 -7.5t96.5 -2.5q25 0 62 2t117 8l-1 -67q-81 -3 -113 -26t-46 -107l-117 -699q-54 -327 -189 -458t-409 -131q-202 0 -320 95.5t-118 258.5zM635 1606l299 338h103 l162 -338h-58l-170 199l-258 -199h-78z" />
<glyph unicode="&#xdc;" horiz-adv-x="1532" d="M203 336q0 48 7.5 113t29.5 184l106 579q7 37 10.5 68.5t3.5 44.5q0 39 -28.5 56t-107.5 22l-1 67q91 -5 144 -7.5t86 -2.5q40 0 99 2.5t150 7.5v-67q-98 -4 -129.5 -26.5t-46.5 -106.5l-116 -682q-17 -93 -24 -150t-7 -98q0 -134 84 -204t244 -70q119 0 208.5 43.5 t143.5 128.5q70 111 116 414q4 27 7 43l80 518q6 40 10 70t4 42q0 42 -33.5 59t-125.5 19l-1 67q70 -5 124.5 -7.5t96.5 -2.5q25 0 62 2t117 8l-1 -67q-81 -3 -113 -26t-46 -107l-117 -699q-54 -327 -189 -458t-409 -131q-202 0 -320 95.5t-118 258.5zM676 1772 q0 41 32.5 73.5t74.5 32.5q43 0 75.5 -32t32.5 -74q0 -48 -31 -79.5t-77 -31.5q-44 0 -75.5 32.5t-31.5 78.5zM1029 1772q0 41 32.5 73.5t73.5 32.5q44 0 76.5 -32t32.5 -74q0 -48 -31.5 -79.5t-77.5 -31.5q-43 0 -74.5 32.5t-31.5 78.5z" />
<glyph unicode="&#xdd;" horiz-adv-x="1104" d="M43 1403v67q74 -5 124.5 -7.5t86.5 -2.5q32 0 83 2.5t150 7.5v-67q-69 -6 -92.5 -18t-23.5 -39q0 -12 5 -29.5t19 -52.5l228 -549l317 553q12 21 19.5 43t7.5 37q0 29 -27.5 41t-101.5 14v67q66 -5 109 -7.5t75 -2.5q31 0 76 2.5t114 7.5v-67q-59 -4 -97 -30.5 t-93 -117.5l-383 -639l-61 -360q-7 -37 -11 -69t-4 -44q0 -38 28 -55t109 -23v-65q-94 6 -144 8t-83 2t-86 -2t-149 -8v65q81 3 114 27t47 109l74 430l-258 606q-43 99 -77.5 129t-94.5 37zM510 1608l293 295q34 33 62 49t53 16q33 0 55.5 -23t22.5 -59q0 -24 -16.5 -43.5 t-59.5 -46.5l-322 -188h-88z" />
<glyph unicode="&#xde;" horiz-adv-x="1214" d="M18 65q83 3 115.5 27.5t46.5 108.5l168 1011q7 41 10.5 72t3.5 41q0 39 -28.5 56t-107.5 22l-1 67q84 -5 138.5 -7.5t91.5 -2.5t92 2.5t141 7.5v-67q-85 -3 -117.5 -28.5t-44.5 -104.5l-12 -86q19 2 41 3t63 1q238 0 367 -105t129 -299q0 -208 -141.5 -322t-403.5 -114 q-55 0 -103 2t-91 6l-15 -100q-2 -15 -5 -39q-9 -63 -9 -74q0 -40 33.5 -58.5t103.5 -18.5h49v-66q-104 6 -168 8t-110 2q-23 0 -65 -1.5t-170 -8.5zM383 424q15 -1 41 -2q59 -2 78 -2q227 0 326.5 92t99.5 299q0 165 -85 237t-280 72q-25 0 -38.5 -0.5t-24.5 -1.5z" />
<glyph unicode="&#xdf;" horiz-adv-x="1118" d="M-25 -436q47 155 87 342t98 545l59 372q61 379 174 539t316 160q142 0 228.5 -83t86.5 -220t-93.5 -236t-252.5 -127q144 -21 220.5 -105.5t76.5 -222.5q0 -232 -118 -389t-292 -157q-37 0 -73.5 8.5t-75.5 27.5l16 62q44 -21 75 -30t58 -9q115 0 179.5 141t64.5 391 q0 139 -66.5 202t-214.5 63h-14l10 51h29q147 0 231 97.5t84 266.5q0 100 -43 155.5t-120 55.5q-130 0 -206 -147t-132 -516l-56 -365q-38 -262 -78 -454t-88 -351z" />
<glyph unicode="&#xe0;" horiz-adv-x="1124" d="M37 256q0 130 43.5 266t120.5 246q76 109 169 168t187 59q74 0 123.5 -30t75.5 -91l30 121h152l-170 -704q-11 -44 -17 -82.5t-6 -63.5q0 -26 21 -48.5t47 -22.5q41 0 83.5 48t84.5 142l47 -18q-50 -127 -127 -195.5t-166 -68.5q-66 0 -99.5 39t-33.5 116q0 29 3.5 64.5 t10.5 74.5q-88 -148 -179 -221t-187 -73q-104 0 -158.5 70t-54.5 204zM199 252q0 -90 29 -134t89 -44q38 0 81 26.5t91 79.5q62 68 110 143.5t56 110.5l74 328q-9 85 -50 133.5t-104 48.5q-66 0 -132 -57.5t-117 -161.5q-59 -117 -93 -246.5t-34 -226.5zM428 1389 q0 32 22 54.5t54 22.5q21 0 42 -13t42 -38l245 -309h-80l-266 199q-30 22 -44.5 42.5t-14.5 41.5z" />
<glyph unicode="&#xe1;" horiz-adv-x="1124" d="M37 256q0 130 43.5 266t120.5 246q76 109 169 168t187 59q74 0 123.5 -30t75.5 -91l30 121h152l-170 -704q-11 -44 -17 -82.5t-6 -63.5q0 -26 21 -48.5t47 -22.5q41 0 83.5 48t84.5 142l47 -18q-50 -127 -127 -195.5t-166 -68.5q-66 0 -99.5 39t-33.5 116q0 29 3.5 64.5 t10.5 74.5q-88 -148 -179 -221t-187 -73q-104 0 -158.5 70t-54.5 204zM199 252q0 -90 29 -134t89 -44q38 0 81 26.5t91 79.5q62 68 110 143.5t56 110.5l74 328q-9 85 -50 133.5t-104 48.5q-66 0 -132 -57.5t-117 -161.5q-59 -117 -93 -246.5t-34 -226.5zM485 1106l293 295 q34 33 62 49t53 16q33 0 55.5 -23t22.5 -59q0 -24 -16.5 -43.5t-59.5 -46.5l-322 -188h-88z" />
<glyph unicode="&#xe2;" horiz-adv-x="1124" d="M37 256q0 130 43.5 266t120.5 246q76 109 169 168t187 59q74 0 123.5 -30t75.5 -91l30 121h152l-170 -704q-11 -44 -17 -82.5t-6 -63.5q0 -26 21 -48.5t47 -22.5q41 0 83.5 48t84.5 142l47 -18q-50 -127 -127 -195.5t-166 -68.5q-66 0 -99.5 39t-33.5 116q0 29 3.5 64.5 t10.5 74.5q-88 -148 -179 -221t-187 -73q-104 0 -158.5 70t-54.5 204zM199 252q0 -90 29 -134t89 -44q38 0 81 26.5t91 79.5q62 68 110 143.5t56 110.5l74 328q-9 85 -50 133.5t-104 48.5q-66 0 -132 -57.5t-117 -161.5q-59 -117 -93 -246.5t-34 -226.5zM364 1104l299 338 h103l162 -338h-58l-170 199l-258 -199h-78z" />
<glyph unicode="&#xe3;" horiz-adv-x="1124" d="M37 256q0 130 43.5 266t120.5 246q76 109 169 168t187 59q74 0 123.5 -30t75.5 -91l30 121h152l-170 -704q-11 -44 -17 -82.5t-6 -63.5q0 -26 21 -48.5t47 -22.5q41 0 83.5 48t84.5 142l47 -18q-50 -127 -127 -195.5t-166 -68.5q-66 0 -99.5 39t-33.5 116q0 29 3.5 64.5 t10.5 74.5q-88 -148 -179 -221t-187 -73q-104 0 -158.5 70t-54.5 204zM199 252q0 -90 29 -134t89 -44q38 0 81 26.5t91 79.5q62 68 110 143.5t56 110.5l74 328q-9 85 -50 133.5t-104 48.5q-66 0 -132 -57.5t-117 -161.5q-59 -117 -93 -246.5t-34 -226.5zM399 1155 q14 94 56.5 142.5t111.5 48.5q17 0 35.5 -3t36.5 -8l128 -34q23 -6 38 -8.5t26 -2.5q40 0 66 20.5t37 59.5h45q-18 -93 -64.5 -142.5t-115.5 -49.5q-15 0 -34.5 3t-41.5 9l-129 35q-15 4 -31 6t-33 2q-36 0 -57 -19t-29 -59h-45z" />
<glyph unicode="&#xe4;" horiz-adv-x="1124" d="M37 256q0 130 43.5 266t120.5 246q76 109 169 168t187 59q74 0 123.5 -30t75.5 -91l30 121h152l-170 -704q-11 -44 -17 -82.5t-6 -63.5q0 -26 21 -48.5t47 -22.5q41 0 83.5 48t84.5 142l47 -18q-50 -127 -127 -195.5t-166 -68.5q-66 0 -99.5 39t-33.5 116q0 29 3.5 64.5 t10.5 74.5q-88 -148 -179 -221t-187 -73q-104 0 -158.5 70t-54.5 204zM199 252q0 -90 29 -134t89 -44q38 0 81 26.5t91 79.5q62 68 110 143.5t56 110.5l74 328q-9 85 -50 133.5t-104 48.5q-66 0 -132 -57.5t-117 -161.5q-59 -117 -93 -246.5t-34 -226.5zM405 1270 q0 41 32.5 73.5t74.5 32.5q43 0 75.5 -32t32.5 -74q0 -48 -31 -79.5t-77 -31.5q-44 0 -75.5 32.5t-31.5 78.5zM758 1270q0 41 32.5 73.5t73.5 32.5q44 0 76.5 -32t32.5 -74q0 -48 -31.5 -79.5t-77.5 -31.5q-43 0 -74.5 32.5t-31.5 78.5z" />
<glyph unicode="&#xe5;" horiz-adv-x="1124" d="M37 256q0 130 43.5 266t120.5 246q76 109 169 168t187 59q74 0 123.5 -30t75.5 -91l30 121h152l-170 -704q-11 -44 -17 -82.5t-6 -63.5q0 -26 21 -48.5t47 -22.5q41 0 83.5 48t84.5 142l47 -18q-50 -127 -127 -195.5t-166 -68.5q-66 0 -99.5 39t-33.5 116q0 29 3.5 64.5 t10.5 74.5q-88 -148 -179 -221t-187 -73q-104 0 -158.5 70t-54.5 204zM199 252q0 -90 29 -134t89 -44q38 0 81 26.5t91 79.5q62 68 110 143.5t56 110.5l74 328q-9 85 -50 133.5t-104 48.5q-66 0 -132 -57.5t-117 -161.5q-59 -117 -93 -246.5t-34 -226.5zM440 1282 q0 93 65.5 158t158.5 65t158 -64.5t65 -158.5q0 -93 -64.5 -157t-158.5 -64q-95 0 -159.5 64t-64.5 157zM537 1282q0 -52 37 -89.5t90 -37.5q52 0 89.5 37.5t37.5 89.5q0 54 -37 91.5t-90 37.5q-52 0 -89.5 -38t-37.5 -91z" />
<glyph unicode="&#xe6;" horiz-adv-x="1470" d="M6 207q0 169 158.5 252t484.5 86l19 108q2 11 3 22t1 30q0 120 -50.5 176.5t-158.5 56.5q-40 0 -72.5 -9.5t-66.5 -31.5q0 -10 3 -32.5t3 -33.5q0 -55 -25.5 -89.5t-62.5 -34.5q-34 0 -51 18t-17 53q0 91 92 154t238 63q108 0 178.5 -41t116.5 -131q67 85 159.5 128.5 t202.5 43.5q101 0 157 -45t56 -127q0 -152 -151 -236t-430 -87q-16 -58 -23.5 -117.5t-7.5 -118.5q0 -106 39 -155.5t123 -49.5q87 0 167.5 61t143.5 175l39 -27q-66 -143 -167 -214.5t-239 -71.5q-105 0 -175.5 52t-90.5 144q-85 -100 -175 -149t-189 -49q-106 0 -169 62 t-63 165zM166 227q0 -72 40.5 -114.5t108.5 -42.5q64 0 129 39t146 127l45 256q-235 0 -352 -66.5t-117 -198.5zM803 553q219 3 329.5 70.5t110.5 197.5q0 53 -33 85t-88 32q-105 0 -186.5 -97.5t-132.5 -287.5z" />
<glyph unicode="&#xe7;" horiz-adv-x="915" d="M39 375q0 252 153.5 436t360.5 184q116 0 189 -58t73 -151q0 -40 -17.5 -64t-47.5 -24q-34 0 -52 26.5t-18 74.5q0 19 3 45.5t3 34.5q0 29 -28.5 44t-84.5 15q-149 0 -250.5 -167.5t-101.5 -416.5q0 -142 56 -219.5t159 -77.5q99 0 177 68t126 197l47 -21 q-60 -165 -157 -243t-240 -78q-160 0 -255 107.5t-95 287.5zM88 -362l29 71q57 -35 117 -54.5t110 -19.5q59 0 90 25t31 72q0 43 -29.5 67.5t-82.5 24.5q-13 0 -32 -2t-57 -8l62 188h49l-37 -114q26 3 44 4t32 2q81 0 127.5 -44t46.5 -118q0 -81 -55 -126.5t-154 -45.5 q-72 0 -146.5 20t-144.5 58z" />
<glyph unicode="&#xe8;" horiz-adv-x="909" d="M29 305q0 150 61 294.5t168 248.5q74 72 162 109.5t184 37.5q99 0 155 -45.5t56 -126.5q0 -151 -151.5 -235.5t-432.5 -88.5q-15 -71 -22.5 -131t-7.5 -108q0 -101 40.5 -151t123.5 -50q87 0 167.5 61t143.5 175l41 -27q-71 -144 -171.5 -215t-234.5 -71 q-133 0 -207.5 85t-74.5 238zM244 553q219 3 329.5 70.5t110.5 197.5q0 53 -33 85t-88 32q-106 0 -187 -97.5t-132 -287.5zM359 1389q0 32 22 54.5t54 22.5q21 0 42 -13t42 -38l245 -309h-80l-266 199q-30 22 -44.5 42.5t-14.5 41.5z" />
<glyph unicode="&#xe9;" horiz-adv-x="909" d="M29 305q0 150 61 294.5t168 248.5q74 72 162 109.5t184 37.5q99 0 155 -45.5t56 -126.5q0 -151 -151.5 -235.5t-432.5 -88.5q-15 -71 -22.5 -131t-7.5 -108q0 -101 40.5 -151t123.5 -50q87 0 167.5 61t143.5 175l41 -27q-71 -144 -171.5 -215t-234.5 -71 q-133 0 -207.5 85t-74.5 238zM244 553q219 3 329.5 70.5t110.5 197.5q0 53 -33 85t-88 32q-106 0 -187 -97.5t-132 -287.5zM416 1106l293 295q34 33 62 49t53 16q33 0 55.5 -23t22.5 -59q0 -24 -16.5 -43.5t-59.5 -46.5l-322 -188h-88z" />
<glyph unicode="&#xea;" horiz-adv-x="909" d="M29 305q0 150 61 294.5t168 248.5q74 72 162 109.5t184 37.5q99 0 155 -45.5t56 -126.5q0 -151 -151.5 -235.5t-432.5 -88.5q-15 -71 -22.5 -131t-7.5 -108q0 -101 40.5 -151t123.5 -50q87 0 167.5 61t143.5 175l41 -27q-71 -144 -171.5 -215t-234.5 -71 q-133 0 -207.5 85t-74.5 238zM244 553q219 3 329.5 70.5t110.5 197.5q0 53 -33 85t-88 32q-106 0 -187 -97.5t-132 -287.5zM295 1104l299 338h103l162 -338h-58l-170 199l-258 -199h-78z" />
<glyph unicode="&#xeb;" horiz-adv-x="909" d="M29 305q0 150 61 294.5t168 248.5q74 72 162 109.5t184 37.5q99 0 155 -45.5t56 -126.5q0 -151 -151.5 -235.5t-432.5 -88.5q-15 -71 -22.5 -131t-7.5 -108q0 -101 40.5 -151t123.5 -50q87 0 167.5 61t143.5 175l41 -27q-71 -144 -171.5 -215t-234.5 -71 q-133 0 -207.5 85t-74.5 238zM244 553q219 3 329.5 70.5t110.5 197.5q0 53 -33 85t-88 32q-106 0 -187 -97.5t-132 -287.5zM336 1270q0 41 32.5 73.5t74.5 32.5q43 0 75.5 -32t32.5 -74q0 -48 -31 -79.5t-77 -31.5q-44 0 -75.5 32.5t-31.5 78.5zM689 1270q0 41 32.5 73.5 t73.5 32.5q44 0 76.5 -32t32.5 -74q0 -48 -31.5 -79.5t-77.5 -31.5q-43 0 -74.5 32.5t-31.5 78.5z" />
<glyph unicode="&#xec;" horiz-adv-x="664" d="M25 737q55 126 135 193t174 67q60 0 97.5 -32.5t37.5 -83.5q0 -40 -26 -132l-1 -4l-153 -529q-5 -19 -7.5 -36t-2.5 -30q0 -42 16.5 -62t50.5 -20q46 0 90 44.5t105 153.5l43 -22q-67 -139 -140.5 -201.5t-167.5 -62.5q-72 0 -114.5 40t-42.5 109q0 21 5 48t21 83 l146 498q7 22 10.5 42.5t3.5 37.5q0 31 -15.5 49t-41.5 18q-38 0 -80.5 -45.5t-95.5 -144.5zM133 1389q0 32 22 54.5t54 22.5q21 0 42 -13t42 -38l245 -309h-80l-266 199q-30 22 -44.5 42.5t-14.5 41.5z" />
<glyph unicode="&#xed;" horiz-adv-x="664" d="M25 737q55 126 135 193t174 67q60 0 97.5 -32.5t37.5 -83.5q0 -40 -26 -132l-1 -4l-153 -529q-5 -19 -7.5 -36t-2.5 -30q0 -42 16.5 -62t50.5 -20q46 0 90 44.5t105 153.5l43 -22q-67 -139 -140.5 -201.5t-167.5 -62.5q-72 0 -114.5 40t-42.5 109q0 21 5 48t21 83 l146 498q7 22 10.5 42.5t3.5 37.5q0 31 -15.5 49t-41.5 18q-38 0 -80.5 -45.5t-95.5 -144.5zM190 1106l293 295q34 33 62 49t53 16q33 0 55.5 -23t22.5 -59q0 -24 -16.5 -43.5t-59.5 -46.5l-322 -188h-88z" />
<glyph unicode="&#xee;" horiz-adv-x="664" d="M25 737q55 126 135 193t174 67q60 0 97.5 -32.5t37.5 -83.5q0 -40 -26 -132l-1 -4l-153 -529q-5 -19 -7.5 -36t-2.5 -30q0 -42 16.5 -62t50.5 -20q46 0 90 44.5t105 153.5l43 -22q-67 -139 -140.5 -201.5t-167.5 -62.5q-72 0 -114.5 40t-42.5 109q0 21 5 48t21 83 l146 498q7 22 10.5 42.5t3.5 37.5q0 31 -15.5 49t-41.5 18q-38 0 -80.5 -45.5t-95.5 -144.5zM69 1104l299 338h103l162 -338h-58l-170 199l-258 -199h-78z" />
<glyph unicode="&#xef;" horiz-adv-x="664" d="M25 737q55 126 135 193t174 67q60 0 97.5 -32.5t37.5 -83.5q0 -40 -26 -132l-1 -4l-153 -529q-5 -19 -7.5 -36t-2.5 -30q0 -42 16.5 -62t50.5 -20q46 0 90 44.5t105 153.5l43 -22q-67 -139 -140.5 -201.5t-167.5 -62.5q-72 0 -114.5 40t-42.5 109q0 21 5 48t21 83 l146 498q7 22 10.5 42.5t3.5 37.5q0 31 -15.5 49t-41.5 18q-38 0 -80.5 -45.5t-95.5 -144.5zM110 1270q0 41 32.5 73.5t74.5 32.5q43 0 75.5 -32t32.5 -74q0 -48 -31 -79.5t-77 -31.5q-44 0 -75.5 32.5t-31.5 78.5zM463 1270q0 41 32.5 73.5t73.5 32.5q44 0 76.5 -32 t32.5 -74q0 -48 -31.5 -79.5t-77.5 -31.5q-43 0 -74.5 32.5t-31.5 78.5z" />
<glyph unicode="&#xf0;" horiz-adv-x="979" d="M27 346q0 244 154 421t360 177q39 0 72 -7.5t65 -23.5q-29 73 -60.5 135.5t-66.5 118.5l-330 -96l-18 64l317 94q-41 68 -82.5 130t-85.5 120l58 45q60 -63 115 -129.5t106 -137.5l287 84l18 -65l-266 -74q114 -165 163.5 -305.5t49.5 -294.5q0 -262 -151.5 -441 t-369.5 -179q-156 0 -245.5 97t-89.5 267zM190 231q0 -91 44.5 -141.5t123.5 -50.5q149 0 256 192t107 461q0 92 -44 143.5t-124 51.5q-66 0 -124.5 -38t-102.5 -110q-61 -97 -98.5 -236t-37.5 -272z" />
<glyph unicode="&#xf1;" horiz-adv-x="1219" d="M-20 752q66 119 148 181t173 62q69 0 105 -35t36 -102q0 -33 -6.5 -77.5t-19.5 -98.5q115 170 207.5 241.5t193.5 71.5q88 0 138.5 -44.5t50.5 -123.5q0 -40 -14.5 -98.5t-45.5 -146.5l-121 -338q-13 -35 -19.5 -64.5t-6.5 -50.5q0 -30 18 -46.5t49 -16.5q45 0 90 46 t105 154l43 -22q-66 -137 -140 -200.5t-167 -63.5q-76 0 -118 39t-42 110q0 29 7 63t20 68l139 387q24 68 35.5 113.5t11.5 68.5q0 46 -19.5 66t-62.5 20q-99 0 -226 -153t-169 -342l-92 -420h-156l156 707q8 41 13 74t5 53q0 39 -15.5 61.5t-43.5 22.5q-50 0 -101.5 -44.5 t-118.5 -148.5zM411 1155q14 94 56.5 142.5t111.5 48.5q17 0 35.5 -3t36.5 -8l128 -34q23 -6 38 -8.5t26 -2.5q40 0 66 20.5t37 59.5h45q-18 -93 -64.5 -142.5t-115.5 -49.5q-15 0 -34.5 3t-41.5 9l-129 35q-15 4 -31 6t-33 2q-36 0 -57 -19t-29 -59h-45z" />
<glyph unicode="&#xf2;" horiz-adv-x="1004" d="M39 365q0 257 155 443.5t365 186.5q154 0 245 -97t91 -263q0 -276 -151.5 -464.5t-368.5 -188.5q-157 0 -246.5 101.5t-89.5 281.5zM203 244q0 -97 45 -152t123 -55q67 0 124.5 39t102.5 117q61 102 97 247.5t36 290.5q0 99 -43.5 154t-122.5 55q-66 0 -124.5 -40.5 t-104.5 -117.5q-61 -102 -97 -247.5t-36 -290.5zM367 1389q0 32 22 54.5t54 22.5q21 0 42 -13t42 -38l245 -309h-80l-266 199q-30 22 -44.5 42.5t-14.5 41.5z" />
<glyph unicode="&#xf3;" horiz-adv-x="1004" d="M39 365q0 257 155 443.5t365 186.5q154 0 245 -97t91 -263q0 -276 -151.5 -464.5t-368.5 -188.5q-157 0 -246.5 101.5t-89.5 281.5zM203 244q0 -97 45 -152t123 -55q67 0 124.5 39t102.5 117q61 102 97 247.5t36 290.5q0 99 -43.5 154t-122.5 55q-66 0 -124.5 -40.5 t-104.5 -117.5q-61 -102 -97 -247.5t-36 -290.5zM424 1106l293 295q34 33 62 49t53 16q33 0 55.5 -23t22.5 -59q0 -24 -16.5 -43.5t-59.5 -46.5l-322 -188h-88z" />
<glyph unicode="&#xf4;" horiz-adv-x="1004" d="M39 365q0 257 155 443.5t365 186.5q154 0 245 -97t91 -263q0 -276 -151.5 -464.5t-368.5 -188.5q-157 0 -246.5 101.5t-89.5 281.5zM203 244q0 -97 45 -152t123 -55q67 0 124.5 39t102.5 117q61 102 97 247.5t36 290.5q0 99 -43.5 154t-122.5 55q-66 0 -124.5 -40.5 t-104.5 -117.5q-61 -102 -97 -247.5t-36 -290.5zM303 1104l299 338h103l162 -338h-58l-170 199l-258 -199h-78z" />
<glyph unicode="&#xf5;" horiz-adv-x="1004" d="M39 365q0 257 155 443.5t365 186.5q154 0 245 -97t91 -263q0 -276 -151.5 -464.5t-368.5 -188.5q-157 0 -246.5 101.5t-89.5 281.5zM203 244q0 -97 45 -152t123 -55q67 0 124.5 39t102.5 117q61 102 97 247.5t36 290.5q0 99 -43.5 154t-122.5 55q-66 0 -124.5 -40.5 t-104.5 -117.5q-61 -102 -97 -247.5t-36 -290.5zM338 1155q14 94 56.5 142.5t111.5 48.5q17 0 35.5 -3t36.5 -8l128 -34q23 -6 38 -8.5t26 -2.5q40 0 66 20.5t37 59.5h45q-18 -93 -64.5 -142.5t-115.5 -49.5q-15 0 -34.5 3t-41.5 9l-129 35q-15 4 -31 6t-33 2q-36 0 -57 -19 t-29 -59h-45z" />
<glyph unicode="&#xf6;" horiz-adv-x="1004" d="M39 365q0 257 155 443.5t365 186.5q154 0 245 -97t91 -263q0 -276 -151.5 -464.5t-368.5 -188.5q-157 0 -246.5 101.5t-89.5 281.5zM203 244q0 -97 45 -152t123 -55q67 0 124.5 39t102.5 117q61 102 97 247.5t36 290.5q0 99 -43.5 154t-122.5 55q-66 0 -124.5 -40.5 t-104.5 -117.5q-61 -102 -97 -247.5t-36 -290.5zM344 1270q0 41 32.5 73.5t74.5 32.5q43 0 75.5 -32t32.5 -74q0 -48 -31 -79.5t-77 -31.5q-44 0 -75.5 32.5t-31.5 78.5zM697 1270q0 41 32.5 73.5t73.5 32.5q44 0 76.5 -32t32.5 -74q0 -48 -31.5 -79.5t-77.5 -31.5 q-43 0 -74.5 32.5t-31.5 78.5z" />
<glyph unicode="&#xf7;" horiz-adv-x="1706" d="M254 553v117h1198v-117h-1198zM739 250q0 48 34 81.5t81 33.5t81 -34t34 -81t-33.5 -81t-81.5 -34t-81.5 33.5t-33.5 81.5zM739 971q0 47 34 80.5t81 33.5q48 0 81.5 -33.5t33.5 -80.5q0 -48 -33.5 -81.5t-81.5 -33.5q-49 0 -82 33.5t-33 81.5z" />
<glyph unicode="&#xf8;" horiz-adv-x="1004" d="M-4 -141l143 211q-52 58 -76 127.5t-24 164.5q0 261 154 447t364 186q50 0 93.5 -10.5t82.5 -32.5l113 166h90l-141 -211q51 -53 75.5 -119t24.5 -153q0 -282 -153 -467.5t-386 -185.5q-43 0 -82.5 10.5t-74.5 32.5l-115 -166h-88zM193 266q0 -23 2 -48.5t8 -57.5 l491 727q-24 29 -54.5 42t-74.5 13q-71 0 -131 -40.5t-108 -121.5q-60 -99 -96.5 -240t-36.5 -274zM236 88q22 -30 55 -44.5t78 -14.5q72 0 133.5 41t109.5 120q59 98 99.5 246.5t40.5 261.5q0 31 -4.5 61t-14.5 64z" />
<glyph unicode="&#xf9;" horiz-adv-x="1219" d="M25 731q72 132 150 198t163 66q70 0 110.5 -38.5t40.5 -104.5q0 -28 -6.5 -63t-19.5 -72l-137 -389q-23 -62 -34 -107t-11 -74q0 -46 18.5 -66t60.5 -20q99 0 226.5 153.5t169.5 342.5l92 420h158l-158 -709q-9 -42 -14 -75.5t-5 -51.5q0 -35 15.5 -57.5t38.5 -22.5 q56 0 107 42t118 147l41 -25q-69 -121 -150.5 -183t-171.5 -62q-68 0 -103.5 34.5t-35.5 102.5q0 35 7 80t20 98q-117 -172 -209.5 -243.5t-194.5 -71.5q-88 0 -137 44t-49 123q0 41 13.5 98t45.5 148l119 338q13 35 20 64.5t7 50.5q0 29 -15.5 46t-40.5 17q-42 0 -96 -53.5 t-106 -148.5zM449 1389q0 32 22 54.5t54 22.5q21 0 42 -13t42 -38l245 -309h-80l-266 199q-30 22 -44.5 42.5t-14.5 41.5z" />
<glyph unicode="&#xfa;" horiz-adv-x="1219" d="M25 731q72 132 150 198t163 66q70 0 110.5 -38.5t40.5 -104.5q0 -28 -6.5 -63t-19.5 -72l-137 -389q-23 -62 -34 -107t-11 -74q0 -46 18.5 -66t60.5 -20q99 0 226.5 153.5t169.5 342.5l92 420h158l-158 -709q-9 -42 -14 -75.5t-5 -51.5q0 -35 15.5 -57.5t38.5 -22.5 q56 0 107 42t118 147l41 -25q-69 -121 -150.5 -183t-171.5 -62q-68 0 -103.5 34.5t-35.5 102.5q0 35 7 80t20 98q-117 -172 -209.5 -243.5t-194.5 -71.5q-88 0 -137 44t-49 123q0 41 13.5 98t45.5 148l119 338q13 35 20 64.5t7 50.5q0 29 -15.5 46t-40.5 17q-42 0 -96 -53.5 t-106 -148.5zM506 1106l293 295q34 33 62 49t53 16q33 0 55.5 -23t22.5 -59q0 -24 -16.5 -43.5t-59.5 -46.5l-322 -188h-88z" />
<glyph unicode="&#xfb;" horiz-adv-x="1219" d="M25 731q72 132 150 198t163 66q70 0 110.5 -38.5t40.5 -104.5q0 -28 -6.5 -63t-19.5 -72l-137 -389q-23 -62 -34 -107t-11 -74q0 -46 18.5 -66t60.5 -20q99 0 226.5 153.5t169.5 342.5l92 420h158l-158 -709q-9 -42 -14 -75.5t-5 -51.5q0 -35 15.5 -57.5t38.5 -22.5 q56 0 107 42t118 147l41 -25q-69 -121 -150.5 -183t-171.5 -62q-68 0 -103.5 34.5t-35.5 102.5q0 35 7 80t20 98q-117 -172 -209.5 -243.5t-194.5 -71.5q-88 0 -137 44t-49 123q0 41 13.5 98t45.5 148l119 338q13 35 20 64.5t7 50.5q0 29 -15.5 46t-40.5 17q-42 0 -96 -53.5 t-106 -148.5zM385 1104l299 338h103l162 -338h-58l-170 199l-258 -199h-78z" />
<glyph unicode="&#xfc;" horiz-adv-x="1219" d="M25 731q72 132 150 198t163 66q70 0 110.5 -38.5t40.5 -104.5q0 -28 -6.5 -63t-19.5 -72l-137 -389q-23 -62 -34 -107t-11 -74q0 -46 18.5 -66t60.5 -20q99 0 226.5 153.5t169.5 342.5l92 420h158l-158 -709q-9 -42 -14 -75.5t-5 -51.5q0 -35 15.5 -57.5t38.5 -22.5 q56 0 107 42t118 147l41 -25q-69 -121 -150.5 -183t-171.5 -62q-68 0 -103.5 34.5t-35.5 102.5q0 35 7 80t20 98q-117 -172 -209.5 -243.5t-194.5 -71.5q-88 0 -137 44t-49 123q0 41 13.5 98t45.5 148l119 338q13 35 20 64.5t7 50.5q0 29 -15.5 46t-40.5 17q-42 0 -96 -53.5 t-106 -148.5zM426 1270q0 41 32.5 73.5t74.5 32.5q43 0 75.5 -32t32.5 -74q0 -48 -31 -79.5t-77 -31.5q-44 0 -75.5 32.5t-31.5 78.5zM779 1270q0 41 32.5 73.5t73.5 32.5q44 0 76.5 -32t32.5 -74q0 -48 -31.5 -79.5t-77.5 -31.5q-43 0 -74.5 32.5t-31.5 78.5z" />
<glyph unicode="&#xfd;" horiz-adv-x="1139" d="M20 731q64 135 142 200.5t174 65.5q68 0 104.5 -34.5t36.5 -100.5q0 -28 -8 -69.5t-25 -100.5l-61 -211q-6 -22 -19 -64q-47 -157 -47 -212q0 -42 19 -62t57 -20q45 0 98.5 40t114.5 120q54 69 95.5 142.5t48.5 101.5l100 450h154l-166 -770q-87 -403 -193 -532.5 t-303 -129.5q-126 0 -208.5 47t-82.5 115q0 33 18 51.5t50 18.5q43 0 72.5 -39t29.5 -98v-15q20 -11 47 -16.5t64 -5.5q152 0 228.5 132t158.5 627q-100 -166 -208 -256t-208 -90q-69 0 -105 37t-36 107q0 64 50 238l7 24l88 303q9 29 14 61t5 58q0 33 -16.5 49t-49.5 16 q-45 0 -91.5 -46.5t-105.5 -151.5zM491 1106l293 295q34 33 62 49t53 16q33 0 55.5 -23t22.5 -59q0 -24 -16.5 -43.5t-59.5 -46.5l-322 -188h-88z" />
<glyph unicode="&#xfe;" horiz-adv-x="985" d="M-170 -436l11 57q61 4 86 24t42 101l318 1520q7 33 10.5 62t3.5 50q0 71 -116 77q-14 1 -21 1l8 55q19 0 51 -1q58 -3 76 -3q30 0 72.5 3t124.5 12l-168 -766q69 121 151 180t180 59q106 0 167 -87.5t61 -241.5q0 -271 -139 -460.5t-332 -189.5q-72 0 -127.5 28.5 t-87.5 82.5l-72 -352q-6 -36 -8 -51.5t-2 -26.5q0 -44 23 -59t130 -17l-10 -57q-59 4 -116 6t-109 2q-42 0 -94 -2t-113 -6zM215 211q25 -61 68 -93t102 -32t113 36t96 103q55 89 92 227.5t37 258.5q0 92 -33.5 141t-97.5 49q-77 0 -155 -86.5t-146 -247.5z" />
<glyph unicode="&#xff;" horiz-adv-x="1139" d="M20 731q64 135 142 200.5t174 65.5q68 0 104.5 -34.5t36.5 -100.5q0 -28 -8 -69.5t-25 -100.5l-61 -211q-6 -22 -19 -64q-47 -157 -47 -212q0 -42 19 -62t57 -20q45 0 98.5 40t114.5 120q54 69 95.5 142.5t48.5 101.5l100 450h154l-166 -770q-87 -403 -193 -532.5 t-303 -129.5q-126 0 -208.5 47t-82.5 115q0 33 18 51.5t50 18.5q43 0 72.5 -39t29.5 -98v-15q20 -11 47 -16.5t64 -5.5q152 0 228.5 132t158.5 627q-100 -166 -208 -256t-208 -90q-69 0 -105 37t-36 107q0 64 50 238l7 24l88 303q9 29 14 61t5 58q0 33 -16.5 49t-49.5 16 q-45 0 -91.5 -46.5t-105.5 -151.5zM411 1270q0 41 32.5 73.5t74.5 32.5q43 0 75.5 -32t32.5 -74q0 -48 -31 -79.5t-77 -31.5q-44 0 -75.5 32.5t-31.5 78.5zM764 1270q0 41 32.5 73.5t73.5 32.5q44 0 76.5 -32t32.5 -74q0 -48 -31.5 -79.5t-77.5 -31.5q-43 0 -74.5 32.5 t-31.5 78.5z" />
<glyph unicode="&#x152;" horiz-adv-x="2114" d="M76 621q0 377 227.5 620.5t577.5 243.5q73 0 206.5 -7.5t192.5 -7.5h707l-13 -397h-53q1 18 1.5 34t0.5 32q0 150 -55.5 207t-214.5 57h-334l-102 -610h92q191 0 244.5 44.5t72.5 176.5h51q-25 -125 -45 -259t-37 -280h-50q2 37 3.5 66t1.5 47q0 84 -32 110.5t-146 26.5 h-168l-108 -659h362q132 0 191 14t100 47q42 36 73.5 96t73.5 195h54q-23 -100 -44.5 -204.5t-41.5 -213.5h-695q-65 0 -223 -10t-248 -10q-290 0 -456 170.5t-166 470.5zM272 557q0 -248 115 -382t328 -134q120 0 168 38t65 142l162 967q7 43 10.5 76.5t3.5 48.5 q0 56 -47.5 82t-152.5 26q-285 0 -468.5 -242.5t-183.5 -621.5z" />
<glyph unicode="&#x153;" horiz-adv-x="1561" d="M39 365q0 257 155 443.5t365 186.5q112 0 188 -50t113 -148q78 97 176.5 147.5t210.5 50.5q101 0 157 -44t56 -124q0 -154 -150.5 -239t-432.5 -88q-16 -58 -23.5 -117.5t-7.5 -118.5q0 -105 40 -155t124 -50q87 0 167.5 61t143.5 175l39 -27q-64 -137 -165 -211.5 t-224 -74.5q-104 0 -168 36.5t-101 116.5q-62 -75 -146.5 -114t-182.5 -39q-156 0 -245 102t-89 281zM203 244q0 -98 44.5 -152.5t123.5 -54.5q67 0 124.5 39t102.5 117q61 102 97 248.5t36 291.5q0 99 -43.5 153t-122.5 54q-66 0 -123.5 -39.5t-103.5 -116.5 q-62 -102 -98.5 -248.5t-36.5 -291.5zM889 553q218 3 328 70t110 198q0 54 -32.5 86.5t-86.5 32.5q-105 0 -186 -98.5t-133 -288.5z" />
<glyph unicode="&#x178;" horiz-adv-x="1104" d="M43 1403v67q74 -5 124.5 -7.5t86.5 -2.5q32 0 83 2.5t150 7.5v-67q-69 -6 -92.5 -18t-23.5 -39q0 -12 5 -29.5t19 -52.5l228 -549l317 553q12 21 19.5 43t7.5 37q0 29 -27.5 41t-101.5 14v67q66 -5 109 -7.5t75 -2.5q31 0 76 2.5t114 7.5v-67q-59 -4 -97 -30.5 t-93 -117.5l-383 -639l-61 -360q-7 -37 -11 -69t-4 -44q0 -38 28 -55t109 -23v-65q-94 6 -144 8t-83 2t-86 -2t-149 -8v65q81 3 114 27t47 109l74 430l-258 606q-43 99 -77.5 129t-94.5 37zM430 1772q0 41 32.5 73.5t74.5 32.5q43 0 75.5 -32t32.5 -74q0 -48 -31 -79.5 t-77 -31.5q-44 0 -75.5 32.5t-31.5 78.5zM783 1772q0 41 32.5 73.5t73.5 32.5q44 0 76.5 -32t32.5 -74q0 -48 -31.5 -79.5t-77.5 -31.5q-43 0 -74.5 32.5t-31.5 78.5z" />
<glyph unicode="&#x2c6;" horiz-adv-x="1024" d="M313 1104l299 338h103l162 -338h-58l-170 199l-258 -199h-78z" />
<glyph unicode="&#x2dc;" horiz-adv-x="1024" d="M348 1155q14 94 56.5 142.5t111.5 48.5q17 0 35.5 -3t36.5 -8l128 -34q23 -6 38 -8.5t26 -2.5q40 0 66 20.5t37 59.5h45q-18 -93 -64.5 -142.5t-115.5 -49.5q-15 0 -34.5 3t-41.5 9l-129 35q-15 4 -31 6t-33 2q-36 0 -57 -19t-29 -59h-45z" />
<glyph unicode="&#x2000;" horiz-adv-x="986" />
<glyph unicode="&#x2001;" horiz-adv-x="1972" />
<glyph unicode="&#x2002;" horiz-adv-x="986" />
<glyph unicode="&#x2003;" horiz-adv-x="1972" />
<glyph unicode="&#x2004;" horiz-adv-x="657" />
<glyph unicode="&#x2005;" horiz-adv-x="493" />
<glyph unicode="&#x2006;" horiz-adv-x="328" />
<glyph unicode="&#x2007;" horiz-adv-x="328" />
<glyph unicode="&#x2008;" horiz-adv-x="246" />
<glyph unicode="&#x2009;" horiz-adv-x="394" />
<glyph unicode="&#x200a;" horiz-adv-x="109" />
<glyph unicode="&#x2010;" horiz-adv-x="707" d="M63 438l23 123h481l-22 -123h-482z" />
<glyph unicode="&#x2011;" horiz-adv-x="707" d="M63 438l23 123h481l-22 -123h-482z" />
<glyph unicode="&#x2012;" horiz-adv-x="707" d="M63 438l23 123h481l-22 -123h-482z" />
<glyph unicode="&#x2013;" horiz-adv-x="1024" d="M-66 457l21 86h1059l-21 -86h-1059z" />
<glyph unicode="&#x2014;" horiz-adv-x="2048" d="M-66 457l21 86h2118l-21 -86h-2118z" />
<glyph unicode="&#x2018;" horiz-adv-x="516" d="M162 1106q0 124 83 221.5t240 157.5l21 -51q-123 -56 -189.5 -121.5t-66.5 -128.5q0 -20 4.5 -30.5t13.5 -10.5q4 0 21.5 5t32.5 5q32 0 55.5 -26t23.5 -64q0 -51 -31 -83t-81 -32q-58 0 -92.5 43t-34.5 115z" />
<glyph unicode="&#x2019;" horiz-adv-x="516" d="M125 997q121 55 188.5 121.5t67.5 130.5q0 19 -5 30t-14 11q-4 0 -22.5 -5t-32.5 -5q-33 0 -55.5 25.5t-22.5 64.5q0 52 31 83.5t82 31.5q57 0 92 -43t35 -115q0 -123 -84 -220.5t-242 -158.5z" />
<glyph unicode="&#x201a;" horiz-adv-x="516" d="M-47 -291q122 56 189 121.5t67 128.5q0 20 -5 30.5t-14 10.5q-3 0 -21 -5t-32 -5q-33 0 -55.5 25.5t-22.5 64.5q0 52 31 83.5t82 31.5q57 0 92 -43.5t35 -114.5q0 -123 -83.5 -219.5t-242.5 -157.5z" />
<glyph unicode="&#x201c;" horiz-adv-x="891" d="M162 1106q0 124 83 221.5t240 157.5l21 -51q-123 -56 -189.5 -121.5t-66.5 -128.5q0 -20 4.5 -30.5t13.5 -10.5q4 0 21.5 5t32.5 5q32 0 55.5 -26t23.5 -64q0 -51 -31 -83t-81 -32q-58 0 -92.5 43t-34.5 115zM532 1106q0 123 84 220.5t242 158.5l19 -51 q-123 -56 -189.5 -121.5t-66.5 -128.5q0 -21 4.5 -31t13.5 -10q3 0 21 5t32 5q33 0 56.5 -26t23.5 -64q0 -51 -31 -83t-82 -32q-57 0 -92 43t-35 115z" />
<glyph unicode="&#x201d;" horiz-adv-x="891" d="M125 997q121 55 188.5 121.5t67.5 130.5q0 19 -5 30t-14 11q-4 0 -22.5 -5t-32.5 -5q-33 0 -55.5 25.5t-22.5 64.5q0 52 31 83.5t82 31.5q57 0 92 -43t35 -115q0 -123 -84 -220.5t-242 -158.5zM496 997q121 55 188.5 121.5t67.5 130.5q0 19 -5.5 30t-13.5 11 q-4 0 -22.5 -5t-32.5 -5q-33 0 -55.5 25.5t-22.5 64.5q0 52 31 83.5t82 31.5q57 0 92 -43t35 -115q0 -123 -83.5 -220.5t-242.5 -158.5z" />
<glyph unicode="&#x201e;" horiz-adv-x="891" d="M-47 -291q122 56 189 121.5t67 128.5q0 20 -5 30.5t-14 10.5q-3 0 -21 -5t-32 -5q-33 0 -55.5 25.5t-22.5 64.5q0 52 31 83.5t82 31.5q57 0 92 -43.5t35 -114.5q0 -123 -83.5 -219.5t-242.5 -157.5zM324 -291q122 56 189 121.5t67 128.5q-1 21 -5.5 31t-13.5 10 q-3 0 -21 -5t-32 -5q-33 0 -55.5 25.5t-22.5 64.5q0 52 31 83.5t82 31.5q57 0 92 -43.5t35 -114.5q0 -123 -83.5 -219.5t-242.5 -157.5z" />
<glyph unicode="&#x2022;" horiz-adv-x="1208" d="M307 762q0 123 87 209t210 86q122 0 208.5 -86.5t86.5 -208.5t-87.5 -209.5t-209.5 -87.5q-123 0 -209 87t-86 210z" />
<glyph unicode="&#x2026;" horiz-adv-x="2048" d="M159 92q0 41 31 72t72 31t71.5 -30.5t30.5 -72.5q0 -44 -29.5 -73t-72.5 -29t-73 29.5t-30 72.5zM841 92q0 41 31 72t72 31t71.5 -30.5t30.5 -72.5q0 -44 -29.5 -73t-72.5 -29t-73 29.5t-30 72.5zM1525 92q0 41 31 72t72 31t71.5 -30.5t30.5 -72.5q0 -44 -29.5 -73 t-72.5 -29t-73 29.5t-30 72.5z" />
<glyph unicode="&#x202f;" horiz-adv-x="394" />
<glyph unicode="&#x2039;" horiz-adv-x="483" d="M27 498q118 81 232 176.5t124 95.5q6 0 11 -4t5 -10q0 -17 -51.5 -78.5t-175.5 -190.5q75 -154 98 -209.5t23 -72.5q0 -6 -4.5 -10.5t-9.5 -4.5q-15 0 -91.5 108.5t-160.5 199.5z" />
<glyph unicode="&#x203a;" horiz-adv-x="483" d="M-2 205q0 17 51.5 78t175.5 190q-71 145 -97 204.5t-26 78.5q0 6 5 10t12 4q15 0 92 -108.5t160 -198.5q-119 -82 -233 -177.5t-124 -95.5q-6 0 -11 4.5t-5 10.5z" />
<glyph unicode="&#x205f;" horiz-adv-x="493" />
<glyph unicode="&#x20ac;" d="M20 557l27 61l146 1q3 53 11.5 116.5t18.5 106.5h-155l26 61h144q66 262 206 404.5t336 142.5q95 0 166 -41.5t117 -122.5l33 80h49q-10 -60 -32.5 -166t-35.5 -196h-53q3 33 3.5 49t0.5 30q0 145 -63 224t-183 79q-125 0 -220 -124t-152 -359h567l-27 -61h-553 q-8 -43 -15.5 -105.5t-10.5 -117.5l481 -1l-27 -61h-456v-16q0 -241 68.5 -369.5t201.5 -128.5q104 0 178 58.5t152 211.5l47 -20q-77 -166 -171 -238.5t-222 -72.5q-205 0 -316.5 154t-113.5 421h-173z" />
<glyph unicode="&#x2122;" horiz-adv-x="1683" d="M244 1260l12 178h440l11 -178h-25q-8 79 -40.5 115t-96.5 36h-21v-426q0 -23 12 -37t33 -16l31 -2v-27h-248v27l31 2q21 1 33 15.5t12 37.5v426h-20q-64 0 -97 -36t-41 -115h-26zM788 903v27l34 2q21 2 32.5 16t11.5 37v371q0 23 -12.5 37t-34.5 16l-31 2v27h183 l141 -400l148 400h174v-25l-30 -2q-22 -2 -34 -15.5t-12 -37.5v-373q0 -24 12 -37.5t34 -15.5l30 -2v-27h-236v27l31 2q21 2 33 16t12 37v395l-178 -479h-15l-174 479v-395q0 -23 12.5 -37t34.5 -16l31 -2v-27h-197z" />
<glyph unicode="&#x25fc;" horiz-adv-x="995" d="M0 0v995h995v-995h-995z" />
<glyph unicode="&#xfb01;" horiz-adv-x="1208" d="M4 -436q90 300 182 874l7 42l63 397h-195l9 61h194q42 292 155 438t298 146q120 0 196 -58.5t76 -150.5q0 -40 -20 -64t-54 -24q-27 0 -46 22t-19 56q0 31 10 65t10 39q0 21 -37 37t-92 16q-129 0 -203 -118t-118 -404h184q168 0 323 46q32 9 40 9q29 0 41 -14t12 -51 q0 -16 -4.5 -39t-11.5 -49l-175 -625q-6 -20 -9 -39t-3 -39q0 -35 17 -52t51 -17q45 0 90 46t104 152l43 -22q-66 -137 -140 -200.5t-167 -63.5q-70 0 -110.5 36.5t-40.5 98.5q0 30 6 67.5t18 77.5l125 434q9 34 15 65.5t6 45.5q0 42 -23.5 57t-124.5 15h-18h-256l-72 -441 q-49 -301 -86 -480.5t-80 -324.5z" />
<glyph unicode="&#xfb02;" horiz-adv-x="1208" d="M4 -436q90 300 182 874l7 42l63 397h-195l9 61h194q40 289 153.5 436.5t297.5 147.5q59 0 109.5 -16.5t97.5 -51.5q45 6 93.5 16t106.5 25l-280 -1290q-2 -7 -3 -16t-1 -27q0 -41 18.5 -64.5t50.5 -23.5q42 0 88 47t105 151l43 -22q-67 -137 -142.5 -202.5t-164.5 -65.5 q-73 0 -113.5 39.5t-40.5 109.5q0 39 21 138l2 10l133 598h-426l-72 -441q-49 -301 -86 -480.5t-80 -324.5zM420 938h432l76 375v6q0 47 -55.5 94t-131.5 47q-129 0 -203 -118t-118 -404z" />
</font>
</defs>
</svg>
